<svg xmlns="http://www.w3.org/2000/svg" xmlns:xlink="http://www.w3.org/1999/xlink" width="30" height="31" viewBox="0 0 30 31">
  <defs>
    <linearGradient id="linear-gradient" x1="0.494" y1="0.005" x2="0.506" y2="0.995" gradientUnits="objectBoundingBox">
      <stop offset="0" stop-color="#f4792d"/>
      <stop offset="1" stop-color="#f9a533"/>
    </linearGradient>
    <linearGradient id="linear-gradient-2" x1="0.483" y1="0.036" x2="0.519" y2="0.971" gradientUnits="objectBoundingBox">
      <stop offset="0" stop-color="#f9a533"/>
      <stop offset="1" stop-color="#f47b2d"/>
    </linearGradient>
  </defs>
  <g id="Group_107" data-name="Group 107" transform="translate(-343.328 -55.962)">
    <path id="Path_148" data-name="Path 148" d="M373.327,74.707c.039,4.186-1,8.571-5.017,10.626-4.247,2.173-15.714,2.174-19.965,0-4.016-2.054-5.056-6.44-5.017-10.626q.031-3.247,0-6.489c-.039-4.186,1-8.571,5.017-10.626,4.25-2.174,15.718-2.173,19.965,0,4.016,2.054,5.056,6.441,5.017,10.626Q373.3,71.464,373.327,74.707Z" transform="translate(0 0)" fill="#fff100" fill-rule="evenodd"/>
    <path id="Path_149" data-name="Path 149" d="M370.866,74.856c0-2.447,0-4.183,0-6.631q.1-6.409-3.588-8.295c-3.462-1.77-14.2-1.811-17.744,0q-3.687,1.886-3.588,8.295c0,2.447,0,4.183,0,6.631q-.1,6.409,3.588,8.295c3.542,1.811,14.282,1.77,17.744,0Q370.965,81.265,370.866,74.856Z" transform="translate(-0.078 -0.078)" fill-rule="evenodd" fill="url(#linear-gradient)"/>
    <path id="Path_150" data-name="Path 150" d="M369.106,67.727A13.695,13.695,0,0,0,350.6,81.96c4.034,1.187,12.321,1.006,15.192-.46q3.407-1.74,3.315-7.655C369.11,71.587,369.11,69.986,369.106,67.727Z" transform="translate(1.682 1.676)" fill-rule="evenodd" opacity="0.64" fill="url(#linear-gradient-2)"/>
    <path id="Path_151" data-name="Path 151" d="M351.118,60.723c.725.373.77,1.729.1,3.031s-1.8,2.056-2.521,1.683-.77-1.729-.1-3.031S350.393,60.352,351.118,60.723Z" transform="translate(0.216 0.236)" fill="#fff" fill-rule="evenodd" opacity="0.49"/>
    <path id="Path_152" data-name="Path 152" d="M348.329,66.195c.633.074,1.038,1.056.9,2.193s-.755,2-1.387,1.924-1.037-1.056-.9-2.193S347.7,66.12,348.329,66.195Z" transform="translate(-0.107 0.493)" fill="#fff" fill-rule="evenodd" opacity="0.49"/>
    <g id="Group_106" data-name="Group 106" transform="translate(350.934 66.284)">
      <path id="Path_153" data-name="Path 153" d="M358.718,69.3l3.257-1.981c1.761-1.061,3-.738,3,1.647.007,1.816.007,2.955,0,4.77,0,2.387-1.238,2.71-3,1.648l-3.257-1.981,0,.333c.006,2.387-1.238,2.709-3,1.648l-4.441-2.7q-2.171-1.332,0-2.664l4.441-2.7c1.76-1.061,3-.738,3,1.647Z" transform="translate(-350.191 -65.606)" fill="#24447d" fill-rule="evenodd" opacity="0.23"/>
      <path id="Path_154" data-name="Path 154" d="M358.718,68.128l3.257-1.981c1.761-1.06,3-.738,3,1.648.007,1.815.007,2.954,0,4.77,0,2.386-1.238,2.709-3,1.648l-3.257-1.982,0,.334c.006,2.387-1.238,2.709-3,1.648l-4.441-2.7q-2.171-1.333,0-2.665l4.441-2.7c1.76-1.06,3-.738,3,1.648Z" transform="translate(-350.191 -65.571)" fill="#fff" fill-rule="evenodd"/>
    </g>
  </g>
</svg>
