<svg xmlns="http://www.w3.org/2000/svg" width="70" height="70" viewBox="0 0 70 70">
  <g id="Group_7754" data-name="Group 7754" transform="translate(-150 -161)">
    <path id="Icon_awesome-check-circle" data-name="Icon awesome-check-circle" d="M70.562,35.563a35,35,0,1,1-35-35A35,35,0,0,1,70.562,35.563ZM31.514,54.095,57.482,28.127a2.258,2.258,0,0,0,0-3.193L54.288,21.74a2.258,2.258,0,0,0-3.193,0L29.917,42.918,20.03,33.031a2.258,2.258,0,0,0-3.193,0l-3.193,3.193a2.258,2.258,0,0,0,0,3.193L28.321,54.095a2.258,2.258,0,0,0,3.193,0Z" transform="translate(149.438 160.438)" fill="#00a191"/>
    <path id="Path_6362" data-name="Path 6362" d="M9004.563,5655.535a2.6,2.6,0,0,0-3.034-.32,30.386,30.386,0,0,0-4.007,4.147c-.381.644-.668,1.405.684,2.8s14.779,14.629,14.779,14.629a2.21,2.21,0,0,0,2.721,0c1.465-1.064,26.1-26.112,26.639-26.639a1.926,1.926,0,0,0,0-2.4,24.685,24.685,0,0,0-3.9-3.9,2.27,2.27,0,0,0-2.99.4c-1.112,1.019-21.1,21.059-21.1,21.059S9004.825,5655.778,9004.563,5655.535Z" transform="translate(-8835 -5462)"/>
  </g>
</svg>
