<svg xmlns="http://www.w3.org/2000/svg" xmlns:xlink="http://www.w3.org/1999/xlink" width="18" height="18" viewBox="0 0 18 18"><defs><clipPath id="a"><rect width="18" height="18" transform="translate(16 1337)" fill="#cfd8dc" stroke="#707070" stroke-width="1"/></clipPath></defs><g transform="translate(-16 -1337)" clip-path="url(#a)"><g transform="translate(16 1337)"><path d="M17.99,11.265A16.8,16.8,0,0,0,17.5,8.014a12.477,12.477,0,0,0-1.009-2.735c-1.569-2.758-3.273-2.332-5.313-1.794a14.6,14.6,0,0,1-2.063.4H8.888a14.6,14.6,0,0,1-2.063-.4C4.785,2.97,3.081,2.521,1.512,5.3A11.429,11.429,0,0,0,.5,8.036,16.8,16.8,0,0,0,.01,11.287a6.109,6.109,0,0,0,.314,2.556A1.7,1.7,0,0,0,1.4,14.852,2.192,2.192,0,0,0,2.835,14.7a10.538,10.538,0,0,0,2.87-2.04A4.95,4.95,0,0,1,9,11.646a4.95,4.95,0,0,1,3.3,1.009,10.538,10.538,0,0,0,2.87,2.04,2.345,2.345,0,0,0,1.435.157,1.675,1.675,0,0,0,1.076-1.031A6,6,0,0,0,17.99,11.265Zm-1.076,2.242a.889.889,0,0,1-.538.56,1.548,1.548,0,0,1-.919-.112,9.143,9.143,0,0,1-2.6-1.861A5.6,5.6,0,0,0,9,10.816,5.912,5.912,0,0,0,5.121,12.05a9.316,9.316,0,0,1-2.6,1.861,1.391,1.391,0,0,1-.919.112.889.889,0,0,1-.538-.56A5.3,5.3,0,0,1,.839,11.31,15.465,15.465,0,0,1,1.31,8.216a10.7,10.7,0,0,1,.942-2.533C3.485,3.463,4.92,3.822,6.624,4.27a13.152,13.152,0,0,0,2.2.426h.336a12.989,12.989,0,0,0,2.22-.426c1.7-.426,3.139-.807,4.372,1.412a10.338,10.338,0,0,1,.942,2.533,16.969,16.969,0,0,1,.471,3.094A5.188,5.188,0,0,1,16.914,13.507Z" fill="#cfd8dc"/><path d="M6.937,6.893a1.362,1.362,0,0,0-.807-.381,1.276,1.276,0,0,0-.359-.785L5.749,5.7a1.27,1.27,0,0,0-.919-.381,1.324,1.324,0,0,0-.919.381,1.3,1.3,0,0,0-.381.807,1.336,1.336,0,0,0-.807.359L2.7,6.893a1.27,1.27,0,0,0-.381.919,1.324,1.324,0,0,0,.381.919,1.25,1.25,0,0,0,.83.381,1.2,1.2,0,0,0,.381.807,1.27,1.27,0,0,0,.919.381,1.324,1.324,0,0,0,.919-.381,1.362,1.362,0,0,0,.381-.807,1.2,1.2,0,0,0,.807-.381,1.27,1.27,0,0,0,.381-.919A1.324,1.324,0,0,0,6.937,6.893Zm-.56,1.256a.456.456,0,0,1-.336.135H5.727a.426.426,0,0,0-.426.426V9a.471.471,0,1,1-.942,0V8.687a.426.426,0,0,0-.426-.426H3.619a.46.46,0,0,1-.336-.785l.022-.022a.536.536,0,0,1,.314-.112h.314a.426.426,0,0,0,.426-.426V6.6a.476.476,0,0,1,.807-.336l.022.022A.536.536,0,0,1,5.3,6.6v.314a.426.426,0,0,0,.426.426h.314a.476.476,0,0,1,.336.807Z" fill="#cfd8dc"/><circle cx="0.785" cy="0.785" r="0.785" transform="translate(12.116 5.436)" fill="#cfd8dc"/><circle cx="0.785" cy="0.785" r="0.785" transform="translate(12.116 8.619)" fill="#cfd8dc"/><circle cx="0.785" cy="0.785" r="0.785" transform="translate(10.525 7.028)" fill="#cfd8dc"/><circle cx="0.785" cy="0.785" r="0.785" transform="translate(13.708 7.028)" fill="#cfd8dc"/></g></g></svg>