<svg xmlns="http://www.w3.org/2000/svg" xmlns:xlink="http://www.w3.org/1999/xlink" width="18" height="18" viewBox="0 0 18 18"><defs><clipPath id="a"><rect width="18" height="18" transform="translate(309 1337)" fill="#ffc107" stroke="#707070" stroke-width="1"/></clipPath></defs><g transform="translate(-309 -1337)" clip-path="url(#a)"><path d="M14.625,1.125V.563A.562.562,0,0,0,14.063,0H3.938a.562.562,0,0,0-.562.563v.563H0V4.153a7.042,7.042,0,0,0,4.075,6.383,5.613,5.613,0,0,0,3.237,2.676v.568a.845.845,0,0,1-.844.844A1.971,1.971,0,0,0,4.5,16.594v.844A.562.562,0,0,0,5.063,18h7.875a.562.562,0,0,0,.563-.562v-.844a1.971,1.971,0,0,0-1.969-1.969.845.845,0,0,1-.844-.844v-.568a5.613,5.613,0,0,0,3.237-2.676A7.042,7.042,0,0,0,18,4.153V1.125ZM1.125,4.153V2.25h2.25V7.875a5.593,5.593,0,0,0,.1.992,5.916,5.916,0,0,1-2.35-4.713Zm10.406,11.6a.845.845,0,0,1,.844.844v.281H5.625v-.281a.845.845,0,0,1,.844-.844,1.971,1.971,0,0,0,1.969-1.969v-.338A5.492,5.492,0,0,0,9,13.5a5.492,5.492,0,0,0,.563-.057v.338A1.971,1.971,0,0,0,11.531,15.75ZM9,12.375a4.505,4.505,0,0,1-4.5-4.5V1.125h9v6.75A4.505,4.505,0,0,1,9,12.375Zm7.875-8.222a5.916,5.916,0,0,1-2.35,4.713,5.593,5.593,0,0,0,.1-.992V2.25h2.25v1.9Z" transform="translate(309 1337)" fill="#ffc107"/></g></svg>