<svg xmlns="http://www.w3.org/2000/svg" xmlns:xlink="http://www.w3.org/1999/xlink" width="24" height="24" viewBox="0 0 24 24"><defs><clipPath id="a"><rect width="24" height="24" transform="translate(346 206)" fill="#e60000" stroke="#707070" stroke-width="1"/></clipPath></defs><g transform="translate(-346 -206)" clip-path="url(#a)"><g transform="translate(343.23 203.221)"><path d="M21.239,26.779a.923.923,0,0,1,0-1.847h0a.923.923,0,1,1,1.846,0A1.849,1.849,0,0,1,21.239,26.779Z" fill="#e60000"/><path d="M22.162,25.856a.924.924,0,0,1-.923-.923V15.876a.923.923,0,1,1,1.847,0v9.056A.924.924,0,0,1,22.162,25.856Z" fill="#e60000"/><path d="M21.239,26.779H4.617a.923.923,0,1,1,0-1.847H21.239a.923.923,0,0,1,0,1.847Z" fill="#e60000"/><path d="M4.617,26.779A1.849,1.849,0,0,1,2.77,24.932a.923.923,0,0,1,1.847,0h0a.923.923,0,1,1,0,1.845Z" fill="#e60000"/><path d="M3.694,25.856a.924.924,0,0,1-.923-.923V8.311a.923.923,0,1,1,1.847,0V24.932A.924.924,0,0,1,3.694,25.856Z" fill="#e60000"/><path d="M3.693,9.234a.923.923,0,0,1-.923-.923A1.849,1.849,0,0,1,4.617,6.464a.923.923,0,0,1,0,1.847h0A.923.923,0,0,1,3.693,9.234Z" fill="#e60000"/><path d="M13.673,8.311H4.617a.923.923,0,1,1,0-1.847h9.056a.923.923,0,0,1,0,1.847Z" fill="#e60000"/><path d="M12.9,14.312a.923.923,0,0,1-.653-1.576l9.019-9.019a.923.923,0,0,1,1.306,1.306l-9.019,9.019a.92.92,0,0,1-.653.271Z" fill="#e60000"/><path d="M12.005,18.468a.9.9,0,0,1-.194-.021.923.923,0,0,1-.709-1.1l.892-4.156a.923.923,0,0,1,1.806.387l-.892,4.156a.924.924,0,0,1-.9.73Z" fill="#e60000"/><path d="M16.161,17.576A.923.923,0,0,1,15.508,16l9.019-9.019a.923.923,0,0,1,1.306,1.306l-9.019,9.019a.919.919,0,0,1-.653.271Z" fill="#e60000"/><path d="M12,18.468a.923.923,0,0,1-.193-1.826l4.156-.892a.923.923,0,1,1,.387,1.805l-4.156.892a.934.934,0,0,1-.194.021Z" fill="#e60000"/><path d="M23.547,10.19a.919.919,0,0,1-.653-.271L19.629,6.655a.923.923,0,0,1,1.306-1.306L24.2,8.614a.923.923,0,0,1-.653,1.576Z" fill="#e60000"/><path d="M25.179,8.558a.924.924,0,0,1-.653-1.577,1.406,1.406,0,0,0,0-1.958,1.44,1.44,0,0,0-1.959,0,.923.923,0,1,1-1.306-1.306,3.232,3.232,0,0,1,4.57,4.57.917.917,0,0,1-.652.27Z" fill="#e60000"/></g></g></svg>