<svg xmlns="http://www.w3.org/2000/svg" xmlns:xlink="http://www.w3.org/1999/xlink" width="33" height="33" viewBox="0 0 33 33"><defs><clipPath id="a"><rect width="15" height="15" transform="translate(358 41)" fill="#fff" stroke="#707070" stroke-width="1"/></clipPath></defs><rect width="33" height="33" fill="rgba(255,255,255,0)"/><g transform="translate(-349 -32)" clip-path="url(#a)"><g transform="translate(358 41)"><path d="M.732,15a.732.732,0,0,1-.518-1.25L13.749.214A.733.733,0,1,1,14.785,1.25L1.25,14.785A.73.73,0,0,1,.732,15Z" fill="#fff"/><path d="M14.267,15a.73.73,0,0,1-.518-.214L.214,1.25A.733.733,0,1,1,1.25.214L14.785,13.749A.732.732,0,0,1,14.267,15Z" fill="#fff"/></g></g></svg>