<svg xmlns="http://www.w3.org/2000/svg" xmlns:xlink="http://www.w3.org/1999/xlink" width="40" height="40" viewBox="0 0 40 40"><defs><clipPath id="a"><rect width="24" height="24" transform="translate(311 147)" fill="#fff"/></clipPath></defs><rect width="40" height="40" fill="rgba(230,0,0,0)"/><g transform="translate(-303 -139)" clip-path="url(#a)"><g transform="translate(308.231 144.231)"><path d="M25.846,6.462H12.923a1.848,1.848,0,0,0-1.846-1.846H9.231A1.848,1.848,0,0,0,7.385,6.462H3.692a.923.923,0,0,0,0,1.846H7.385a1.848,1.848,0,0,0,1.846,1.846h1.846a1.848,1.848,0,0,0,1.846-1.846H25.846a.923.923,0,1,0,0-1.846ZM9.231,8.308V6.462h1.846v.919s0,0,0,0,0,0,0,0v.919Z" fill="#fff"/><path d="M25.846,13.846H20.308A1.848,1.848,0,0,0,18.462,12H16.615a1.848,1.848,0,0,0-1.846,1.846H3.692a.923.923,0,1,0,0,1.846H14.769a1.848,1.848,0,0,0,1.846,1.846h1.846a1.848,1.848,0,0,0,1.846-1.846h5.538a.923.923,0,1,0,0-1.846Zm-9.231,1.846V13.846h1.846v.919s0,0,0,0,0,0,0,0v.919Z" fill="#fff"/><path d="M25.846,21.231H12.923a1.848,1.848,0,0,0-1.846-1.846H9.231a1.848,1.848,0,0,0-1.846,1.846H3.692a.923.923,0,1,0,0,1.846H7.385a1.848,1.848,0,0,0,1.846,1.846h1.846a1.848,1.848,0,0,0,1.846-1.846H25.846a.923.923,0,1,0,0-1.846ZM9.231,23.077V21.231h1.846v.919s0,0,0,0,0,0,0,0v.919Z" fill="#fff"/></g></g></svg>