<svg xmlns="http://www.w3.org/2000/svg" xmlns:xlink="http://www.w3.org/1999/xlink" width="48" height="45" viewBox="0 0 48 45">
  <defs>
    <radialGradient id="radial-gradient" cx="0.37" cy="0.924" r="1.492" gradientTransform="translate(0.341) scale(0.317 1)" gradientUnits="objectBoundingBox">
      <stop offset="0" stop-color="#50c8e8"/>
      <stop offset="0.11" stop-color="#4ec1e1"/>
      <stop offset="0.267" stop-color="#48afce"/>
      <stop offset="0.452" stop-color="#4092af"/>
      <stop offset="0.659" stop-color="#346984"/>
      <stop offset="0.882" stop-color="#24354d"/>
      <stop offset="1" stop-color="#1c172e"/>
    </radialGradient>
    <radialGradient id="radial-gradient-2" cx="0.426" cy="0.954" r="0.802" gradientTransform="translate(0.122) scale(0.755 1)" gradientUnits="objectBoundingBox">
      <stop offset="0" stop-color="#1cbeca"/>
      <stop offset="0.108" stop-color="#1ab1bd"/>
      <stop offset="0.308" stop-color="#15919a"/>
      <stop offset="0.578" stop-color="#0d5d63"/>
      <stop offset="0.905" stop-color="#031617"/>
      <stop offset="1"/>
    </radialGradient>
    <radialGradient id="radial-gradient-3" cx="-0.04" cy="-0.437" r="1.62" gradientTransform="translate(0.057) scale(0.886 1)" gradientUnits="objectBoundingBox">
      <stop offset="0" stop-color="#1cbeca"/>
      <stop offset="0.118" stop-color="#1cb7c3"/>
      <stop offset="0.287" stop-color="#1ca4b2"/>
      <stop offset="0.486" stop-color="#1c8595"/>
      <stop offset="0.708" stop-color="#1c5a6d"/>
      <stop offset="0.947" stop-color="#1c243a"/>
      <stop offset="1" stop-color="#1c172e"/>
    </radialGradient>
    <radialGradient id="radial-gradient-4" cx="-0.04" cy="-0.437" r="1.723" gradientTransform="translate(0.116) scale(0.769 1)" xlink:href="#radial-gradient-3"/>
  </defs>
  <g id="Group_42" data-name="Group 42" transform="translate(-393.974 -303.516)">
    <g id="Group_20" data-name="Group 20" transform="translate(393.974 303.516)">
      <path id="Path_40" data-name="Path 40" d="M395.853,337.369c1.07,3.895,3.151,7.173,7.793,8.559a70.037,70.037,0,0,0,23.852,2.459,10.28,10.28,0,0,0,9.588-6.682,67.13,67.13,0,0,0,4.389-16.8c.6-5.763,1.011-8.334-.923-11.911-2.077-3.843-6.259-5.085-9.98-6.153-6.76-1.941-18.788-3.624-24.228-3.281-4.055.255-7.96.824-10.568,4.348-2.149,2.906-1.807,6.722-1.744,10.151.065,3.512.161,7.028.513,10.525A54.5,54.5,0,0,0,395.853,337.369Z" transform="translate(-393.974 -303.516)" fill="#f68a2f"/>
      <path id="Path_41" data-name="Path 41" d="M438.587,363.145q-.226.586-.47,1.183a10.281,10.281,0,0,1-9.588,6.682,70.009,70.009,0,0,1-23.852-2.46c-4.642-1.386-6.723-4.663-7.793-8.559-.167-.608-.306-1.235-.43-1.869l-.084.1c.142.786.308,1.562.514,2.311,1.07,3.895,3.151,7.173,7.793,8.559a70.036,70.036,0,0,0,23.852,2.459,10.28,10.28,0,0,0,9.588-6.682c.179-.439.349-.872.516-1.3C438.615,363.426,438.6,363.288,438.587,363.145Z" transform="translate(-395.005 -326.679)" fill="url(#radial-gradient)" style="mix-blend-mode: screen;isolation: isolate"/>
      <path id="Path_42" data-name="Path 42" d="M426.518,347.676c-2.018,0-4.339-.089-5.745-.177-1.431-.059-2.994-.2-4.892-.447a57.2,57.2,0,0,1-9-1.895c-2.962-.886-4.642-2.776-5.616-6.322a45.775,45.775,0,0,1-1.118-7.356c-.392-5.853-.891-13.78-.738-15.416a7.407,7.407,0,0,1,1.273-3.9c1.643-2.221,4.148-2.784,8.19-3.039,1.148-.073,2.319-.109,3.482-.109a69.745,69.745,0,0,1,19.748,3.106,25.457,25.457,0,0,1,4.967,1.978c4.873,2.5,4.3,6.875,3.831,10.4-.064.491-.128.978-.179,1.461l-.01.07c-.077.451-1.938,11.118-4.254,16.778a7.274,7.274,0,0,1-6.812,4.756A30.207,30.207,0,0,1,426.518,347.676Z" transform="translate(-396.299 -305.847)" fill="#f9aa30"/>
      <path id="Path_46" data-name="Path 46" d="M440.2,328.678c-.065.5-.131,1-.183,1.49-.257,1.433-2.027,11.1-4.062,16.076a4.686,4.686,0,0,1-4.3,2.932c-1.189.1-2.364.128-3.527.139a69.431,69.431,0,0,1-9.658-.626,54.321,54.321,0,0,1-8.545-1.8c-1.688-.505-2.818-1.368-3.621-4.273-.93-3.365-1.537-13.766-1.641-16.755-.036-1.026-.133-2.3-.148-3.517-.015,1.37.108,2.878.148,4.056.1,2.989.711,13.391,1.641,16.754.8,2.906,1.933,3.768,3.621,4.273a54.125,54.125,0,0,0,8.545,1.8,69.163,69.163,0,0,0,9.658.628c1.164-.011,2.338-.035,3.527-.139a4.687,4.687,0,0,0,4.3-2.932c2.035-4.973,3.8-14.642,4.062-16.076.052-.491.118-.99.183-1.49a23.916,23.916,0,0,0,.339-3.667C440.507,326.547,440.337,327.612,440.2,328.678Z" transform="translate(-398.507 -311.503)" fill="url(#radial-gradient-2)" style="mix-blend-mode: screen;isolation: isolate"/>
      <path id="Path_48" data-name="Path 48" d="M425.024,313.621a49.592,49.592,0,0,0-13.615-.873c-2.4.179-5.226.427-6.393,2.512-.807,1.441-.437,4.805-.362,7.011.051,1.479.226,4.779.5,8.139.084.192.165.382.252.578C405.277,316.531,410.7,313.127,425.024,313.621Z" transform="translate(-398.506 -307.373)" fill="url(#radial-gradient-3)" style="mix-blend-mode: screen;isolation: isolate"/>
      <path id="Path_49" data-name="Path 49" d="M441.673,350.845c2.035-4.973,3.8-14.642,4.062-16.076.052-.491.118-.99.183-1.49.06-.454.125-.908.182-1.355-4.019,19.2-12.066,22.741-28.3,20.16a55.259,55.259,0,0,0,6.384,1.205,69.173,69.173,0,0,0,9.658.628c1.164-.011,2.338-.035,3.527-.139A4.687,4.687,0,0,0,441.673,350.845Z" transform="translate(-404.228 -315.566)" fill="url(#radial-gradient-4)" style="mix-blend-mode: screen;isolation: isolate"/>
      <path id="Path_51" data-name="Path 51" d="M410.393,315.892c-1.136-1.1-4.2,1.034-4.009,2.3.22,1.475,3.69-.4,4.052-1.175C410.685,316.49,410.628,316.12,410.393,315.892Z" transform="translate(-399.312 -308.636)" fill="#fff" opacity="0.77" style="mix-blend-mode: screen;isolation: isolate"/>
      <path id="Path_52" data-name="Path 52" d="M454.535,363.958c-.82-.8-3.031.746-2.894,1.662.159,1.065,2.663-.291,2.925-.848C454.745,364.387,454.7,364.121,454.535,363.958Z" transform="translate(-418.792 -329.059)" fill="#1cbeca" opacity="0.77" style="mix-blend-mode: screen;isolation: isolate"/>
      <path id="Path_53" data-name="Path 53" d="M417.16,314.166c-.635-.481-2.172.462-1.5,1.158C416.261,315.944,418.238,314.985,417.16,314.166Z" transform="translate(-403.237 -307.978)" fill="#fff" opacity="0.77" style="mix-blend-mode: screen;isolation: isolate"/>
      <path id="Path_54" data-name="Path 54" d="M458.257,360.053c-.711-.356-2.051.855-1.264,1.415C457.693,361.966,459.466,360.658,458.257,360.053Z" transform="translate(-420.995 -327.47)" fill="#1cbeca" opacity="0.77" style="mix-blend-mode: screen;isolation: isolate"/>
      <g id="Group_19" data-name="Group 19" transform="translate(4.44 36.646)">
        <path id="Path_56" data-name="Path 56" d="M406.92,371.592c.387-1.091-1.927-2.512-2.7-2.008-.9.586,1.36,2.359,1.974,2.372C406.613,371.964,406.839,371.817,406.92,371.592Z" transform="translate(-402.732 -368.141)" fill="#afdfe4" opacity="0.77" style="mix-blend-mode: screen;isolation: isolate"/>
        <path id="Path_57" data-name="Path 57" d="M402.922,368.3c.29-.56-.811-1.728-1.128-.789-.187.553.8,1.415,1.128.789Z" transform="translate(-401.77 -367.155)" fill="#afdfe4" opacity="0.77" style="mix-blend-mode: screen;isolation: isolate"/>
      </g>
    </g>
    <g id="Group_24" data-name="Group 24" transform="translate(406.17 312.585)">
      <g id="Group_21" data-name="Group 21">
        <path id="Path_58" data-name="Path 58" d="M433.5,346.588a4.407,4.407,0,0,1-2.56-.755,2.642,2.642,0,0,1-.489-2.6,4.317,4.317,0,0,1,.075-2.6c.041-.183.081-.36.113-.526l1.4-7.413-3.424-3.978c-3.07,1.65-4.4,2.365-5,2.679l-2.1,11.115-.057.1a2.371,2.371,0,0,1-2.175,1.146c-1.431,0-3.106-.886-3.318-2.2l-.021-.13.222-1.171a1.929,1.929,0,0,1-.16-.317,1.554,1.554,0,0,1-.1-.345l-.023-.135,1.291-6.822c-.163-.326-.365-.718-.567-1.111a13.941,13.941,0,0,1-1.039-2.172,2.031,2.031,0,0,1,.072-1.127l-.019-.038a2.1,2.1,0,0,1-.18-.453c-.383-1.734,1.38-2.568,2.043-2.881.043-.021.234-.125.533-.287,8.542-4.614,10.456-5.229,11.152-5.289.129-.012.248-.017.359-.017a2.606,2.606,0,0,1,2.148,1.2l.051.057c.032.035.107.107.2.2l.116.114a1.452,1.452,0,0,1,1.461-.811,5.511,5.511,0,0,1,.873.086c.092.016.21.032.345.051,1.6.228,3.075.5,3.552,1.383a1.367,1.367,0,0,1,.146.457l.007.043,0,.091a2.165,2.165,0,0,1,0,.282c0,.021,0,.059-.008.1-.009.09-.018.174-.033.26a1.263,1.263,0,0,1,.07.119,3.011,3.011,0,0,1-.086,2.089c-.041.154-.08.293-.1.4s-.085.347-.17.66c-.1.355-.219.81-.326,1.251.128.114.264.234.407.359.443.389.945.828,1.389,1.294.092.1.177.19.26.284.108.124.18.213.25.3l.048.06c.066.086.126.174.184.261l.051.073c.058.09.106.177.152.262.025.043.042.073.056.1.043.087.079.176.113.264.018.04.031.073.043.105a2.538,2.538,0,0,1,.076.3.939.939,0,0,1,.028.134,2.064,2.064,0,0,1,.017.431,1.844,1.844,0,0,1-.092.453,2.339,2.339,0,0,1,.224,1.152,1.931,1.931,0,0,1-.114.522c-.124.327-.438.662-2.564,2.557-.294.263-.614.547-.826.742l-.42,1.33-1.332,7.041-.013.039C435.477,346.141,434.671,346.588,433.5,346.588Z" transform="translate(-415.387 -319.265)" fill="#f5892f"/>
        <path id="Path_59" data-name="Path 59" d="M432.839,355.556a2.571,2.571,0,0,1-.492-.048l-3.1-.6a2.511,2.511,0,0,1-1.534-.946,2.2,2.2,0,0,1-.421-1.745l.118-.626a2.148,2.148,0,0,1-.2-.683l-.009-.061a2.042,2.042,0,0,1,.022-.568l.687-3.628a2.276,2.276,0,0,1,2.29-1.775,2.677,2.677,0,0,1,.5.048l3.1.6a2.344,2.344,0,0,1,1.962,2.647l-.092.488a2.16,2.16,0,0,1,.181,1.341l-.706,3.736a2.307,2.307,0,0,1-2.308,1.818Z" transform="translate(-420.469 -330.13)" fill="#f5892f"/>
      </g>
      <g id="Group_23" data-name="Group 23" transform="translate(0.743 0.748)">
        <path id="Path_60" data-name="Path 60" d="M440.907,334.6a1.183,1.183,0,0,1-.07.319c-.144.382-3.554,3.255-3.5,3.316l-.037-.184-1.631,8.617c-.329,1.075-2.846.747-3.588.12-.685-.581-.177-2.043.025-3.1l1.754-9.268-4.4-5.117-5.837,3.135-2.147,11.339c-.826,1.5-3.9.552-4.115-.812l1.605-8.469-.1.161c.091-.047-1.844-3.6-1.915-3.932-.225-1.072.793-1.691,1.647-2.11.305-.152,9.779-5.573,11.478-5.736,1.01-.1,1.273.244,1.94,1.017.159.184,1.237,1.2,1.2,1.407.286-1.51.342-1.852,1.892-1.6.717.117,2.977.33,3.363,1.068.237.448-.161,1.5-.259,2-.082.417-.953,3.239-.682,3.557C438.359,331.293,441.023,333.093,440.907,334.6Zm-10.2,5.926a1.615,1.615,0,0,0-1.365-1.816l-3.1-.6a1.6,1.6,0,0,0-1.933,1.176l-.708,3.737a1.615,1.615,0,0,0,1.368,1.815l3.1.6A1.6,1.6,0,0,0,430,344.259Z" transform="translate(-416.79 -321.54)" fill="#f9aa30"/>
        <path id="Path_61" data-name="Path 61" d="M440.676,332.02a1.116,1.116,0,0,1-.068.31c-.141.37-3.533,3.142-3.479,3.2l-.038-.179-1.582,8.361c-.323,1.042-2.839.709-3.584.1-.688-.569-.189-1.986.008-3.006l1.7-8.993-4.426-4.995s-5.81,3.012-5.813,3.012l-2.083,11c-.818,1.45-3.889.514-4.115-.812l1.556-8.218-.093.156c.091-.045-1.861-3.5-1.934-3.831-.23-1.042.783-1.638,1.634-2.04.3-.146,9.738-5.359,11.434-5.508,1.008-.089,1.273.243,1.943,1,.161.18,1.242,1.168,1.2,1.372.277-1.464.331-1.8,1.88-1.546.717.118,2.976.337,3.366,1.055.239.437-.153,1.452-.248,1.943-.079.405-.934,3.142-.661,3.452C438.112,328.8,440.784,330.56,440.676,332.02Zm-10.16,5.7a1.6,1.6,0,0,0-1.374-1.771l-3.1-.6a1.583,1.583,0,0,0-1.925,1.132l-.687,3.626a1.6,1.6,0,0,0,1.376,1.77l3.1.6a1.581,1.581,0,0,0,1.925-1.132Z" transform="translate(-416.692 -320.565)" fill="#fff"/>
        <g id="Group_22" data-name="Group 22">
          <path id="Path_62" data-name="Path 62" d="M444.884,341.946l-.179-.2-1.522,8.044a6.5,6.5,0,0,0-.291,2.535c.08-.47.21-.96.291-1.384Z" transform="translate(-427.943 -329.548)" fill="#f7fff3"/>
          <path id="Path_63" data-name="Path 63" d="M452.851,333.335a1.984,1.984,0,0,0-.062,1.087c.7.792,2.69,2.16,3.25,3.442a.559.559,0,0,0,.082-.117,1.117,1.117,0,0,0,.068-.31C456.3,336.008,453.746,334.293,452.851,333.335Z" transform="translate(-432.206 -325.981)" fill="#f7fff3"/>
          <path id="Path_64" data-name="Path 64" d="M419.041,342.153c.015-.007-.028-.111-.1-.268l-1.36,7.178a1.1,1.1,0,0,0,.148.37L419.134,342Z" transform="translate(-417.073 -329.608)" fill="#f7fff3"/>
          <path id="Path_65" data-name="Path 65" d="M434.22,346.812l-3.1-.6a1.583,1.583,0,0,0-1.925,1.132l-.687,3.626a1.33,1.33,0,0,0,.079.735l.608-3.21a1.583,1.583,0,0,1,1.925-1.132l3.1.6a1.726,1.726,0,0,1,1.3,1.035l.079-.415A1.6,1.6,0,0,0,434.22,346.812Z" transform="translate(-421.77 -331.429)" fill="#f7fff3"/>
          <path id="Path_66" data-name="Path 66" d="M416.847,328.414a3.249,3.249,0,0,1,1.512-1.176c.3-.146,9.738-5.359,11.434-5.508,1.008-.089,1.273.243,1.943,1,.161.18,1.242,1.168,1.2,1.372.277-1.464.331-1.8,1.88-1.546.7.115,2.866.328,3.33,1.007a1.776,1.776,0,0,0,.035-1.1c-.39-.718-2.649-.937-3.366-1.055-1.549-.252-1.6.081-1.88,1.546.039-.2-1.042-1.193-1.2-1.372-.67-.755-.935-1.087-1.943-1-1.7.149-11.13,5.362-11.434,5.508-.852.4-1.864,1-1.634,2.04A2.089,2.089,0,0,0,416.847,328.414Z" transform="translate(-416.692 -320.565)" fill="#f7fff3"/>
        </g>
      </g>
    </g>
  </g>
</svg>
