<svg xmlns="http://www.w3.org/2000/svg" xmlns:xlink="http://www.w3.org/1999/xlink" width="32" height="30" viewBox="0 0 32 30">
  <defs>
    <linearGradient id="linear-gradient" x1="0.541" y1="0.04" x2="0.378" y2="1.126" gradientUnits="objectBoundingBox">
      <stop offset="0" stop-color="#e4e8e9"/>
      <stop offset="0.267" stop-color="#e1e5e7"/>
      <stop offset="0.442" stop-color="#d8dee0"/>
      <stop offset="0.591" stop-color="#c9d1d6"/>
      <stop offset="0.725" stop-color="#b4bfc6"/>
      <stop offset="0.849" stop-color="#99a8b3"/>
      <stop offset="0.964" stop-color="#778c9b"/>
      <stop offset="1" stop-color="#6c8293"/>
    </linearGradient>
    <radialGradient id="radial-gradient" cx="0.37" cy="0.924" r="1.492" gradientTransform="translate(0.341) scale(0.317 1)" gradientUnits="objectBoundingBox">
      <stop offset="0" stop-color="#50c8e8"/>
      <stop offset="0.11" stop-color="#4ec1e1"/>
      <stop offset="0.267" stop-color="#48afce"/>
      <stop offset="0.452" stop-color="#4092af"/>
      <stop offset="0.659" stop-color="#346984"/>
      <stop offset="0.882" stop-color="#24354d"/>
      <stop offset="1" stop-color="#1c172e"/>
    </radialGradient>
    <radialGradient id="radial-gradient-2" cx="0.532" cy="0.414" r="0.824" gradientTransform="translate(0.043) scale(0.915 1)" gradientUnits="objectBoundingBox">
      <stop offset="0" stop-color="#ffd5b2"/>
      <stop offset="0.224" stop-color="#ffd5b2"/>
      <stop offset="0.371" stop-color="#ffd5b2"/>
      <stop offset="0.495" stop-color="#ffcfa7"/>
      <stop offset="0.607" stop-color="#ffcfa7"/>
      <stop offset="0.711" stop-color="#ffcfa7"/>
      <stop offset="0.809" stop-color="#ffcfa7"/>
      <stop offset="0.902" stop-color="#ffcfa7"/>
      <stop offset="0.989" stop-color="#ffcfa7"/>
      <stop offset="1" stop-color="#1cbeca"/>
    </radialGradient>
    <radialGradient id="radial-gradient-3" cx="0.426" cy="0.954" r="0.802" gradientTransform="translate(0.122) scale(0.755 1)" gradientUnits="objectBoundingBox">
      <stop offset="0" stop-color="#1cbeca"/>
      <stop offset="0.108" stop-color="#1ab1bd"/>
      <stop offset="0.308" stop-color="#15919a"/>
      <stop offset="0.578" stop-color="#0d5d63"/>
      <stop offset="0.905" stop-color="#031617"/>
      <stop offset="1"/>
    </radialGradient>
    <radialGradient id="radial-gradient-4" cx="-0.04" cy="-0.437" r="1.62" gradientTransform="translate(0.057) scale(0.886 1)" gradientUnits="objectBoundingBox">
      <stop offset="0" stop-color="#1cbeca"/>
      <stop offset="0.118" stop-color="#1cb7c3"/>
      <stop offset="0.287" stop-color="#1ca4b2"/>
      <stop offset="0.486" stop-color="#1c8595"/>
      <stop offset="0.708" stop-color="#1c5a6d"/>
      <stop offset="0.947" stop-color="#1c243a"/>
      <stop offset="1" stop-color="#1c172e"/>
    </radialGradient>
    <radialGradient id="radial-gradient-5" cx="-0.04" cy="-0.437" r="1.723" gradientTransform="translate(0.116) scale(0.769 1)" xlink:href="#radial-gradient-4"/>
    <linearGradient id="linear-gradient-2" x1="0.5" x2="0.5" y2="1" gradientUnits="objectBoundingBox">
      <stop offset="0" stop-color="#ffd5b2"/>
      <stop offset="0.315" stop-color="#d5595b"/>
      <stop offset="1" stop-color="#b52067"/>
    </linearGradient>
    <linearGradient id="linear-gradient-3" x1="0.001" y1="0.521" x2="1" y2="0.521" gradientUnits="objectBoundingBox">
      <stop offset="0" stop-color="#f68a2f"/>
      <stop offset="0.357" stop-color="#f68a2f"/>
      <stop offset="0.592" stop-color="#f68a2f"/>
      <stop offset="0.79" stop-color="#f68a2f"/>
      <stop offset="0.968" stop-color="#f68a2f"/>
      <stop offset="1" stop-color="#f68a2f"/>
    </linearGradient>
  </defs>
  <g id="Group_39" data-name="Group 39" transform="translate(-393.974 -303.516)">
    <g id="Group_20" data-name="Group 20" transform="translate(393.974 303.516)">
      <path id="Path_40" data-name="Path 40" d="M395.227,326.085c.713,2.6,2.1,4.782,5.2,5.706a46.692,46.692,0,0,0,15.9,1.639,6.853,6.853,0,0,0,6.392-4.455,44.753,44.753,0,0,0,2.926-11.2c.4-3.842.674-5.556-.616-7.941-1.385-2.562-4.173-3.39-6.653-4.1-4.507-1.294-12.525-2.416-16.152-2.187-2.7.17-5.307.549-7.045,2.9-1.433,1.937-1.2,4.482-1.162,6.767.043,2.341.107,4.685.342,7.017A36.336,36.336,0,0,0,395.227,326.085Z" transform="translate(-393.974 -303.516)" fill="url(#linear-gradient)"/>
      <path id="Path_41" data-name="Path 41" d="M424.514,361.471q-.151.39-.314.789a6.854,6.854,0,0,1-6.392,4.455,46.673,46.673,0,0,1-15.9-1.64c-3.094-.924-4.482-3.108-5.2-5.706-.112-.405-.2-.823-.287-1.246l-.056.065c.095.524.205,1.041.343,1.541.713,2.6,2.1,4.782,5.2,5.706a46.691,46.691,0,0,0,15.9,1.639,6.853,6.853,0,0,0,6.392-4.455c.12-.293.233-.581.344-.868C424.533,361.658,424.521,361.566,424.514,361.471Z" transform="translate(-395.46 -337.16)" fill="url(#radial-gradient)" style="mix-blend-mode: screen;isolation: isolate"/>
      <path id="Path_42" data-name="Path 42" d="M417.471,334.788c-1.345,0-2.893-.059-3.83-.118-.954-.039-2-.133-3.261-.3a38.126,38.126,0,0,1-6-1.263c-1.975-.59-3.095-1.851-3.744-4.215a30.517,30.517,0,0,1-.745-4.9c-.261-3.9-.594-9.186-.492-10.277a4.938,4.938,0,0,1,.849-2.6c1.1-1.481,2.765-1.856,5.46-2.026.766-.049,1.546-.073,2.322-.073a46.5,46.5,0,0,1,13.165,2.071A16.968,16.968,0,0,1,424.5,312.4c3.249,1.663,2.865,4.584,2.554,6.931-.043.327-.085.652-.119.974l-.007.047c-.052.3-1.292,7.412-2.836,11.185a4.849,4.849,0,0,1-4.542,3.171A20.152,20.152,0,0,1,417.471,334.788Z" transform="translate(-397.325 -306.902)" fill="url(#radial-gradient-2)"/>
      <path id="Path_46" data-name="Path 46" d="M428.3,326.567c-.044.332-.087.666-.122.994a69.311,69.311,0,0,1-2.708,10.717,3.124,3.124,0,0,1-2.87,1.954c-.793.069-1.576.086-2.352.093a46.289,46.289,0,0,1-6.439-.418,36.21,36.21,0,0,1-5.7-1.2c-1.125-.337-1.878-.912-2.414-2.848-.62-2.243-1.024-9.178-1.094-11.17-.024-.684-.088-1.534-.1-2.345-.01.913.072,1.919.1,2.7.07,1.992.474,8.927,1.094,11.17.536,1.938,1.289,2.512,2.414,2.848a36.079,36.079,0,0,0,5.7,1.2,46.1,46.1,0,0,0,6.439.418c.776-.007,1.559-.023,2.352-.093a3.125,3.125,0,0,0,2.87-1.955,69.267,69.267,0,0,0,2.708-10.717c.035-.327.079-.66.122-.993a15.946,15.946,0,0,0,.226-2.445C428.506,325.146,428.393,325.857,428.3,326.567Z" transform="translate(-400.506 -315.117)" fill="url(#radial-gradient-3)" style="mix-blend-mode: screen;isolation: isolate"/>
      <path id="Path_48" data-name="Path 48" d="M418.184,313.284a33.061,33.061,0,0,0-9.077-.582c-1.6.119-3.484.285-4.262,1.675-.538.961-.292,3.2-.242,4.674.034.986.151,3.186.335,5.426.056.128.11.255.168.385C405.019,315.223,408.637,312.954,418.184,313.284Z" transform="translate(-400.505 -309.118)" fill="url(#radial-gradient-4)" style="mix-blend-mode: screen;isolation: isolate"/>
      <path id="Path_49" data-name="Path 49" d="M433.714,344.538a69.267,69.267,0,0,0,2.708-10.717c.035-.327.079-.66.122-.993.04-.3.084-.605.121-.9-2.679,12.8-8.044,15.161-18.868,13.44a36.833,36.833,0,0,0,4.256.8,46.118,46.118,0,0,0,6.439.418c.776-.007,1.559-.023,2.352-.093A3.124,3.124,0,0,0,433.714,344.538Z" transform="translate(-408.752 -321.019)" fill="url(#radial-gradient-5)" style="mix-blend-mode: screen;isolation: isolate"/>
      <path id="Path_50" data-name="Path 50" d="M425.47,326.045a11.372,11.372,0,0,1-4.864,1.739,15.1,15.1,0,0,1-12.4-5.212c-3.251-3.766-2.75-8.758,2.58-9.208a28.8,28.8,0,0,1,11.978,1.475c2.611.948,6.426,1.921,6.408,5.174A7.345,7.345,0,0,1,425.47,326.045Z" transform="translate(-401.542 -309.519)" fill="url(#linear-gradient-2)" style="mix-blend-mode: screen;isolation: isolate"/>
      <path id="Path_51" data-name="Path 51" d="M409.054,315.79c-.757-.736-2.8.689-2.672,1.536.147.983,2.46-.268,2.7-.783C409.249,316.188,409.211,315.942,409.054,315.79Z" transform="translate(-401.667 -310.952)" fill="#fff" opacity="0.77" style="mix-blend-mode: screen;isolation: isolate"/>
      <path id="Path_52" data-name="Path 52" d="M453.568,363.884c-.547-.532-2.021.5-1.929,1.108.106.71,1.776-.194,1.95-.565C453.708,364.17,453.681,363.992,453.568,363.884Z" transform="translate(-429.739 -340.618)" fill="#1cbeca" opacity="0.77" style="mix-blend-mode: screen;isolation: isolate"/>
      <path id="Path_53" data-name="Path 53" d="M416.6,314.122c-.423-.321-1.448.308-1,.772C416.006,315.308,417.324,314.668,416.6,314.122Z" transform="translate(-407.323 -309.997)" fill="#fff" opacity="0.77" style="mix-blend-mode: screen;isolation: isolate"/>
      <path id="Path_54" data-name="Path 54" d="M457.756,360.031c-.474-.237-1.367.57-.843.943C457.38,361.307,458.562,360.435,457.756,360.031Z" transform="translate(-432.914 -338.309)" fill="#1cbeca" opacity="0.77" style="mix-blend-mode: screen;isolation: isolate"/>
      <g id="Group_19" data-name="Group 19" transform="translate(2.96 24.43)">
        <path id="Path_56" data-name="Path 56" d="M405.948,370.887c.258-.727-1.285-1.675-1.8-1.339-.6.391.907,1.572,1.316,1.582C405.744,371.136,405.895,371.038,405.948,370.887Z" transform="translate(-403.157 -368.587)" fill="#afdfe4" opacity="0.77" style="mix-blend-mode: screen;isolation: isolate"/>
        <path id="Path_57" data-name="Path 57" d="M402.538,367.917c.193-.374-.54-1.152-.752-.526-.125.369.537.944.752.526Z" transform="translate(-401.77 -367.155)" fill="#afdfe4" opacity="0.77" style="mix-blend-mode: screen;isolation: isolate"/>
      </g>
    </g>
    <g id="Group_24" data-name="Group 24" transform="translate(402.105 309.562)">
      <g id="Group_21" data-name="Group 21">
        <path id="Path_58" data-name="Path 58" d="M427.465,337.481a2.938,2.938,0,0,1-1.707-.5,1.761,1.761,0,0,1-.326-1.734,2.878,2.878,0,0,1,.05-1.73c.027-.122.054-.24.076-.351l.935-4.942-2.283-2.652c-2.047,1.1-2.935,1.577-3.335,1.786l-1.4,7.41-.038.07a1.581,1.581,0,0,1-1.45.764,2.206,2.206,0,0,1-2.212-1.469l-.014-.087.148-.781a1.284,1.284,0,0,1-.107-.212,1.036,1.036,0,0,1-.068-.23l-.016-.09.861-4.548c-.109-.218-.243-.479-.378-.741a9.3,9.3,0,0,1-.693-1.448,1.354,1.354,0,0,1,.048-.752l-.013-.025a1.4,1.4,0,0,1-.12-.3c-.255-1.156.92-1.712,1.362-1.921.029-.014.156-.083.355-.191,5.695-3.076,6.971-3.486,7.435-3.526.086-.008.166-.011.239-.011a1.737,1.737,0,0,1,1.432.8l.034.038c.021.023.071.071.133.132l.077.076a.968.968,0,0,1,.974-.541,3.675,3.675,0,0,1,.582.057c.061.01.14.021.23.034,1.067.152,2.05.336,2.368.922a.912.912,0,0,1,.1.3l0,.029,0,.061a1.452,1.452,0,0,1,0,.188c0,.014,0,.039-.006.064-.006.06-.012.116-.022.173a.837.837,0,0,1,.046.079,2.007,2.007,0,0,1-.057,1.392c-.027.1-.053.2-.067.27s-.057.231-.113.44c-.064.237-.146.54-.217.834.085.076.176.156.271.239.3.259.63.552.926.863.062.064.118.127.173.189.072.083.12.142.167.2l.032.04c.044.058.084.116.123.174l.034.048c.039.06.071.118.1.175.017.028.028.048.038.069a1.915,1.915,0,0,1,.075.176c.012.026.021.049.029.07a1.7,1.7,0,0,1,.05.2.627.627,0,0,1,.019.089,1.378,1.378,0,0,1,.011.288,1.234,1.234,0,0,1-.061.3,1.56,1.56,0,0,1,.149.768,1.287,1.287,0,0,1-.076.348c-.082.218-.292.441-1.71,1.7-.2.175-.409.365-.551.495l-.28.886-.888,4.694-.008.026C428.78,337.182,428.243,337.481,427.465,337.481Z" transform="translate(-415.387 -319.265)" fill="#004a61"/>
        <path id="Path_59" data-name="Path 59" d="M430.958,352a1.714,1.714,0,0,1-.328-.032l-2.064-.4a1.674,1.674,0,0,1-1.023-.631,1.465,1.465,0,0,1-.281-1.164l.079-.417a1.434,1.434,0,0,1-.134-.455l-.006-.041a1.361,1.361,0,0,1,.015-.379l.458-2.419a1.517,1.517,0,0,1,1.526-1.183,1.786,1.786,0,0,1,.334.032l2.064.4a1.562,1.562,0,0,1,1.308,1.765l-.061.325a1.44,1.44,0,0,1,.121.894l-.47,2.491A1.538,1.538,0,0,1,430.958,352Z" transform="translate(-422.711 -335.046)" fill="#004a61"/>
      </g>
      <g id="Group_23" data-name="Group 23" transform="translate(0.496 0.499)">
        <path id="Path_60" data-name="Path 60" d="M432.912,330.686a.789.789,0,0,1-.047.213c-.1.255-2.369,2.17-2.334,2.211l-.025-.122-1.088,5.745c-.219.717-1.9.5-2.392.08-.456-.387-.118-1.362.017-2.063l1.169-6.179-2.935-3.411-3.891,2.09-1.432,7.56c-.551,1-2.6.368-2.743-.542l1.07-5.646-.063.107c.06-.031-1.229-2.4-1.277-2.622-.15-.715.529-1.128,1.1-1.407.2-.1,6.519-3.716,7.652-3.824.673-.064.849.162,1.293.678.106.123.824.8.8.938.191-1.007.228-1.235,1.261-1.068.478.078,1.984.22,2.242.712.158.3-.107,1-.172,1.334-.055.278-.636,2.159-.455,2.371C431.213,328.483,432.989,329.683,432.912,330.686Zm-6.8,3.951a1.077,1.077,0,0,0-.91-1.21l-2.064-.4a1.067,1.067,0,0,0-1.289.784l-.472,2.491a1.077,1.077,0,0,0,.912,1.21l2.064.4a1.066,1.066,0,0,0,1.289-.784Z" transform="translate(-416.834 -321.981)" fill="url(#linear-gradient-3)"/>
        <path id="Path_61" data-name="Path 61" d="M432.681,328.2a.745.745,0,0,1-.046.207c-.094.247-2.355,2.094-2.319,2.134l-.025-.119L429.236,336c-.215.694-1.893.473-2.389.065-.459-.379-.126-1.324.005-2l1.134-6-2.951-3.33-3.875,2.008-1.389,7.335c-.545.967-2.592.342-2.743-.541l1.037-5.479-.062.1c.06-.03-1.241-2.335-1.29-2.554-.153-.694.522-1.092,1.089-1.36.2-.1,6.492-3.573,7.623-3.672.672-.059.849.162,1.3.666.107.12.828.779.8.915.185-.976.221-1.2,1.253-1.03.478.079,1.984.225,2.244.7.159.291-.1.968-.166,1.3-.052.27-.623,2.095-.441,2.3C430.972,326.053,432.753,327.228,432.681,328.2Zm-6.773,3.8a1.065,1.065,0,0,0-.916-1.181l-2.064-.4a1.055,1.055,0,0,0-1.283.755l-.458,2.417a1.065,1.065,0,0,0,.917,1.18l2.064.4a1.054,1.054,0,0,0,1.283-.754Z" transform="translate(-416.692 -320.565)" fill="#ffd5b2"/>
        <g id="Group_22" data-name="Group 22">
          <path id="Path_62" data-name="Path 62" d="M444.2,341.878l-.12-.135-1.015,5.363a4.336,4.336,0,0,0-.194,1.69c.053-.314.14-.64.194-.923Z" transform="translate(-432.905 -333.613)" fill="#f7fff3"/>
          <path id="Path_63" data-name="Path 63" d="M452.813,333.335a1.323,1.323,0,0,0-.041.725c.468.528,1.793,1.44,2.167,2.295a.373.373,0,0,0,.055-.078.744.744,0,0,0,.046-.207C455.109,335.117,453.409,333.973,452.813,333.335Z" transform="translate(-439.049 -328.433)" fill="#f7fff3"/>
          <path id="Path_64" data-name="Path 64" d="M418.553,342.063c.01,0-.019-.074-.069-.178l-.906,4.785a.731.731,0,0,0,.1.247l.939-4.958Z" transform="translate(-417.241 -333.7)" fill="#f7fff3"/>
          <path id="Path_65" data-name="Path 65" d="M432.31,346.6l-2.064-.4a1.055,1.055,0,0,0-1.283.755l-.458,2.417a.887.887,0,0,0,.053.49l.405-2.14a1.055,1.055,0,0,1,1.283-.755l2.064.4a1.151,1.151,0,0,1,.864.69l.052-.277A1.065,1.065,0,0,0,432.31,346.6Z" transform="translate(-424.011 -336.346)" fill="#f7fff3"/>
          <path id="Path_66" data-name="Path 66" d="M416.8,325.8a2.166,2.166,0,0,1,1.008-.784c.2-.1,6.492-3.573,7.623-3.672.672-.059.849.162,1.3.666.107.12.828.779.8.915.185-.976.221-1.2,1.253-1.03.467.077,1.911.219,2.22.671a1.184,1.184,0,0,0,.024-.736c-.26-.479-1.766-.625-2.244-.7-1.032-.168-1.069.054-1.253,1.03.026-.136-.695-.8-.8-.915-.447-.5-.623-.725-1.3-.666-1.131.1-7.42,3.574-7.623,3.672-.568.268-1.243.666-1.089,1.36A1.39,1.39,0,0,0,416.8,325.8Z" transform="translate(-416.692 -320.565)" fill="#f7fff3"/>
        </g>
      </g>
    </g>
  </g>
</svg>
