<svg xmlns="http://www.w3.org/2000/svg" xmlns:xlink="http://www.w3.org/1999/xlink" width="48" height="45" viewBox="0 0 48 45">
  <defs>
    <radialGradient id="radial-gradient" cx="0.37" cy="0.924" r="1.492" gradientTransform="translate(0.341) scale(0.317 1)" gradientUnits="objectBoundingBox">
      <stop offset="0" stop-color="#50c8e8"/>
      <stop offset="0.11" stop-color="#4ec1e1"/>
      <stop offset="0.267" stop-color="#48afce"/>
      <stop offset="0.452" stop-color="#4092af"/>
      <stop offset="0.659" stop-color="#346984"/>
      <stop offset="0.882" stop-color="#24354d"/>
      <stop offset="1" stop-color="#1c172e"/>
    </radialGradient>
    <radialGradient id="radial-gradient-2" cx="0.426" cy="0.954" r="0.802" gradientTransform="translate(0.122) scale(0.755 1)" gradientUnits="objectBoundingBox">
      <stop offset="0" stop-color="#1cbeca"/>
      <stop offset="0.108" stop-color="#1ab1bd"/>
      <stop offset="0.308" stop-color="#15919a"/>
      <stop offset="0.578" stop-color="#0d5d63"/>
      <stop offset="0.905" stop-color="#031617"/>
      <stop offset="1"/>
    </radialGradient>
    <radialGradient id="radial-gradient-3" cx="-0.04" cy="-0.437" r="1.62" gradientTransform="translate(0.057) scale(0.886 1)" gradientUnits="objectBoundingBox">
      <stop offset="0" stop-color="#1cbeca"/>
      <stop offset="0.118" stop-color="#1cb7c3"/>
      <stop offset="0.287" stop-color="#1ca4b2"/>
      <stop offset="0.486" stop-color="#1c8595"/>
      <stop offset="0.708" stop-color="#1c5a6d"/>
      <stop offset="0.947" stop-color="#1c243a"/>
      <stop offset="1" stop-color="#1c172e"/>
    </radialGradient>
    <radialGradient id="radial-gradient-4" cx="-0.04" cy="-0.437" r="1.723" gradientTransform="translate(0.116) scale(0.769 1)" xlink:href="#radial-gradient-3"/>
  </defs>
  <g id="Group_50" data-name="Group 50" transform="translate(-210.974 -303.516)">
    <g id="Group_33" data-name="Group 33" transform="translate(210.974 303.516)">
      <path id="Path_104" data-name="Path 104" d="M212.853,337.37c1.07,3.895,3.152,7.173,7.793,8.559a70.038,70.038,0,0,0,23.852,2.459,10.28,10.28,0,0,0,9.588-6.682,67.128,67.128,0,0,0,4.389-16.8c.6-5.763,1.011-8.334-.923-11.911-2.077-3.843-6.259-5.085-9.98-6.153-6.76-1.941-18.788-3.624-24.228-3.281-4.055.255-7.96.824-10.568,4.348-2.149,2.906-1.807,6.722-1.743,10.151.065,3.512.161,7.028.513,10.525A54.5,54.5,0,0,0,212.853,337.37Z" transform="translate(-210.974 -303.516)" fill="#f4892f"/>
      <path id="Path_105" data-name="Path 105" d="M255.587,363.145q-.226.586-.47,1.183a10.281,10.281,0,0,1-9.588,6.682,70.009,70.009,0,0,1-23.852-2.46c-4.642-1.386-6.723-4.663-7.793-8.559-.167-.608-.306-1.235-.43-1.869l-.084.1c.142.786.308,1.562.514,2.311,1.07,3.895,3.152,7.173,7.793,8.559a70.038,70.038,0,0,0,23.852,2.459,10.28,10.28,0,0,0,9.588-6.682c.179-.439.349-.872.516-1.3C255.615,363.426,255.6,363.288,255.587,363.145Z" transform="translate(-212.005 -326.678)" fill="url(#radial-gradient)" style="mix-blend-mode: screen;isolation: isolate"/>
      <path id="Path_106" data-name="Path 106" d="M243.518,347.676c-2.017,0-4.339-.089-5.745-.177-1.431-.059-2.994-.2-4.892-.447a57.2,57.2,0,0,1-9-1.895c-2.962-.886-4.642-2.776-5.616-6.322a45.772,45.772,0,0,1-1.118-7.356c-.392-5.853-.891-13.78-.738-15.416a7.407,7.407,0,0,1,1.273-3.9c1.643-2.221,4.148-2.784,8.19-3.039,1.148-.073,2.319-.109,3.482-.109a69.745,69.745,0,0,1,19.748,3.106,25.456,25.456,0,0,1,4.967,1.978c4.873,2.5,4.3,6.875,3.831,10.4-.064.491-.128.978-.179,1.461l-.01.07c-.077.451-1.938,11.118-4.254,16.778a7.274,7.274,0,0,1-6.812,4.756A30.207,30.207,0,0,1,243.518,347.676Z" transform="translate(-213.299 -305.847)" fill="#f9aa30"/>
      <path id="Path_110" data-name="Path 110" d="M257.2,328.678c-.065.5-.131,1-.183,1.49-.257,1.433-2.027,11.1-4.062,16.076a4.686,4.686,0,0,1-4.3,2.932c-1.189.1-2.364.128-3.527.139a69.431,69.431,0,0,1-9.658-.627,54.313,54.313,0,0,1-8.545-1.8c-1.688-.505-2.818-1.368-3.621-4.273-.93-3.365-1.537-13.766-1.641-16.755-.036-1.026-.133-2.3-.148-3.517-.015,1.37.108,2.878.148,4.056.1,2.989.711,13.391,1.641,16.755.8,2.906,1.933,3.768,3.621,4.273a54.121,54.121,0,0,0,8.545,1.8,69.163,69.163,0,0,0,9.658.628c1.164-.011,2.338-.035,3.527-.139a4.687,4.687,0,0,0,4.3-2.932c2.035-4.973,3.8-14.642,4.062-16.076.052-.491.118-.99.183-1.49a23.924,23.924,0,0,0,.339-3.667C257.507,326.547,257.337,327.612,257.2,328.678Z" transform="translate(-215.507 -311.503)" fill="url(#radial-gradient-2)" style="mix-blend-mode: screen;isolation: isolate"/>
      <path id="Path_112" data-name="Path 112" d="M242.024,313.621a49.591,49.591,0,0,0-13.615-.873c-2.4.179-5.226.427-6.393,2.512-.807,1.441-.437,4.805-.362,7.011.051,1.479.226,4.779.5,8.139.084.192.165.382.252.578C222.277,316.531,227.7,313.127,242.024,313.621Z" transform="translate(-215.506 -307.373)" fill="url(#radial-gradient-3)" style="mix-blend-mode: screen;isolation: isolate"/>
      <path id="Path_113" data-name="Path 113" d="M258.673,350.845c2.035-4.973,3.8-14.642,4.062-16.076.052-.491.118-.99.183-1.49.06-.454.125-.908.182-1.355-4.019,19.2-12.066,22.741-28.3,20.16a55.247,55.247,0,0,0,6.384,1.205,69.181,69.181,0,0,0,9.658.628c1.164-.011,2.338-.035,3.527-.139A4.687,4.687,0,0,0,258.673,350.845Z" transform="translate(-221.228 -315.566)" fill="url(#radial-gradient-4)" style="mix-blend-mode: screen;isolation: isolate"/>
      <path id="Path_115" data-name="Path 115" d="M227.393,315.892c-1.136-1.1-4.2,1.034-4.009,2.3.22,1.475,3.69-.4,4.052-1.175C227.685,316.49,227.628,316.12,227.393,315.892Z" transform="translate(-216.312 -308.636)" fill="#fff" opacity="0.77" style="mix-blend-mode: screen;isolation: isolate"/>
      <path id="Path_116" data-name="Path 116" d="M271.534,363.958c-.82-.8-3.031.746-2.894,1.662.159,1.065,2.663-.291,2.925-.848C271.745,364.387,271.7,364.121,271.534,363.958Z" transform="translate(-235.792 -329.059)" fill="#1cbeca" opacity="0.77" style="mix-blend-mode: screen;isolation: isolate"/>
      <path id="Path_117" data-name="Path 117" d="M234.16,314.166c-.635-.481-2.172.462-1.5,1.158C233.261,315.944,235.238,314.985,234.16,314.166Z" transform="translate(-220.237 -307.978)" fill="#fff" opacity="0.77" style="mix-blend-mode: screen;isolation: isolate"/>
      <path id="Path_118" data-name="Path 118" d="M275.257,360.053c-.711-.356-2.051.855-1.265,1.415C274.693,361.966,276.466,360.658,275.257,360.053Z" transform="translate(-237.995 -327.47)" fill="#1cbeca" opacity="0.77" style="mix-blend-mode: screen;isolation: isolate"/>
      <g id="Group_32" data-name="Group 32" transform="translate(4.44 36.646)">
        <path id="Path_120" data-name="Path 120" d="M223.92,371.592c.387-1.091-1.927-2.512-2.7-2.008-.9.586,1.36,2.359,1.974,2.372C223.613,371.964,223.839,371.817,223.92,371.592Z" transform="translate(-219.732 -368.141)" fill="#afdfe4" opacity="0.77" style="mix-blend-mode: screen;isolation: isolate"/>
        <path id="Path_121" data-name="Path 121" d="M219.922,368.3c.29-.56-.811-1.728-1.128-.789-.187.553.8,1.415,1.128.789Z" transform="translate(-218.77 -367.155)" fill="#afdfe4" opacity="0.77" style="mix-blend-mode: screen;isolation: isolate"/>
      </g>
    </g>
    <g id="Group_36" data-name="Group 36" transform="translate(221.747 312.201)">
      <path id="Path_122" data-name="Path 122" d="M247.642,346.594c-1.728,0-2.886-1.425-3.816-2.57-.132-.163-.261-.322-.388-.472-.186-.21-2.027-2.1-2.88-2.833-1.062.347-3.486,1.394-3.734,1.516-.169.087-.348.184-.531.284a7.205,7.205,0,0,1-3.3,1.145,3.124,3.124,0,0,1-2.012-.723,2.582,2.582,0,0,1-.826-3.209,2.232,2.232,0,0,1-.251-.771l-.01-.076a2.275,2.275,0,0,1,.011-.522l.011-.078a2.813,2.813,0,0,1,.131-.5l.021-.055a4.27,4.27,0,0,1,.511-.924l.034-.047c.1-.138.207-.273.321-.408l.053-.062q.168-.193.353-.388c.293-.3.566-.563.845-.816.169-.153.74-.657.74-.657l.486-.429c.146-.131.246-.223.342-.314l.056-.053c.084-.081.168-.163.246-.245l.579.47-.537-.515c.069-.074.134-.146.19-.215a1.669,1.669,0,0,0,.132-.187,2.706,2.706,0,0,0,.156-.32c.01-.027.021-.051.029-.075a7.8,7.8,0,0,0-1.675-1.742c-1.177-1.012-2.505-2.154-2.451-3.874a3.094,3.094,0,0,1-.116-.329,2.938,2.938,0,0,1-.083-.39,2.727,2.727,0,0,1-.026-.394,2.84,2.84,0,0,1,.029-.4l.009-.075a3.187,3.187,0,0,1,.1-.428,2.259,2.259,0,0,1,2.3-1.7,10.04,10.04,0,0,1,3.5,1,8.045,8.045,0,0,0,2.192.708c1.119-.078,1.67-1.168,2.389-2.824.712-1.64,1.52-3.5,3.5-3.5h.062a2.388,2.388,0,0,1,2.121,1.186c.911.992.919,2.746.927,4.445a18.523,18.523,0,0,0,.092,2.175.918.918,0,0,0,.4.415,4.806,4.806,0,0,0,1.619.187h.006c.22,0,.445,0,.674-.006s.485-.006.728-.006c1.278,0,2.71.073,3.534.94a2.22,2.22,0,0,1,.595,1.516,2.8,2.8,0,0,1,.225,1.5c-.216,2.317-2.274,2.992-3.926,3.534-1.554.509-2.55.9-2.851,1.849.163.4.4.883.653,1.389l.231.465c.084.173.151.313.218.454a6.368,6.368,0,0,1,.86,3.727v.012l-.062.234c.608,2.54-.636,3.491-1.811,3.841A3.275,3.275,0,0,1,247.642,346.594Z" transform="translate(-229.887 -318.599)" fill="#f4892f"/>
      <g id="Group_35" data-name="Group 35" transform="translate(0.737 0.748)">
        <path id="Path_123" data-name="Path 123" d="M255.1,331.759c.321-3.416-5.064-1.47-6.728-2.347-2.485-1.312.457-8.709-3.107-8.733-3.076-.021-2.748,6.612-5.955,6.907-1.832.168-6.429-3.673-7.4-.454-1.128,3.752,6.1,4.576,3.848,8.761-.927,1.722-6.6,5.026-3.739,7.346,1.627,1.319,3.534-.01,5.045-.792a42.663,42.663,0,0,1,4.226-1.671,43.258,43.258,0,0,1,3.282,3.17c1.1,1.3,2.365,3.266,4.366,2.671,3.521-1.046-.486-6.283-.7-8.234C247.74,333.65,254.734,335.666,255.1,331.759Z" transform="translate(-231.2 -320.229)" fill="#f3882e"/>
        <path id="Path_124" data-name="Path 124" d="M254.849,330.316c.272-3.163-5.07-1.436-6.742-2.274-2.5-1.252.332-8.069-3.222-8.143-3.068-.063-2.646,6.092-5.84,6.319-1.824.13-6.463-3.5-7.383-.528-1.071,3.464,6.146,4.332,3.962,8.18-.9,1.584-6.512,4.566-3.624,6.759,1.64,1.246,3.523.041,5.019-.661a42.994,42.994,0,0,1,4.19-1.487,43.768,43.768,0,0,1,3.317,2.987c1.119,1.224,2.406,3.062,4.392,2.54,3.5-.919-.574-5.833-.81-7.645C247.536,331.964,254.54,333.934,254.849,330.316Z" transform="translate(-231.182 -319.898)" fill="#fff"/>
        <g id="Group_34" data-name="Group 34" transform="translate(0.001)">
          <path id="Path_125" data-name="Path 125" d="M231.944,326.841c.92-2.971,5.559.658,7.383.528,3.194-.227,2.772-6.382,5.84-6.319,3.554.074.726,6.891,3.222,8.143,1.515.759,6.039-.586,6.677,1.5a2.446,2.446,0,0,0,.065-.382c.272-3.163-5.07-1.436-6.742-2.274-2.5-1.252.331-8.069-3.222-8.143-3.068-.063-2.646,6.092-5.84,6.319-1.824.13-6.463-3.5-7.383-.528a2.153,2.153,0,0,0-.026,1.258C231.928,326.911,231.933,326.877,231.944,326.841Z" transform="translate(-231.464 -319.898)" fill="#f7fff3"/>
          <path id="Path_126" data-name="Path 126" d="M260.876,349.723c.148,1.136,1.8,3.492,2.156,5.318.472-1.786-1.847-4.9-2.135-6.355A3.169,3.169,0,0,0,260.876,349.723Z" transform="translate(-243.949 -332.108)" fill="#f7fff3"/>
          <path id="Path_127" data-name="Path 127" d="M235.625,344.719a2.474,2.474,0,0,0,.331-1.956,3.285,3.285,0,0,1-.331.8c-.788,1.387-5.188,3.846-4.332,5.908C231.913,347.71,234.98,345.856,235.625,344.719Z" transform="translate(-231.183 -329.597)" fill="#f7fff3"/>
        </g>
      </g>
    </g>
  </g>
</svg>
