<svg xmlns="http://www.w3.org/2000/svg" xmlns:xlink="http://www.w3.org/1999/xlink" width="32" height="30" viewBox="0 0 32 30">
  <defs>
    <linearGradient id="linear-gradient" x1="0.541" y1="0.04" x2="0.378" y2="1.126" gradientUnits="objectBoundingBox">
      <stop offset="0" stop-color="#e4e8e9"/>
      <stop offset="0.267" stop-color="#e1e5e7"/>
      <stop offset="0.442" stop-color="#d8dee0"/>
      <stop offset="0.591" stop-color="#c9d1d6"/>
      <stop offset="0.725" stop-color="#b4bfc6"/>
      <stop offset="0.849" stop-color="#99a8b3"/>
      <stop offset="0.964" stop-color="#778c9b"/>
      <stop offset="1" stop-color="#6c8293"/>
    </linearGradient>
    <radialGradient id="radial-gradient" cx="0.37" cy="0.924" r="1.492" gradientTransform="translate(0.341) scale(0.317 1)" gradientUnits="objectBoundingBox">
      <stop offset="0" stop-color="#f68a2f"/>
      <stop offset="0.11" stop-color="#f68a2f"/>
      <stop offset="0.267" stop-color="#f68a2f"/>
      <stop offset="0.452" stop-color="#f68a2f"/>
      <stop offset="0.659" stop-color="#f68a2f"/>
      <stop offset="0.882" stop-color="#24354d"/>
      <stop offset="1" stop-color="#1c172e"/>
    </radialGradient>
    <radialGradient id="radial-gradient-2" cx="0.532" cy="0.414" r="0.824" gradientTransform="translate(0.043) scale(0.915 1)" gradientUnits="objectBoundingBox">
      <stop offset="0" stop-color="#fff3ea"/>
      <stop offset="0.224" stop-color="#ffd5b2"/>
      <stop offset="0.371" stop-color="#ffd5b2"/>
      <stop offset="0.495" stop-color="#ffd5b2"/>
      <stop offset="0.607" stop-color="#ffcfa7"/>
      <stop offset="0.711" stop-color="#ffcfa7"/>
      <stop offset="0.809" stop-color="#ffcfa7"/>
      <stop offset="0.902" stop-color="#b32666"/>
      <stop offset="0.989" stop-color="#b32666"/>
      <stop offset="1" stop-color="#1cbeca"/>
    </radialGradient>
    <linearGradient id="linear-gradient-2" x1="0.5" x2="0.5" y2="1" gradientUnits="objectBoundingBox">
      <stop offset="0" stop-color="#f5904f"/>
      <stop offset="0.315" stop-color="#d5595b"/>
      <stop offset="1" stop-color="#b52067"/>
    </linearGradient>
    <radialGradient id="radial-gradient-3" cx="-0.04" cy="-0.437" r="1.62" gradientTransform="translate(0.057) scale(0.886 1)" gradientUnits="objectBoundingBox">
      <stop offset="0" stop-color="#1cbeca"/>
      <stop offset="0.118" stop-color="#1cb7c3"/>
      <stop offset="0.287" stop-color="#1ca4b2"/>
      <stop offset="0.486" stop-color="#1c8595"/>
      <stop offset="0.708" stop-color="#1c5a6d"/>
      <stop offset="0.947" stop-color="#1c243a"/>
      <stop offset="1" stop-color="#1c172e"/>
    </radialGradient>
    <radialGradient id="radial-gradient-4" cx="0.492" cy="0.488" r="0.902" gradientTransform="translate(0.186) scale(0.627 1)" gradientUnits="objectBoundingBox">
      <stop offset="0" stop-color="#1cbeca"/>
      <stop offset="0.108" stop-color="#1ab1bd"/>
      <stop offset="0.308" stop-color="#15919a"/>
      <stop offset="0.578" stop-color="#0d5d63"/>
      <stop offset="0.905" stop-color="#031617"/>
      <stop offset="1"/>
    </radialGradient>
  </defs>
  <g id="Group_40" data-name="Group 40" transform="translate(-210.974 -303.516)">
    <g id="Group_33" data-name="Group 33" transform="translate(210.974 303.516)">
      <path id="Path_104" data-name="Path 104" d="M212.227,326.085c.713,2.6,2.1,4.782,5.2,5.706a46.691,46.691,0,0,0,15.9,1.639,6.853,6.853,0,0,0,6.392-4.455,44.753,44.753,0,0,0,2.926-11.2c.4-3.842.674-5.556-.616-7.941-1.385-2.562-4.173-3.39-6.653-4.1-4.507-1.294-12.525-2.416-16.152-2.187-2.7.17-5.307.549-7.045,2.9-1.433,1.937-1.2,4.482-1.162,6.767.043,2.341.107,4.685.342,7.017A36.334,36.334,0,0,0,212.227,326.085Z" transform="translate(-210.974 -303.516)" fill="url(#linear-gradient)"/>
      <path id="Path_105" data-name="Path 105" d="M241.514,361.471q-.151.39-.314.789a6.854,6.854,0,0,1-6.392,4.455,46.673,46.673,0,0,1-15.9-1.64c-3.094-.924-4.482-3.108-5.2-5.706-.112-.405-.2-.823-.287-1.246l-.056.065c.095.524.205,1.041.343,1.541.713,2.6,2.1,4.782,5.2,5.706a46.691,46.691,0,0,0,15.9,1.639,6.853,6.853,0,0,0,6.392-4.455c.12-.293.233-.581.344-.868C241.533,361.658,241.521,361.566,241.514,361.471Z" transform="translate(-212.46 -337.16)" fill="url(#radial-gradient)" style="mix-blend-mode: screen;isolation: isolate"/>
      <path id="Path_106" data-name="Path 106" d="M234.471,334.788c-1.345,0-2.893-.059-3.83-.118-.954-.039-2-.133-3.261-.3a38.132,38.132,0,0,1-6-1.263c-1.975-.59-3.095-1.851-3.744-4.215a30.517,30.517,0,0,1-.745-4.9c-.261-3.9-.594-9.186-.492-10.277a4.938,4.938,0,0,1,.849-2.6c1.1-1.481,2.765-1.856,5.46-2.026.766-.049,1.546-.073,2.322-.073a46.5,46.5,0,0,1,13.165,2.071A16.969,16.969,0,0,1,241.5,312.4c3.249,1.663,2.865,4.584,2.554,6.931-.043.327-.085.652-.119.974l-.007.047c-.052.3-1.292,7.412-2.836,11.185a4.849,4.849,0,0,1-4.542,3.171A20.142,20.142,0,0,1,234.471,334.788Z" transform="translate(-214.325 -306.902)" fill="url(#radial-gradient-2)"/>
      <path id="Path_110" data-name="Path 110" d="M245.3,326.567c-.044.332-.087.666-.122.994a69.314,69.314,0,0,1-2.708,10.717,3.124,3.124,0,0,1-2.87,1.954c-.793.069-1.576.086-2.352.093a46.289,46.289,0,0,1-6.439-.418,36.213,36.213,0,0,1-5.7-1.2c-1.126-.337-1.878-.912-2.414-2.848-.62-2.243-1.025-9.178-1.094-11.17-.024-.684-.088-1.534-.1-2.345-.01.913.072,1.919.1,2.7.069,1.992.474,8.927,1.094,11.17.536,1.938,1.289,2.512,2.414,2.848a36.083,36.083,0,0,0,5.7,1.2,46.1,46.1,0,0,0,6.439.418c.776-.007,1.559-.023,2.352-.093a3.125,3.125,0,0,0,2.87-1.955,69.269,69.269,0,0,0,2.708-10.717c.035-.327.079-.66.122-.993a15.95,15.95,0,0,0,.226-2.445C245.506,325.146,245.393,325.857,245.3,326.567Z" transform="translate(-217.506 -315.117)" fill="url(#linear-gradient-2)" style="mix-blend-mode: screen;isolation: isolate"/>
      <path id="Path_112" data-name="Path 112" d="M235.184,313.284a33.061,33.061,0,0,0-9.077-.582c-1.6.119-3.484.285-4.262,1.675-.538.961-.292,3.2-.241,4.674.034.986.151,3.186.335,5.426.056.128.11.255.168.385C222.019,315.223,225.637,312.954,235.184,313.284Z" transform="translate(-217.505 -309.118)" fill="url(#radial-gradient-3)" style="mix-blend-mode: screen;isolation: isolate"/>
      <path id="Path_113" data-name="Path 113" d="M250.714,344.538a69.271,69.271,0,0,0,2.708-10.717c.035-.327.079-.66.122-.993.04-.3.084-.605.122-.9-2.679,12.8-8.044,15.161-18.868,13.44a36.84,36.84,0,0,0,4.256.8,46.114,46.114,0,0,0,6.439.418c.776-.007,1.559-.023,2.352-.093A3.125,3.125,0,0,0,250.714,344.538Z" transform="translate(-225.752 -321.019)" fill="url(#linear-gradient-2)" style="mix-blend-mode: screen;isolation: isolate"/>
      <path id="Path_114" data-name="Path 114" d="M242.47,326.045a11.372,11.372,0,0,1-4.864,1.739,15.1,15.1,0,0,1-12.4-5.212c-3.251-3.766-2.75-8.758,2.58-9.208a28.8,28.8,0,0,1,11.978,1.475c2.611.948,6.426,1.921,6.408,5.174A7.345,7.345,0,0,1,242.47,326.045Z" transform="translate(-218.542 -309.519)" fill="url(#radial-gradient-4)" style="mix-blend-mode: screen;isolation: isolate"/>
      <path id="Path_115" data-name="Path 115" d="M226.054,315.79c-.757-.736-2.8.689-2.672,1.536.147.983,2.46-.268,2.7-.783C226.249,316.188,226.211,315.942,226.054,315.79Z" transform="translate(-218.667 -310.952)" fill="#fff" opacity="0.77" style="mix-blend-mode: screen;isolation: isolate"/>
      <path id="Path_116" data-name="Path 116" d="M270.568,363.884c-.547-.532-2.021.5-1.929,1.108.106.71,1.776-.194,1.95-.565C270.708,364.17,270.681,363.992,270.568,363.884Z" transform="translate(-246.739 -340.618)" fill="#1cbeca" opacity="0.77" style="mix-blend-mode: screen;isolation: isolate"/>
      <path id="Path_117" data-name="Path 117" d="M233.6,314.122c-.423-.321-1.448.308-1,.772C233.006,315.308,234.324,314.668,233.6,314.122Z" transform="translate(-224.323 -309.997)" fill="#fff" opacity="0.77" style="mix-blend-mode: screen;isolation: isolate"/>
      <path id="Path_118" data-name="Path 118" d="M274.756,360.031c-.474-.237-1.367.57-.843.943C274.38,361.307,275.562,360.435,274.756,360.031Z" transform="translate(-249.914 -338.309)" fill="#1cbeca" opacity="0.77" style="mix-blend-mode: screen;isolation: isolate"/>
      <g id="Group_32" data-name="Group 32" transform="translate(2.96 24.43)">
        <path id="Path_120" data-name="Path 120" d="M222.948,370.887c.258-.727-1.285-1.675-1.8-1.339-.6.391.907,1.572,1.316,1.582C222.744,371.136,222.895,371.038,222.948,370.887Z" transform="translate(-220.157 -368.587)" fill="#afdfe4" opacity="0.77" style="mix-blend-mode: screen;isolation: isolate"/>
        <path id="Path_121" data-name="Path 121" d="M219.538,367.917c.193-.374-.54-1.152-.752-.526-.125.369.537.944.752.526Z" transform="translate(-218.77 -367.155)" fill="#afdfe4" opacity="0.77" style="mix-blend-mode: screen;isolation: isolate"/>
      </g>
    </g>
    <g id="Group_36" data-name="Group 36" transform="translate(218.156 309.306)">
      <path id="Path_122" data-name="Path 122" d="M241.724,337.263c-1.152,0-1.924-.95-2.544-1.713-.088-.109-.174-.215-.259-.314-.124-.14-1.351-1.4-1.92-1.889-.708.231-2.324.929-2.489,1.011-.112.058-.232.123-.354.189a4.8,4.8,0,0,1-2.2.764,2.083,2.083,0,0,1-1.341-.482,1.722,1.722,0,0,1-.551-2.139,1.488,1.488,0,0,1-.167-.514l-.006-.051a1.515,1.515,0,0,1,.008-.348l.008-.052a1.875,1.875,0,0,1,.087-.331l.014-.036a2.845,2.845,0,0,1,.341-.616l.022-.031c.067-.092.138-.182.214-.272l.035-.041c.075-.086.153-.172.235-.258.2-.2.377-.375.564-.544.112-.1.493-.438.493-.438l.324-.286c.1-.088.164-.149.228-.209l.038-.035c.056-.054.112-.109.164-.163l.386.314-.358-.344c.046-.05.089-.1.126-.144a1.109,1.109,0,0,0,.088-.124,1.8,1.8,0,0,0,.1-.213c.007-.018.014-.034.019-.05a5.2,5.2,0,0,0-1.117-1.161c-.785-.675-1.67-1.436-1.634-2.583a2.06,2.06,0,0,1-.077-.22,1.957,1.957,0,0,1-.055-.26,1.819,1.819,0,0,1-.017-.263,1.892,1.892,0,0,1,.019-.268l.006-.05a2.121,2.121,0,0,1,.068-.286,1.506,1.506,0,0,1,1.534-1.131,6.693,6.693,0,0,1,2.331.664,5.363,5.363,0,0,0,1.462.472c.746-.052,1.113-.779,1.593-1.883s1.013-2.332,2.336-2.332h.041a1.592,1.592,0,0,1,1.414.79c.608.661.613,1.831.618,2.963a12.347,12.347,0,0,0,.062,1.45.612.612,0,0,0,.264.277,3.2,3.2,0,0,0,1.08.124h0c.147,0,.3,0,.45,0s.324,0,.485,0a3.227,3.227,0,0,1,2.356.627,1.48,1.48,0,0,1,.4,1.01,1.868,1.868,0,0,1,.15,1c-.144,1.545-1.516,1.995-2.617,2.356-1.036.339-1.7.6-1.9,1.233.109.267.268.589.436.926l.154.31c.056.115.1.209.145.3a4.246,4.246,0,0,1,.573,2.485v.008l-.041.156c.406,1.693-.424,2.328-1.207,2.561A2.184,2.184,0,0,1,241.724,337.263Z" transform="translate(-229.887 -318.599)" fill="#004a61"/>
      <g id="Group_35" data-name="Group 35" transform="translate(0.492 0.499)">
        <path id="Path_123" data-name="Path 123" d="M247.141,328.066c.214-2.278-3.376-.98-4.485-1.565-1.657-.875.3-5.806-2.071-5.822-2.051-.014-1.832,4.408-3.97,4.6-1.221.112-4.286-2.449-4.931-.3-.752,2.5,4.065,3.051,2.565,5.841-.618,1.148-4.4,3.351-2.492,4.9,1.084.879,2.356-.007,3.363-.528a28.452,28.452,0,0,1,2.818-1.114,28.837,28.837,0,0,1,2.188,2.113c.736.869,1.577,2.177,2.911,1.781,2.347-.7-.324-4.189-.464-5.489C242.234,329.326,246.9,330.67,247.141,328.066Z" transform="translate(-231.207 -320.379)" fill="#f68a2f"/>
        <path id="Path_124" data-name="Path 124" d="M246.96,326.843c.182-2.109-3.38-.957-4.494-1.516-1.664-.835.221-5.379-2.148-5.429-2.045-.042-1.764,4.061-3.893,4.212-1.216.086-4.309-2.333-4.922-.352-.714,2.309,4.1,2.888,2.641,5.453-.6,1.056-4.341,3.044-2.416,4.506,1.094.831,2.349.028,3.346-.441a28.655,28.655,0,0,1,2.794-.992,29.183,29.183,0,0,1,2.212,1.991c.746.816,1.6,2.042,2.928,1.693,2.331-.613-.383-3.889-.54-5.1C242.085,327.942,246.754,329.255,246.96,326.843Z" transform="translate(-231.182 -319.898)" fill="#ffcfa7"/>
        <g id="Group_34" data-name="Group 34" transform="translate(0)">
          <path id="Path_125" data-name="Path 125" d="M231.908,324.527c.613-1.981,3.706.438,4.922.352,2.129-.151,1.848-4.255,3.893-4.212,2.369.049.484,4.594,2.148,5.429,1.01.506,4.026-.391,4.451,1a1.63,1.63,0,0,0,.043-.255c.181-2.109-3.38-.957-4.494-1.516-1.664-.835.221-5.379-2.148-5.429-2.045-.042-1.764,4.061-3.893,4.212-1.216.086-4.309-2.333-4.922-.352a1.435,1.435,0,0,0-.017.839C231.9,324.573,231.9,324.551,231.908,324.527Z" transform="translate(-231.588 -319.898)" fill="#f7fff3"/>
          <path id="Path_126" data-name="Path 126" d="M260.865,349.377c.1.757,1.2,2.328,1.437,3.545.315-1.19-1.231-3.27-1.423-4.237A2.113,2.113,0,0,0,260.865,349.377Z" transform="translate(-249.581 -337.634)" fill="#f7fff3"/>
          <path id="Path_127" data-name="Path 127" d="M234.144,344.068a1.649,1.649,0,0,0,.221-1.3,2.189,2.189,0,0,1-.221.536c-.525.925-3.459,2.564-2.888,3.939C231.67,346.061,233.714,344.825,234.144,344.068Z" transform="translate(-231.183 -333.986)" fill="#f7fff3"/>
        </g>
      </g>
    </g>
  </g>
</svg>
