<svg xmlns="http://www.w3.org/2000/svg" xmlns:xlink="http://www.w3.org/1999/xlink" width="18" height="18" viewBox="0 0 18 18"><defs><clipPath id="a"><rect width="18" height="18" transform="translate(16 1338)" fill="#cfd8dc" stroke="#707070" stroke-width="1"/></clipPath></defs><g transform="translate(-16 -1338)" clip-path="url(#a)"><g transform="translate(16 1338)"><path d="M14.383,2.23a7.613,7.613,0,0,0-13,5.383c0,4.114,3.89,7.535,5.979,9.374.29.255.541.476.741.663a1.312,1.312,0,0,0,1.786,0c.2-.187.451-.407.741-.663,2.09-1.838,5.979-5.26,5.979-9.374A7.563,7.563,0,0,0,14.383,2.23ZM9.937,16.195c-.3.261-.553.486-.764.684a.254.254,0,0,1-.346,0c-.211-.2-.468-.423-.764-.684C6.1,14.467,2.441,11.25,2.441,7.613a6.559,6.559,0,0,1,13.117,0C15.559,11.25,11.9,14.467,9.937,16.195Z" fill="#cfd8dc"/><path d="M9,3.97a3.355,3.355,0,1,0,3.355,3.355A3.359,3.359,0,0,0,9,3.97ZM9,9.626a2.3,2.3,0,1,1,2.3-2.3A2.3,2.3,0,0,1,9,9.626Z" fill="#cfd8dc"/></g></g></svg>