<svg xmlns="http://www.w3.org/2000/svg" width="14" height="19" viewBox="0 0 14 19">
  <g id="Layer_2" data-name="Layer 2" transform="translate(-16.245 -2.5)">
    <path id="Path_146" data-name="Path 146" d="M24.833,7.025,23.71,4.766a.521.521,0,0,0-.929,0L21.656,7.025l-2.513.362a.517.517,0,0,0-.419.35.51.51,0,0,0,.133.527l1.817,1.754L20.244,12.5a.511.511,0,0,0,.206.5.523.523,0,0,0,.547.039l2.248-1.171,2.248,1.171a.518.518,0,0,0,.241.058.526.526,0,0,0,.3-.1.509.509,0,0,0,.207-.5l-.429-2.479,1.817-1.754a.51.51,0,0,0,.133-.527.517.517,0,0,0-.419-.35ZM24.9,9.471a.513.513,0,0,0-.147.454l.288,1.715-1.559-.822a.523.523,0,0,0-.481,0l-1.559.822.3-1.719a.513.513,0,0,0-.156-.45L20.342,8.253,22.086,8a.518.518,0,0,0,.39-.281l.769-1.563.78,1.563a.518.518,0,0,0,.39.281l1.744.251ZM23.245,2.5a6.993,6.993,0,0,0-6.539,4.455,6.884,6.884,0,0,0,1.873,7.639v6.392a.511.511,0,0,0,.268.45.531.531,0,0,0,.527-.014l3.872-2.387,3.872,2.387a.535.535,0,0,0,.276.078.519.519,0,0,0,.367-.15.509.509,0,0,0,.151-.364V14.594a6.884,6.884,0,0,0,1.873-7.639A6.993,6.993,0,0,0,23.245,2.5Zm3.629,17.562-3.353-2.079a.523.523,0,0,0-.552,0l-3.353,2.079v-4.7a7.046,7.046,0,0,0,7.258,0Zm-3.629-4.724a5.906,5.906,0,1,1,5.962-5.905A5.934,5.934,0,0,1,23.245,15.338Z" transform="translate(0 0)" fill="#ffc107"/>
  </g>
</svg>
