<svg xmlns="http://www.w3.org/2000/svg" xmlns:xlink="http://www.w3.org/1999/xlink" width="48" height="48" viewBox="0 0 48 48"><defs><clipPath id="a"><rect width="24" height="24" transform="translate(64 -67)" fill="#fff" stroke="#707070" stroke-width="1"/></clipPath></defs><rect width="48" height="48" fill="rgba(255,255,255,0)"/><g transform="translate(-52 79)" clip-path="url(#a)"><g transform="translate(62.286 -68.714)"><path d="M9.429,1.714H4.286A2.571,2.571,0,0,0,1.714,4.286V9.429A2.571,2.571,0,0,0,4.286,12H9.429A2.571,2.571,0,0,0,12,9.429V4.286A2.571,2.571,0,0,0,9.429,1.714Zm.857,7.714a.857.857,0,0,1-.857.857H4.286a.857.857,0,0,1-.857-.857V4.286a.857.857,0,0,1,.857-.857H9.429a.857.857,0,0,1,.857.857Z" fill="#fff"/><path d="M23.143,1.714H18a2.571,2.571,0,0,0-2.571,2.571V9.429A2.571,2.571,0,0,0,18,12h5.143a2.571,2.571,0,0,0,2.571-2.571V4.286A2.571,2.571,0,0,0,23.143,1.714ZM24,9.429a.857.857,0,0,1-.857.857H18a.857.857,0,0,1-.857-.857V4.286A.857.857,0,0,1,18,3.429h5.143A.857.857,0,0,1,24,4.286Z" fill="#fff"/><path d="M9.429,15.429H4.286A2.571,2.571,0,0,0,1.714,18v5.143a2.571,2.571,0,0,0,2.571,2.571H9.429A2.571,2.571,0,0,0,12,23.143V18A2.571,2.571,0,0,0,9.429,15.429Zm.857,7.714A.857.857,0,0,1,9.429,24H4.286a.857.857,0,0,1-.857-.857V18a.857.857,0,0,1,.857-.857H9.429a.857.857,0,0,1,.857.857Z" fill="#fff"/><path d="M23.143,15.429H18A2.571,2.571,0,0,0,15.429,18v5.143A2.571,2.571,0,0,0,18,25.714h5.143a2.571,2.571,0,0,0,2.571-2.571V18A2.571,2.571,0,0,0,23.143,15.429ZM24,23.143a.857.857,0,0,1-.857.857H18a.857.857,0,0,1-.857-.857V18A.857.857,0,0,1,18,17.143h5.143A.857.857,0,0,1,24,18Z" fill="#fff"/></g></g></svg>