<svg xmlns="http://www.w3.org/2000/svg" width="76" height="76" viewBox="0 0 76 76">
  <g id="no_button" transform="translate(-1532.901 -1726.771)">
    <g id="Group_109" data-name="Group 109" transform="translate(1532.901 1726.771)">
      <circle id="Ellipse_7" data-name="Ellipse 7" cx="34.241" cy="34.241" r="34.241" transform="translate(3.759 3.759)" fill="#ffcdd2"/>
      <path id="Path_155" data-name="Path 155" d="M1570.9,1730.53a34.241,34.241,0,1,1-34.241,34.241,34.241,34.241,0,0,1,34.241-34.241m0-3.759a38,38,0,1,0,38,38,38.043,38.043,0,0,0-38-38Z" transform="translate(-1532.901 -1726.771)" fill="#d32f2f"/>
      <circle id="Ellipse_8" data-name="Ellipse 8" cx="26.616" cy="26.616" r="26.616" transform="translate(11.384 11.384)" fill="#e57373"/>
      <path id="Path_156" data-name="Path 156" d="M1583.743,1807.718a31.609,31.609,0,0,1-25.844-13.4,26.616,26.616,0,1,0,51.689,0A31.61,31.61,0,0,1,1583.743,1807.718Z" transform="translate(-1545.743 -1762.576)" fill="#f44336"/>
    </g>
    <path id="Path_157" data-name="Path 157" d="M1604.2,1779.736l-5.929,5.929-5.929-5.929a4.577,4.577,0,0,0-6.473,6.473l5.929,5.929-5.929,5.928a4.577,4.577,0,1,0,6.473,6.473l5.929-5.929,5.929,5.929a4.577,4.577,0,1,0,6.472-6.473l-5.929-5.928,5.929-5.929a4.577,4.577,0,1,0-6.472-6.473Z" transform="translate(-27.366 -27.367)" fill="#fff"/>
  </g>
</svg>
