<svg xmlns="http://www.w3.org/2000/svg" xmlns:xlink="http://www.w3.org/1999/xlink" width="28" height="32" viewBox="0 0 28 32">
  <defs>
    <radialGradient id="radial-gradient" cx="0.5" cy="0.5" r="0.51" gradientTransform="translate(-0.174 -0.11) scale(0.979 0.979)" gradientUnits="objectBoundingBox">
      <stop offset="0" stop-color="#ff731e"/>
      <stop offset="1" stop-color="#e45d20"/>
    </radialGradient>
    <radialGradient id="radial-gradient-2" cx="0.5" cy="0.5" r="0.474" gradientTransform="translate(-0.059) scale(1.118 1)" xlink:href="#radial-gradient"/>
  </defs>
  <g id="Group_202" data-name="Group 202" transform="translate(-1680.974 -407.352)">
    <g id="Group_200" data-name="Group 200" transform="translate(1680.974 407.352)">
      <path id="Path_1118" data-name="Path 1118" d="M1701.379,444.59H1687.1a6.1,6.1,0,0,1-6.121-6.07V424.355a6.1,6.1,0,0,1,6.121-6.07h14.283a6.128,6.128,0,0,1,3.933,1.418,6.038,6.038,0,0,1,2.189,4.652V438.52A6.1,6.1,0,0,1,1701.379,444.59Z" transform="translate(-1680.974 -416.337)" fill="#cb3e34" style="mix-blend-mode: multiply;isolation: isolate"/>
      <path id="Path_1119" data-name="Path 1119" d="M1709.751,433.657h-14.284a6.1,6.1,0,0,1-6.121-6.07V413.422a6.1,6.1,0,0,1,6.121-6.07h14.284a6.127,6.127,0,0,1,3.932,1.418,6.037,6.037,0,0,1,2.189,4.652v14.164A6.1,6.1,0,0,1,1709.751,433.657Z" transform="translate(-1687.872 -407.352)" fill="url(#radial-gradient)"/>
      <path id="Path_1120" data-name="Path 1120" d="M1797.933,419.063a2.377,2.377,0,0,1,2.695-.848c2.21.631,4.114,4.135,2.227,6.045C1800.542,426.6,1796.635,421.237,1797.933,419.063Z" transform="translate(-1777.134 -416.19)" opacity="0.58" fill="url(#radial-gradient-2)" style="mix-blend-mode: screen;isolation: isolate"/>
    </g>
    <path id="Path_1121" data-name="Path 1121" d="M1740.126,453.966q.447-2.036.872-4.072.179-.86.369-1.821t.38-1.923q.19-.961.369-1.912t.313-1.787q-.536.045-1.05.136-.425.068-.883.147t-.771.124q.044-.316.134-.962t.2-1.323q.089-.769.223-1.674.514-.113,1.43-.294.782-.136,2.078-.339t3.218-.52q-.469,1.991-.86,3.869t-.737,3.756q-.347,1.878-.67,3.789t-.637,3.925q-.514.159-1.184.317t-1.318.271Q1740.886,453.83,1740.126,453.966Z" transform="translate(-48.409 -24.977)" fill="#ff731e"/>
    <path id="Path_1122" data-name="Path 1122" d="M1746.939,453.966q.447-2.036.871-4.072.179-.86.369-1.821t.38-1.923q.19-.961.369-1.912t.313-1.787q-.536.045-1.05.136-.425.068-.883.147t-.771.124q.044-.316.134-.962t.2-1.323q.089-.769.223-1.674.514-.113,1.43-.294.782-.136,2.078-.339t3.218-.52q-.469,1.991-.86,3.869t-.737,3.756q-.347,1.878-.671,3.789t-.637,3.925q-.514.159-1.184.317t-1.318.271Q1747.7,453.83,1746.939,453.966Z" transform="translate(-54.023 -24.977)" fill="#fff"/>
    <g id="Group_201" data-name="Group 201" transform="translate(1681.651 429.052)">
      <path id="Path_1123" data-name="Path 1123" d="M1738.073,535.67a17.267,17.267,0,0,1,.7,3.5.337.337,0,0,1-.073.211c-.36.322-3.3-1.755-3.3-1.755s-2.864,2-3.294,1.755.629-3.715.629-3.715-2.691-2.212-2.666-2.629,3.684-.543,3.684-.543a17.728,17.728,0,0,1,1.282-3.046c.132-.2.259-.325.365-.333.564-.039,1.647,3.379,1.647,3.379s3.483.16,3.684.543S1738.073,535.67,1738.073,535.67Z" transform="translate(-1722.11 -529.118)" fill="#feb333"/>
      <path id="Path_1124" data-name="Path 1124" d="M1738.775,540.712a.337.337,0,0,1-.073.211c-.36.322-3.3-1.755-3.3-1.755s-2.864,2-3.294,1.755.629-3.715.629-3.715-2.691-2.212-2.666-2.629,3.684-.543,3.684-.543a17.728,17.728,0,0,1,1.282-3.046C1733.773,537.133,1736.673,539.688,1738.775,540.712Z" transform="translate(-1722.11 -530.656)" fill="#feb333" opacity="0.48" style="mix-blend-mode: multiply;isolation: isolate"/>
      <path id="Path_1125" data-name="Path 1125" d="M1796.381,548.371a16.233,16.233,0,0,1,.529,2.436c.009.181-.005.31-.057.357-.271.243-2.477-1.319-2.477-1.319s-2.154,1.506-2.478,1.319.472-2.793.472-2.793-2.024-1.665-2-1.979,2.77-.407,2.77-.407.231-.713.512-1.384c.246-.588.528-1.145.727-1.158.425-.029,1.239,2.542,1.239,2.542s2.62.12,2.77.407S1796.381,548.371,1796.381,548.371Z" transform="translate(-1771.789 -540.89)" fill="#feb333"/>
      <path id="Path_1126" data-name="Path 1126" d="M1796.854,556.506c-.271.243-2.477-1.319-2.477-1.319s-2.154,1.506-2.478,1.319.472-2.793.472-2.793-2.024-1.665-2-1.979,2.77-.407,2.77-.407.231-.713.512-1.384c-.109,4.039,1.782,5.6,3.262,6.206C1796.92,556.33,1796.905,556.459,1796.854,556.506Z" transform="translate(-1771.789 -546.232)" fill="#feb333" opacity="0.48" style="mix-blend-mode: multiply;isolation: isolate"/>
      <path id="Path_1127" data-name="Path 1127" d="M1690.833,548.371a17.612,17.612,0,0,1,.52,2.33c.023.235.013.408-.048.464-.271.243-2.478-1.319-2.478-1.319s-2.154,1.506-2.478,1.319.472-2.793.472-2.793-2.024-1.665-2-1.979,2.769-.407,2.769-.407.3-.911.624-1.643c.216-.482.447-.887.616-.9.425-.029,1.24,2.542,1.24,2.542s2.619.12,2.769.407S1690.833,548.371,1690.833,548.371Z" transform="translate(-1684.818 -540.89)" fill="#feb333"/>
      <path id="Path_1128" data-name="Path 1128" d="M1691.3,555.31c-.271.243-2.478-1.319-2.478-1.319s-2.154,1.506-2.478,1.319.472-2.793.472-2.793-2.024-1.665-2-1.979,2.769-.407,2.769-.407.3-.911.624-1.643c-.641,4.881,1.757,6.074,3.141,6.359C1691.375,555.082,1691.366,555.255,1691.3,555.31Z" transform="translate(-1684.818 -545.036)" fill="#feb333" opacity="0.48" style="mix-blend-mode: multiply;isolation: isolate"/>
    </g>
  </g>
</svg>
