<svg xmlns="http://www.w3.org/2000/svg" xmlns:xlink="http://www.w3.org/1999/xlink" width="48" height="48" viewBox="0 0 48 48"><defs><clipPath id="a"><rect width="24" height="24" transform="translate(29 36)" fill="#fff" stroke="#707070" stroke-width="1"/></clipPath></defs><rect width="48" height="48" fill="rgba(255,255,255,0)"/><g transform="translate(-17 -24)" clip-path="url(#a)"><g transform="translate(22.176 28.059)"><path d="M25.588,14.706a6.765,6.765,0,1,0-6.765,6.765A6.766,6.766,0,0,0,25.588,14.706Zm-11.765,0a5,5,0,1,1,5,5A5,5,0,0,1,13.824,14.706Z" fill="#fff"/><path d="M7.5,31.824a.83.83,0,0,0,.441.118.853.853,0,0,0,.765-.441,11.639,11.639,0,0,1,20.265,0,.883.883,0,1,0,1.529-.882,13.431,13.431,0,0,0-23.353,0A.884.884,0,0,0,7.5,31.824Z" fill="#fff"/></g></g></svg>