<svg xmlns="http://www.w3.org/2000/svg" xmlns:xlink="http://www.w3.org/1999/xlink" width="64" height="42" viewBox="0 0 64 42">
  <defs>
    <linearGradient id="linear-gradient" x1="0.5" y1="-0.342" x2="0.5" y2="1.101" gradientUnits="objectBoundingBox">
      <stop offset="0" stop-color="#ffc419"/>
      <stop offset="1" stop-color="#fa8208"/>
    </linearGradient>
    <radialGradient id="radial-gradient" cx="0.5" cy="0.5" r="1.117" gradientTransform="translate(0.333) scale(0.334 1)" gradientUnits="objectBoundingBox">
      <stop offset="0" stop-color="#f2ffae"/>
      <stop offset="0.964" stop-color="#ffc88a"/>
    </radialGradient>
    <radialGradient id="radial-gradient-2" cx="0.5" cy="0.5" r="0.38" gradientTransform="translate(-0.775) scale(2.55 1)" xlink:href="#radial-gradient"/>
    <radialGradient id="radial-gradient-3" cx="0.5" cy="0.5" r="2.685" gradientTransform="translate(0.434) scale(0.133 1)" xlink:href="#radial-gradient"/>
    <linearGradient id="linear-gradient-2" x1="0.5" y1="-0.342" x2="0.5" y2="1.101" xlink:href="#linear-gradient"/>
    <radialGradient id="radial-gradient-4" cx="0.5" cy="0.5" r="0.698" gradientTransform="translate(0.206) scale(0.588 1)" xlink:href="#radial-gradient"/>
    <radialGradient id="radial-gradient-5" cx="0.5" cy="0.5" r="0.475" gradientTransform="translate(-0.058) scale(1.117 1)" xlink:href="#radial-gradient"/>
    <radialGradient id="radial-gradient-6" cx="0.5" cy="0.5" r="0.534" gradientTransform="translate(0.059) scale(0.883 1)" xlink:href="#radial-gradient"/>
    <linearGradient id="linear-gradient-3" x1="0.5" y1="-0.342" x2="0.5" y2="1.101" xlink:href="#linear-gradient"/>
    <radialGradient id="radial-gradient-7" cx="0.5" cy="0.5" r="0.613" gradientTransform="translate(0.147) scale(0.706 1)" xlink:href="#radial-gradient"/>
    <radialGradient id="radial-gradient-8" cx="0.5" cy="0.5" r="0.556" gradientTransform="translate(0.088) scale(0.824 1)" xlink:href="#radial-gradient"/>
    <radialGradient id="radial-gradient-9" cx="0.5" cy="0.5" r="0.613" gradientTransform="translate(0.147) scale(0.706 1)" xlink:href="#radial-gradient"/>
    <radialGradient id="radial-gradient-10" cx="0.5" cy="0.5" r="0.556" gradientTransform="translate(0.088) scale(0.824 1)" xlink:href="#radial-gradient"/>
    <radialGradient id="radial-gradient-11" cx="0.5" cy="0.5" r="0.613" gradientTransform="translate(0.147) scale(0.707 1)" xlink:href="#radial-gradient"/>
    <radialGradient id="radial-gradient-12" cx="0.5" cy="0.5" r="0.556" gradientTransform="translate(0.088) scale(0.823 1)" xlink:href="#radial-gradient"/>
    <linearGradient id="linear-gradient-6" x1="-0.428" y1="0.104" x2="-0.322" y2="2.202" gradientUnits="objectBoundingBox">
      <stop offset="0" stop-color="#8b27d0"/>
      <stop offset="1" stop-color="#7c0d8b"/>
    </linearGradient>
    <linearGradient id="linear-gradient-7" x1="-37.717" y1="-0.175" x2="-37.608" y2="1.909" xlink:href="#linear-gradient-6"/>
    <linearGradient id="linear-gradient-8" x1="0.534" y1="-0.097" x2="0.388" y2="2.452" gradientUnits="objectBoundingBox">
      <stop offset="0.004" stop-color="#09d5b5"/>
      <stop offset="1" stop-color="#3f89a5"/>
    </linearGradient>
    <radialGradient id="radial-gradient-13" cx="0.5" cy="0.5" r="0.42" gradientTransform="translate(-0.278) scale(1.556 1)" xlink:href="#radial-gradient"/>
    <linearGradient id="linear-gradient-9" y1="0.5" x2="1" y2="0.5" gradientUnits="objectBoundingBox">
      <stop offset="0.004" stop-color="#09d5b5"/>
      <stop offset="1" stop-color="#42ffd0"/>
    </linearGradient>
    <linearGradient id="linear-gradient-10" x1="0" y1="0.5" x2="1" y2="0.5" xlink:href="#linear-gradient-9"/>
    <linearGradient id="linear-gradient-11" x1="0.302" y1="0.99" x2="0.784" y2="-0.204" xlink:href="#linear-gradient-9"/>
    <radialGradient id="radial-gradient-14" cx="0.5" cy="0.5" r="0.383" gradientTransform="translate(-0.147 0) scale(2.307 1.006)" xlink:href="#radial-gradient"/>
    <radialGradient id="radial-gradient-15" cx="0.5" cy="0.5" r="0.358" gradientTransform="translate(-2.315 -0.128) scale(1.599 1.257)" xlink:href="#radial-gradient"/>
    <radialGradient id="radial-gradient-16" cx="0.5" cy="0.5" r="0.251" gradientTransform="translate(-14.048 -0.765) scale(1.695 2.531)" xlink:href="#radial-gradient"/>
    <radialGradient id="radial-gradient-17" cx="0.5" cy="0.5" r="0.338" gradientTransform="translate(-12.225 -0.128) scale(1.882 1.257)" xlink:href="#radial-gradient"/>
    <radialGradient id="radial-gradient-18" cx="0.474" cy="0.501" r="0.403" gradientTransform="matrix(2.062, 0.187, -0.38, 0.954, -7.936, -1.349)" xlink:href="#radial-gradient"/>
    <linearGradient id="linear-gradient-13" x1="10.712" y1="-1.576" x2="10.712" y2="-0.111" xlink:href="#linear-gradient"/>
    <radialGradient id="radial-gradient-19" cx="0.452" cy="0.525" r="0.343" gradientTransform="matrix(1.784, 0.187, -0.426, 1.235, -21.216, -4.68)" xlink:href="#radial-gradient"/>
    <radialGradient id="radial-gradient-20" cx="0.503" cy="0.504" r="0.254" gradientTransform="matrix(1.598, 0.187, -0.769, 2.486, -58.413, -14.987)" xlink:href="#radial-gradient"/>
    <radialGradient id="radial-gradient-21" cx="0.475" cy="0.494" r="0.354" gradientTransform="matrix(1.573, 0.187, -0.376, 1.235, -49.626, -14.19)" xlink:href="#radial-gradient"/>
    <radialGradient id="radial-gradient-22" cx="0.524" cy="0.501" r="0.392" gradientTransform="matrix(-2.038, 0.187, 0.39, 0.988, 70.612, -4.317)" xlink:href="#radial-gradient"/>
    <linearGradient id="linear-gradient-14" x1="29.444" y1="-1.669" x2="29.444" y2="-0.204" xlink:href="#linear-gradient"/>
    <radialGradient id="radial-gradient-23" cx="0.548" cy="0.525" r="0.343" gradientTransform="matrix(-1.783, 0.187, 0.426, 1.235, 138.081, -8.933)" xlink:href="#radial-gradient"/>
    <radialGradient id="radial-gradient-24" cx="0.497" cy="0.504" r="0.254" gradientTransform="matrix(-1.597, 0.187, 0.768, 2.486, 325.863, -20.255)" xlink:href="#radial-gradient"/>
    <radialGradient id="radial-gradient-25" cx="0.526" cy="0.494" r="0.354" gradientTransform="matrix(-1.573, 0.187, 0.376, 1.235, 408.973, -28.091)" xlink:href="#radial-gradient"/>
    <radialGradient id="radial-gradient-26" cx="0.484" cy="0.513" r="0.23" gradientTransform="matrix(1.913, 0.112, -0.559, 2.586, -34.714, -3.668)" xlink:href="#radial-gradient"/>
    <radialGradient id="radial-gradient-27" cx="0.485" cy="0.52" r="0.228" gradientTransform="matrix(1.911, 0.179, -0.906, 2.56, -61.434, -9.444)" xlink:href="#radial-gradient"/>
    <radialGradient id="radial-gradient-28" cx="0.516" cy="0.513" r="0.23" gradientTransform="matrix(-1.912, 0.112, 0.559, 2.586, 128.328, -4.519)" xlink:href="#radial-gradient"/>
    <radialGradient id="radial-gradient-29" cx="0.516" cy="0.52" r="0.228" gradientTransform="matrix(-1.911, 0.179, 0.906, 2.56, 259.434, -13.801)" xlink:href="#radial-gradient"/>
    <radialGradient id="radial-gradient-30" cx="0.5" cy="0.5" r="0.5" gradientTransform="translate(0)" xlink:href="#radial-gradient"/>
    <radialGradient id="radial-gradient-31" cx="0.5" cy="0.5" r="0.613" gradientTransform="translate(0.147) scale(0.706 1)" xlink:href="#radial-gradient"/>
    <radialGradient id="radial-gradient-32" cx="0.5" cy="0.5" r="0.556" gradientTransform="translate(0.088) scale(0.824 1)" xlink:href="#radial-gradient"/>
    <radialGradient id="radial-gradient-33" cx="0.5" cy="0.5" r="0.5" gradientTransform="translate(0)" xlink:href="#radial-gradient"/>
    <radialGradient id="radial-gradient-34" cx="0.5" cy="0.5" r="0.612" gradientTransform="translate(0.146) scale(0.707 1)" xlink:href="#radial-gradient"/>
    <radialGradient id="radial-gradient-35" cx="0.5" cy="0.5" r="0.556" gradientTransform="translate(0.088) scale(0.824 1)" xlink:href="#radial-gradient"/>
    <radialGradient id="radial-gradient-36" cx="0.5" cy="0.5" r="0.5" gradientTransform="translate(0)" xlink:href="#radial-gradient"/>
    <linearGradient id="linear-gradient-17" x1="0.5" y1="-0.342" x2="0.5" y2="1.101" xlink:href="#linear-gradient"/>
    <radialGradient id="radial-gradient-37" cx="0.5" cy="0.5" r="0.613" gradientTransform="translate(0.147) scale(0.707 1)" xlink:href="#radial-gradient"/>
    <radialGradient id="radial-gradient-38" cx="0.5" cy="0.5" r="0.556" gradientTransform="translate(0.088) scale(0.823 1)" xlink:href="#radial-gradient"/>
    <radialGradient id="radial-gradient-39" cx="0.5" cy="0.5" r="0.5" gradientTransform="translate(0)" xlink:href="#radial-gradient"/>
    <linearGradient id="linear-gradient-18" x1="0.5" y1="-0.342" x2="0.5" y2="1.101" xlink:href="#linear-gradient"/>
    <radialGradient id="radial-gradient-40" cx="0.5" cy="0.5" r="0.613" gradientTransform="translate(0.147) scale(0.706 1)" xlink:href="#radial-gradient"/>
    <radialGradient id="radial-gradient-41" cx="0.5" cy="0.5" r="0.556" gradientTransform="translate(0.088) scale(0.824 1)" xlink:href="#radial-gradient"/>
    <radialGradient id="radial-gradient-42" cx="0.5" cy="0.5" r="0.5" gradientTransform="matrix(1, 0, 0, 1, 0, 0)" xlink:href="#radial-gradient"/>
    <linearGradient id="linear-gradient-19" x1="0.5" y1="-0.342" x2="0.5" y2="1.101" xlink:href="#linear-gradient"/>
    <radialGradient id="radial-gradient-43" cx="0.5" cy="0.5" r="0.613" gradientTransform="translate(0.147) scale(0.706 1)" xlink:href="#radial-gradient"/>
    <radialGradient id="radial-gradient-44" cx="0.5" cy="0.5" r="0.556" gradientTransform="translate(0.088) scale(0.824 1)" xlink:href="#radial-gradient"/>
    <radialGradient id="radial-gradient-45" cx="0.5" cy="0.5" r="0.5" gradientTransform="translate(0)" xlink:href="#radial-gradient"/>
    <linearGradient id="linear-gradient-20" x1="0.5" y1="-0.342" x2="0.5" y2="1.101" xlink:href="#linear-gradient"/>
    <radialGradient id="radial-gradient-46" cx="0.5" cy="0.5" r="0.613" gradientTransform="translate(0.147) scale(0.706 1)" xlink:href="#radial-gradient"/>
    <radialGradient id="radial-gradient-47" cx="0.5" cy="0.5" r="0.556" gradientTransform="translate(0.088) scale(0.824 1)" xlink:href="#radial-gradient"/>
    <radialGradient id="radial-gradient-48" cx="0.5" cy="0.5" r="0.5" gradientTransform="translate(0)" xlink:href="#radial-gradient"/>
    <linearGradient id="linear-gradient-21" x1="0.5" y1="-0.342" x2="0.5" y2="1.101" xlink:href="#linear-gradient"/>
    <radialGradient id="radial-gradient-49" cx="0.5" cy="0.5" r="0.613" gradientTransform="translate(0.147) scale(0.707 1)" xlink:href="#radial-gradient"/>
    <radialGradient id="radial-gradient-50" cx="0.5" cy="0.5" r="0.556" gradientTransform="translate(0.088) scale(0.824 1)" xlink:href="#radial-gradient"/>
    <radialGradient id="radial-gradient-51" cx="0.5" cy="0.5" r="0.5" gradientTransform="translate(0)" xlink:href="#radial-gradient"/>
    <linearGradient id="linear-gradient-22" x1="0.5" y1="-0.342" x2="0.5" y2="1.101" xlink:href="#linear-gradient"/>
    <radialGradient id="radial-gradient-52" cx="0.5" cy="0.5" r="0.613" gradientTransform="translate(0.147) scale(0.707 1)" xlink:href="#radial-gradient"/>
    <radialGradient id="radial-gradient-53" cx="0.5" cy="0.5" r="0.556" gradientTransform="translate(0.088) scale(0.823 1)" xlink:href="#radial-gradient"/>
    <radialGradient id="radial-gradient-54" cx="0.5" cy="0.5" r="0.5" gradientTransform="translate(0)" xlink:href="#radial-gradient"/>
    <radialGradient id="radial-gradient-55" cx="0.5" cy="0.5" r="0.613" gradientTransform="translate(0.147) scale(0.707 1)" xlink:href="#radial-gradient"/>
    <radialGradient id="radial-gradient-56" cx="0.5" cy="0.5" r="0.556" gradientTransform="translate(0.089) scale(0.823 1)" xlink:href="#radial-gradient"/>
    <linearGradient id="linear-gradient-24" x1="-61.343" y1="-2.012" x2="-61.588" y2="0.487" xlink:href="#linear-gradient-8"/>
    <radialGradient id="radial-gradient-57" cx="0.489" cy="0.496" r="0.253" gradientTransform="matrix(-2.63, -0.212, -0.96, 1.644, -265.269, -14.394)" xlink:href="#radial-gradient"/>
    <linearGradient id="linear-gradient-25" x1="-197.628" y1="-6.673" x2="-197.34" y2="-6.673" xlink:href="#linear-gradient-9"/>
    <linearGradient id="linear-gradient-26" x1="-163.121" y1="-4.204" x2="-162.52" y2="-4.204" xlink:href="#linear-gradient-9"/>
    <linearGradient id="linear-gradient-27" x1="-106.574" y1="-2.588" x2="-105.813" y2="-3.775" xlink:href="#linear-gradient-9"/>
    <linearGradient id="linear-gradient-28" x1="-62.737" y1="-2.743" x2="-62.982" y2="-0.243" xlink:href="#linear-gradient-8"/>
    <radialGradient id="radial-gradient-58" cx="0.511" cy="0.496" r="0.253" gradientTransform="matrix(2.586, -0.278, 1.258, 1.616, 130.746, -20.842)" xlink:href="#radial-gradient"/>
    <linearGradient id="linear-gradient-29" x1="-201.212" y1="-9.362" x2="-200.924" y2="-9.362" xlink:href="#linear-gradient-9"/>
    <linearGradient id="linear-gradient-30" x1="-166.787" y1="-6.001" x2="-166.185" y2="-6.001" xlink:href="#linear-gradient-9"/>
    <linearGradient id="linear-gradient-31" x1="-108.599" y1="-3.939" x2="-107.837" y2="-5.125" xlink:href="#linear-gradient-9"/>
    <linearGradient id="linear-gradient-32" x1="1.25" y1="-0.296" x2="-0.849" y2="1.492" xlink:href="#linear-gradient"/>
    <radialGradient id="radial-gradient-59" cx="0.5" cy="0.5" r="0.382" gradientTransform="translate(-0.733) scale(2.465 1)" xlink:href="#radial-gradient"/>
    <radialGradient id="radial-gradient-60" cx="0.5" cy="0.5" r="0.362" gradientTransform="translate(-1.722) scale(4.444 1)" xlink:href="#radial-gradient"/>
    <radialGradient id="radial-gradient-61" cx="0.5" cy="0.5" r="0.39" gradientTransform="translate(-0.579) scale(2.159 1)" xlink:href="#radial-gradient"/>
    <linearGradient id="linear-gradient-33" x1="81.722" y1="-0.296" x2="79.624" y2="1.492" xlink:href="#linear-gradient"/>
    <radialGradient id="radial-gradient-62" cx="0.5" cy="0.5" r="0.382" gradientTransform="matrix(-2.464, 0, 0, 1, 529.939, 0)" xlink:href="#radial-gradient"/>
    <radialGradient id="radial-gradient-63" cx="0.5" cy="0.5" r="0.362" gradientTransform="matrix(-4.447, 0, 0, 1, 809.259, 0)" xlink:href="#radial-gradient"/>
    <radialGradient id="radial-gradient-64" cx="0.5" cy="0.5" r="0.39" gradientTransform="matrix(-2.163, 0, 0, 1, 1270.458, 0)" xlink:href="#radial-gradient"/>
  </defs>
  <g id="Group_252" data-name="Group 252" transform="translate(-220.999 -50.29)">
    <g id="Group_251" data-name="Group 251" transform="translate(220.999 50.29)">
      <g id="Group_222" data-name="Group 222">
        <path id="Path_1156" data-name="Path 1156" d="M232.242,102.94c0,.011,0,.023,0,.033,0,3.007,10.982,5.686,24.53,5.686s24.529-2.679,24.529-5.686c0-.011,0-.022,0-.033a9.476,9.476,0,0,0-.132-3.341c-.416-.988-48.66-.468-48.66-.468S232.031,99.781,232.242,102.94Z" transform="translate(-224.77 -66.659)" fill="url(#linear-gradient)"/>
        <path id="Path_1157" data-name="Path 1157" d="M266.952,105.252a30.178,30.178,0,0,0-.4,4.153q.891.017,1.8.017c10.081,0,18.741-1.484,22.513-3.482a25.584,25.584,0,0,0-.025-4.675Z" transform="translate(-236.354 -67.422)" opacity="0.37" fill="url(#radial-gradient)" style="mix-blend-mode: overlay;isolation: isolate"/>
        <path id="Path_1158" data-name="Path 1158" d="M232.242,103c0,.011,0,.023,0,.033,0,.841.859,1.656,2.393,2.395a13.1,13.1,0,0,1-.065-5.9l-1.053-.347-1.01.01S232.031,99.845,232.242,103Z" transform="translate(-224.77 -66.723)" opacity="0.4" fill="url(#radial-gradient-2)" style="mix-blend-mode: overlay;isolation: isolate"/>
        <path id="Path_1159" data-name="Path 1159" d="M232.546,99.131a2.283,2.283,0,0,0-.242.93c.548,2.91,11.308,5.453,24.506,5.453,13.285,0,24.1-2.577,24.515-5.512a2.17,2.17,0,0,0-.12-.4C280.79,98.611,232.546,99.131,232.546,99.131Z" transform="translate(-224.809 -66.659)" opacity="0.67" fill="url(#radial-gradient-3)" style="mix-blend-mode: overlay;isolation: isolate"/>
        <path id="Path_1160" data-name="Path 1160" d="M284.358,60.309l-1.524-.161-.962-.321a25.87,25.87,0,0,1-3.688,7.311c-2.326,2.89-5.693,3.854-7.217,3.453s-2.023-4.009-2.165-4.416c-.2-.582-.481-1.044-1.925,1.044s-2.569,3.781-5.292,2.489c-4.571-2.169-6.415-15.178-6.415-15.178l-.849-.189c0-.191,0-.293,0-.293l-.656.147-.656-.147s0,.1,0,.293l-.85.189s-1.944,13.3-6.589,15.3c-2.416,1.043-3.675-.528-5.118-2.616s-1.751-1.534-1.924-1.044c-.145.407-.642,4.014-2.165,4.416s-4.891-.563-7.217-3.453a25.881,25.881,0,0,1-3.689-7.311l-.962.321-1.524.161s2.668,16.065,6.169,23.9c0,.01,0,.022,0,.033,0,3.007,10.982,5.686,24.53,5.686s24.529-2.679,24.529-5.686c0-.011,0-.023,0-.034C281.8,76.617,284.358,60.309,284.358,60.309Z" transform="translate(-221.661 -51.553)" fill="url(#linear-gradient-2)"/>
        <path id="Path_1161" data-name="Path 1161" d="M242.3,91.3c5.754,1.629,6.589-8.589,4.7-15.5a7.748,7.748,0,0,1-2.529-2.674c-1.444-2.088-1.751-1.534-1.924-1.044-.145.407-.642,4.014-2.165,4.416-1.172.309-3.432-.195-5.473-1.756C235.29,78.014,237.017,89.8,242.3,91.3Z" transform="translate(-225.688 -57.462)" fill="#ffde28" opacity="0.14"/>
        <path id="Path_1162" data-name="Path 1162" d="M223.829,63.341l-.865.092s2.668,16.065,6.169,23.9c0,.01,0,.022,0,.033,0,.866.913,1.7,2.534,2.461C228.182,82.388,224.639,71.64,223.829,63.341Z" transform="translate(-221.661 -54.676)" fill="#ffde28"/>
        <path id="Path_1163" data-name="Path 1163" d="M294.841,62.866l-.339-.113a25.87,25.87,0,0,1-3.688,7.311c-2.326,2.89-5.693,3.854-7.217,3.453s-2.023-4.009-2.165-4.416c-.2-.582-.481-1.044-1.925,1.044s-2.569,3.781-5.292,2.489c-1.38-.655-2.511-2.3-3.418-4.271-.7,7.152-2.926,18.3-9.977,23.993-.136.108-.262.216-.386.323,1.877.112,3.838.171,5.858.171,9.082,0,17.011-1.2,21.251-2.9C289.257,85.162,293.558,71.878,294.841,62.866Z" transform="translate(-234.291 -54.479)" fill="#eceaff" opacity="0.19" style="mix-blend-mode: overlay;isolation: isolate"/>
        <path id="Path_1164" data-name="Path 1164" d="M297.438,73.029c-2.326,2.89-5.693,3.854-7.217,3.453s-2.023-4.009-2.165-4.416c-.2-.582-.481-1.044-1.925,1.044s-2.569,3.781-5.292,2.489a4.071,4.071,0,0,1-.7-.434c-.224,6.443.045,20.262,6.078,18.074,6.268-2.274,10.215-13.758,11.743-20.893C297.79,72.576,297.617,72.805,297.438,73.029Z" transform="translate(-240.915 -57.443)" fill="#ffde28" opacity="0.3"/>
        <path id="Path_1165" data-name="Path 1165" d="M239.155,70.1c.324-2.188.171-3.938,1.663-2.171s3.113,4.847,5.945,3.387,5.423-6.889,6.152-10.78.485-4.377.485-4.377l-.3.015c-.542,3.057-2.538,12.689-6.434,14.372-2.416,1.043-3.675-.528-5.118-2.616s-1.751-1.534-1.924-1.044c-.145.407-.642,4.014-2.165,4.416s-4.891-.563-7.217-3.453a25.881,25.881,0,0,1-3.689-7.311l-.318.106.051.382s.971,5.589,5.1,8.994S238.831,72.286,239.155,70.1Z" transform="translate(-222.764 -52.262)" opacity="0.67" fill="url(#radial-gradient-4)" style="mix-blend-mode: overlay;isolation: isolate"/>
        <g id="Group_217" data-name="Group 217" transform="translate(33.397 3.894)">
          <path id="Path_1166" data-name="Path 1166" d="M278.052,71.314c2.833,1.46,4.452-1.621,5.945-3.387.754-.892,1.088-.887,1.275-.382-.072-.329-.121-.573-.152-.662-.2-.582-.481-1.044-1.924,1.044s-2.569,3.781-5.292,2.489c-3.828-1.816-5.744-11.237-6.265-14.249l-.224-.011s-.243.487.485,4.377S275.219,69.855,278.052,71.314Z" transform="translate(-271.376 -56.156)" opacity="0.67" fill="url(#radial-gradient-5)" style="mix-blend-mode: overlay;isolation: isolate"/>
          <path id="Path_1167" data-name="Path 1167" d="M305.667,63.24l.047-.359-.387-.129a25.87,25.87,0,0,1-3.688,7.311c-2.326,2.89-5.693,3.854-7.217,3.453-1.008-.266-1.568-1.937-1.872-3.155.083.521.138,1.212.247,1.953.324,2.188,3.642,3.324,7.77-.081S305.667,63.24,305.667,63.24Z" transform="translate(-278.513 -58.373)" opacity="0.67" fill="url(#radial-gradient-6)" style="mix-blend-mode: overlay;isolation: isolate"/>
        </g>
        <g id="Group_220" data-name="Group 220" transform="translate(0 5.107)">
          <g id="Group_218" data-name="Group 218">
            <path id="Path_1168" data-name="Path 1168" d="M225.892,60.432a2.447,2.447,0,1,1-2.447-2.45A2.448,2.448,0,0,1,225.892,60.432Z" transform="translate(-220.999 -57.982)" fill="url(#linear-gradient-3)"/>
            <path id="Path_1169" data-name="Path 1169" d="M223.552,63.322a2.442,2.442,0,0,1-2.361-3.083,2.446,2.446,0,1,0,4.616,1.585A2.447,2.447,0,0,1,223.552,63.322Z" transform="translate(-220.999 -58.741)" opacity="0.44" fill="url(#radial-gradient-7)" style="mix-blend-mode: overlay;isolation: isolate"/>
            <path id="Path_1170" data-name="Path 1170" d="M225.57,59.485a1.522,1.522,0,1,1-1.494-1.232A1.383,1.383,0,0,1,225.57,59.485Z" transform="translate(-221.532 -58.073)" opacity="0.44" fill="url(#radial-gradient-8)" style="mix-blend-mode: overlay;isolation: isolate"/>
            <path id="Path_1171" data-name="Path 1171" d="M225.8,59.382c-.1.26-.522.339-.941.176s-.677-.505-.576-.765.522-.339.941-.177S225.9,59.121,225.8,59.382Z" transform="translate(-222.099 -58.167)" fill="#fffefd" opacity="0.7"/>
          </g>
          <g id="Group_219" data-name="Group 219" transform="translate(59.106)">
            <path id="Path_1172" data-name="Path 1172" d="M315.051,60.432a2.447,2.447,0,1,1-2.446-2.45A2.448,2.448,0,0,1,315.051,60.432Z" transform="translate(-310.157 -57.982)" fill="url(#linear-gradient-3)"/>
            <path id="Path_1173" data-name="Path 1173" d="M312.711,63.322a2.449,2.449,0,0,1-2.448-2.45,2.482,2.482,0,0,1,.086-.633,2.447,2.447,0,1,0,4.617,1.585A2.447,2.447,0,0,1,312.711,63.322Z" transform="translate(-310.157 -58.741)" opacity="0.44" fill="url(#radial-gradient-9)" style="mix-blend-mode: overlay;isolation: isolate"/>
            <path id="Path_1174" data-name="Path 1174" d="M314.728,59.485a1.522,1.522,0,1,1-1.494-1.232A1.383,1.383,0,0,1,314.728,59.485Z" transform="translate(-310.69 -58.073)" opacity="0.44" fill="url(#radial-gradient-10)" style="mix-blend-mode: overlay;isolation: isolate"/>
            <path id="Path_1175" data-name="Path 1175" d="M314.961,59.382c-.1.26-.522.339-.941.176s-.678-.505-.577-.765.522-.339.941-.177S315.062,59.121,314.961,59.382Z" transform="translate(-311.257 -58.167)" fill="#fffefd" opacity="0.7"/>
          </g>
        </g>
        <g id="Group_221" data-name="Group 221" transform="translate(29.396)">
          <path id="Path_1176" data-name="Path 1176" d="M270.549,52.9a2.6,2.6,0,1,1-2.6-2.608A2.606,2.606,0,0,1,270.549,52.9Z" transform="translate(-265.341 -50.29)" fill="url(#linear-gradient)"/>
          <path id="Path_1177" data-name="Path 1177" d="M268.058,55.973a2.6,2.6,0,0,1-2.513-3.281,2.6,2.6,0,1,0,4.913,1.686A2.6,2.6,0,0,1,268.058,55.973Z" transform="translate(-265.341 -51.097)" opacity="0.44" fill="url(#radial-gradient-11)" style="mix-blend-mode: overlay;isolation: isolate"/>
          <path id="Path_1178" data-name="Path 1178" d="M270.2,51.89a1.62,1.62,0,1,1-1.59-1.311A1.471,1.471,0,0,1,270.2,51.89Z" transform="translate(-265.908 -50.387)" opacity="0.44" fill="url(#radial-gradient-12)" style="mix-blend-mode: overlay;isolation: isolate"/>
          <path id="Path_1179" data-name="Path 1179" d="M270.454,51.779c-.107.277-.556.361-1,.189s-.722-.538-.614-.815.555-.362,1-.188S270.56,51.5,270.454,51.779Z" transform="translate(-266.512 -50.486)" fill="#fffefd" opacity="0.7"/>
        </g>
      </g>
      <g id="Group_223" data-name="Group 223" transform="translate(16.194 21.085)">
        <path id="Path_1180" data-name="Path 1180" d="M247.284,82.092c-1.317.336-2.253,1.772-1.691,5.176a10.264,10.264,0,0,0,3.813,6.381s1.4-1.966,1.2-6S248.7,81.732,247.284,82.092Z" transform="translate(-245.426 -82.049)" fill="#c57d1a"/>
        <path id="Path_1181" data-name="Path 1181" d="M247.407,82.611c-1.239.315-2.119,1.666-1.59,4.868a9.656,9.656,0,0,0,3.585,6s1.317-1.848,1.133-5.639S248.742,82.271,247.407,82.611Z" transform="translate(-245.505 -82.224)" fill="url(#linear-gradient-6)"/>
        <path id="Path_1182" data-name="Path 1182" d="M249.331,85.455a2.5,2.5,0,0,1,.213-2.094,1.758,1.758,0,0,0-1.756-.75,2.034,2.034,0,0,0-.463.179.638.638,0,0,1,.173.777,6.562,6.562,0,0,0-.688,3.079,4.4,4.4,0,0,0,.576,1.854s-.634-2-.164-3.058,1.414-.78,1.842.177a4.88,4.88,0,0,1,.443,1.711A5.433,5.433,0,0,0,249.331,85.455Z" transform="translate(-245.886 -82.224)" fill="#d585ec" opacity="0.43"/>
        <path id="Path_1183" data-name="Path 1183" d="M250.34,96.77a5.541,5.541,0,0,0,.6-1.285,3.748,3.748,0,0,1-.278.584c-.3.469-.573-.874-.7-1.319a14.518,14.518,0,0,1,.023-2.39,3.432,3.432,0,0,1-.52,1.059c-.264.24-1.018-.7-1.018-.7a8.288,8.288,0,0,0,.992,1.179c.082.12.357,1.488.52,2.184a.534.534,0,0,1-.019.364C250.182,96.658,250.34,96.77,250.34,96.77Z" transform="translate(-246.444 -85.514)" fill="#d585ec" opacity="0.43"/>
        <path id="Path_1184" data-name="Path 1184" d="M247.934,85.783c-.656.166-1.121.881-.841,2.575a5.1,5.1,0,0,0,1.9,3.174,4.988,4.988,0,0,0,.6-2.984C249.492,86.544,248.641,85.6,247.934,85.783Z" transform="translate(-245.96 -83.296)" fill="#ae44fd"/>
        <path id="Path_1185" data-name="Path 1185" d="M248.964,88.533s-.931-.05-.816,1.627a7.038,7.038,0,0,0,1.751,3.627,13.093,13.093,0,0,0,.445-3.871C250.106,88.748,249.465,88.506,248.964,88.533Z" transform="translate(-246.34 -84.227)" fill="#371043" opacity="0.25"/>
        <path id="Path_1186" data-name="Path 1186" d="M248.062,90.2a1.663,1.663,0,0,1-.2-.042,4.929,4.929,0,0,0,1.223,1.376,2.627,2.627,0,0,0,.252-.507.631.631,0,0,1-.208-.179c-.351-.459-.137-2.079-.08-2.887.053-.745.325-.986.548-.2-.251-1.459-.963-2.132-1.569-1.978a1.093,1.093,0,0,0-.743.653c.213-.211.744-.581,1.15-.1C248.942,86.934,248.694,90.292,248.062,90.2Z" transform="translate(-246.052 -83.297)" fill="#d585ec" opacity="0.73"/>
        <path id="Path_1187" data-name="Path 1187" d="M248.224,85.77s-.241.189.234.164.856.507,1.107.971l.251.463a2.022,2.022,0,0,0-.42-1.284C248.942,85.581,248.54,85.578,248.224,85.77Z" transform="translate(-246.349 -83.26)" fill="#efbbfe"/>
        <path id="Path_1188" data-name="Path 1188" d="M249.092,82.622c-.046,1.143-.359,2.182-.243,2.159a.486.486,0,0,1,.3.034s.3-1.324.439-1.994A1.685,1.685,0,0,0,249.092,82.622Z" transform="translate(-246.572 -82.241)" fill="#efbbfe" opacity="0.47"/>
      </g>
      <g id="Group_224" data-name="Group 224" transform="translate(43.033 21.317)">
        <path id="Path_1189" data-name="Path 1189" d="M288.856,83.6c1.3.258,2.284,1.6,1.914,4.945a9.994,9.994,0,0,1-3.375,6.4s-1.462-1.837-1.483-5.767S287.457,83.319,288.856,83.6Z" transform="translate(-285.912 -82.792)" fill="#ffde28" opacity="0.45"/>
        <path id="Path_1190" data-name="Path 1190" d="M287.4,93.487c-.058-.074-1.428-1.838-1.448-5.574-.011-2.188.507-3.971,1.423-4.893a1.9,1.9,0,0,1,1.337-.622,1.532,1.532,0,0,1,.3.028c.928.185,2.42,1.066,1.993,4.915a9.56,9.56,0,0,1-3.265,6.186l-.189.147Z" transform="translate(-285.925 -82.398)" fill="#c57d1a"/>
        <path id="Path_1191" data-name="Path 1191" d="M289.084,82.786c1.221.242,2.148,1.51,1.8,4.651a9.4,9.4,0,0,1-3.173,6.022s-1.376-1.728-1.4-5.425S287.769,82.525,289.084,82.786Z" transform="translate(-286.048 -82.52)" fill="url(#linear-gradient-7)"/>
        <path id="Path_1192" data-name="Path 1192" d="M288.291,85.632c.178-.75.021-1.8-.316-2.025a1.716,1.716,0,0,1,1.669-.821,2.04,2.04,0,0,1,.46.15.622.622,0,0,0-.129.765,6.379,6.379,0,0,1,.829,2.958,4.275,4.275,0,0,1-.463,1.834,5.529,5.529,0,0,0,0-2.983c-.512-1-1.415-.684-1.781.269a4.749,4.749,0,0,0-.341,1.687A5.31,5.31,0,0,1,288.291,85.632Z" transform="translate(-286.607 -82.52)" fill="#d585ec" opacity="0.43"/>
        <path id="Path_1193" data-name="Path 1193" d="M288.091,96.693a5.385,5.385,0,0,1-.646-1.217,3.833,3.833,0,0,0,.3.553c.318.44.513-.88.611-1.32a14.177,14.177,0,0,0-.147-2.322,3.342,3.342,0,0,0,.561,1c.269.22.953-.734.953-.734a8.006,8.006,0,0,1-.9,1.2c-.074.121-.269,1.467-.39,2.151a.522.522,0,0,0,.035.353C288.239,96.577,288.091,96.693,288.091,96.693Z" transform="translate(-286.429 -85.756)" fill="#d585ec" opacity="0.43"/>
        <path id="Path_1194" data-name="Path 1194" d="M289.806,85.872c.646.127,1.136.8.952,2.46a4.972,4.972,0,0,1-1.679,3.186,4.868,4.868,0,0,1-.738-2.869C288.33,86.694,289.11,85.734,289.806,85.872Z" transform="translate(-286.73 -83.561)" fill="#ae44fd"/>
        <path id="Path_1195" data-name="Path 1195" d="M289.083,88.594s.9-.1.878,1.54a6.858,6.858,0,0,1-1.513,3.618,12.737,12.737,0,0,1-.634-3.74C287.984,88.863,288.6,88.594,289.083,88.594Z" transform="translate(-286.545 -84.48)" fill="#371043" opacity="0.25"/>
        <path id="Path_1196" data-name="Path 1196" d="M290.023,90.169a1.732,1.732,0,0,0,.2-.052,4.818,4.818,0,0,1-1.118,1.4,2.62,2.62,0,0,1-.271-.48.608.608,0,0,0,.193-.185c.316-.465.024-2.03-.073-2.811-.091-.722-.368-.942-.544-.165.168-1.433.825-2.124,1.423-2a1.063,1.063,0,0,1,.756.6c-.218-.194-.754-.526-1.123-.04C289,87.04,289.413,90.291,290.023,90.169Z" transform="translate(-286.752 -83.561)" fill="#d585ec" opacity="0.73"/>
        <path id="Path_1197" data-name="Path 1197" d="M289.95,85.859s.244.171-.219.171-.805.538-1.025,1l-.22.464a1.966,1.966,0,0,1,.343-1.271C289.243,85.713,289.633,85.688,289.95,85.859Z" transform="translate(-286.778 -83.529)" fill="#efbbfe"/>
        <path id="Path_1198" data-name="Path 1198" d="M289.342,82.839c.1,1.108.463,2.1.348,2.086a.479.479,0,0,0-.292.048s-.365-1.271-.53-1.915A1.623,1.623,0,0,1,289.342,82.839Z" transform="translate(-286.908 -82.546)" fill="#efbbfe" opacity="0.47"/>
      </g>
      <g id="Group_225" data-name="Group 225" transform="translate(26.727 18.876)">
        <path id="Path_1199" data-name="Path 1199" d="M266.534,95.035a1.037,1.037,0,0,1-.807-.412,42.032,42.032,0,0,1-4.211-6.648,2.182,2.182,0,0,1,0-1.829,42.086,42.086,0,0,1,4.211-6.648,1,1,0,0,1,1.614,0,42,42,0,0,1,4.212,6.648,2.186,2.186,0,0,1,0,1.83,42.041,42.041,0,0,1-4.211,6.648A1.036,1.036,0,0,1,266.534,95.035Z" transform="translate(-261.315 -78.845)" fill="#ffde28" opacity="0.3"/>
        <path id="Path_1200" data-name="Path 1200" d="M266.534,94.464a1.042,1.042,0,0,1-.807-.408,41.441,41.441,0,0,1-4.211-6.561,2.128,2.128,0,0,1,0-1.805,41.442,41.442,0,0,1,4.211-6.562,1,1,0,0,1,1.614,0,41.355,41.355,0,0,1,4.212,6.561,2.13,2.13,0,0,1,0,1.805,41.391,41.391,0,0,1-4.211,6.561A1.04,1.04,0,0,1,266.534,94.464Z" transform="translate(-261.315 -78.722)" fill="#c57d1a"/>
        <path id="Path_1201" data-name="Path 1201" d="M271.438,86.009a41.948,41.948,0,0,0-4.283-6.676.554.554,0,0,0-.91,0,41.9,41.9,0,0,0-4.283,6.676,1.72,1.72,0,0,0,0,1.419,41.9,41.9,0,0,0,4.283,6.675.553.553,0,0,0,.91,0,41.941,41.941,0,0,0,4.283-6.675A1.715,1.715,0,0,0,271.438,86.009Z" transform="translate(-261.482 -78.848)" fill="url(#linear-gradient-8)"/>
        <path id="Path_1202" data-name="Path 1202" d="M271.439,86.009l-.022-.044c-.025.4-.386.675-.9.653-.626-.027-.789.136-1.2-.436s-2.04-3.244-2.2-3.489a8.981,8.981,0,0,1-.19-2.862c.066-.432.569.019.949.435-.242-.327-.483-.641-.717-.932a.554.554,0,0,0-.91,0q-.279.347-.568.73c.339-.338.7-.594.756-.232a9.017,9.017,0,0,1-.19,2.862c-.163.245-1.8,2.917-2.2,3.489s-.571.409-1.2.436a.789.789,0,0,1-.894-.574,1.726,1.726,0,0,0,.005,1.363.549.549,0,0,1,.263-.353,1.961,1.961,0,0,1,1.551.027c.164.137,1.551,2.344,1.96,2.972a6.15,6.15,0,0,1,.653,1.212c.136,1.281.05,1.766.105,2.382-.05.189-.14.3-.3.3a.622.622,0,0,1-.069,0l.125.158a.553.553,0,0,0,.91,0c.042-.053.087-.11.129-.165a.721.721,0,0,1-.116.011c-.157,0-.247-.114-.3-.3.054-.6-.057-1.128.079-2.382a6.312,6.312,0,0,1,.68-1.212c.408-.627,1.8-2.835,1.96-2.972a1.961,1.961,0,0,1,1.551-.027.577.577,0,0,1,.278.41c.005-.012.012-.025.018-.036A1.715,1.715,0,0,0,271.439,86.009Z" transform="translate(-261.482 -78.848)" opacity="0.85" fill="url(#radial-gradient-13)" style="mix-blend-mode: overlay;isolation: isolate"/>
        <path id="Path_1203" data-name="Path 1203" d="M270.767,88.1a29.387,29.387,0,0,0-3.005-4.685.389.389,0,0,0-.639,0,29.481,29.481,0,0,0-3.005,4.685,1.207,1.207,0,0,0,0,1,29.5,29.5,0,0,0,3.005,4.683.389.389,0,0,0,.639,0,29.4,29.4,0,0,0,3.005-4.683A1.2,1.2,0,0,0,270.767,88.1Z" transform="translate(-262.223 -80.244)" fill="#371043" opacity="0.07"/>
        <path id="Path_1204" data-name="Path 1204" d="M265.171,95.369c.267.414.538.821.809,1.212a33.7,33.7,0,0,0,.477-4.042l-.627-.471Z" transform="translate(-262.615 -83.208)" opacity="0.58" fill="url(#linear-gradient-9)"/>
        <path id="Path_1205" data-name="Path 1205" d="M271.208,84.862a5.688,5.688,0,0,0,.418,2.04c.156.1.836.576.836.576s0-1.936-.157-3.766c-.034-.407-.067-.759-.1-1.065-.331-.5-.666-.982-1-1.438C271.208,82.874,271.208,84.287,271.208,84.862Z" transform="translate(-264.65 -79.558)" opacity="0.58" fill="url(#linear-gradient-10)"/>
        <path id="Path_1206" data-name="Path 1206" d="M270.4,88.107a22.7,22.7,0,0,0-2.316-3.608.3.3,0,0,0-.493,0,22.751,22.751,0,0,0-2.316,3.608.932.932,0,0,0,0,.767,22.826,22.826,0,0,0,2.316,3.61.3.3,0,0,0,.493,0,22.778,22.778,0,0,0,2.316-3.61A.927.927,0,0,0,270.4,88.107Z" transform="translate(-262.624 -80.62)" fill="url(#linear-gradient-11)"/>
        <path id="Path_1207" data-name="Path 1207" d="M268.167,91.046A1.718,1.718,0,0,0,266.68,92.7a21.1,21.1,0,0,0,1.415,2.027.3.3,0,0,0,.493,0c.351-.436.725-.96,1.089-1.514,0-.042,0-.085,0-.128C269.682,91.959,269,91.046,268.167,91.046Z" transform="translate(-263.123 -82.864)" fill="#371043" opacity="0.07"/>
        <path id="Path_1208" data-name="Path 1208" d="M269.175,94.5a5.336,5.336,0,0,1-.917.477c-.278.1-1.191-1.013-1.86-1.9a21.433,21.433,0,0,0,1.6,2.334.3.3,0,0,0,.493,0C268.714,95.136,268.944,94.824,269.175,94.5Z" transform="translate(-263.028 -83.546)" fill="#fffefd" opacity="0.41"/>
        <path id="Path_1209" data-name="Path 1209" d="M270.405,88.874a.927.927,0,0,0,0-.767,22.7,22.7,0,0,0-2.316-3.608.3.3,0,0,0-.493,0,22.747,22.747,0,0,0-2.316,3.608.868.868,0,0,0-.082.376c.023-.027.048-.057.076-.094.782-1.044,2.345-3.027,3.388-1.356a4.035,4.035,0,0,1,.515,3.938A23.157,23.157,0,0,0,270.405,88.874Z" transform="translate(-262.624 -80.62)" fill="#fffefd" opacity="0.41"/>
        <path id="Path_1210" data-name="Path 1210" d="M270.692,87.24c-.149.1-.5-.171-.787-.6s-.4-.862-.247-.961.5.17.787.6S270.841,87.141,270.692,87.24Z" transform="translate(-264.105 -81.053)" fill="#fffefd"/>
        <path id="Path_1211" data-name="Path 1211" d="M271.912,88.968c-.107.072-.3-.023-.421-.211s-.139-.4-.031-.471.3.024.421.212S272.02,88.9,271.912,88.968Z" transform="translate(-264.71 -81.928)" fill="#fffefd"/>
      </g>
      <g id="Group_227" data-name="Group 227" transform="translate(30.226 9.605)">
        <g id="Group_226" data-name="Group 226">
          <path id="Path_1212" data-name="Path 1212" d="M270.123,69.515a7,7,0,0,1-1.733,3.857,7.25,7.25,0,0,1-1.753-3.859c-.24-2.164.5-4.392,1.728-4.391S270.348,67.353,270.123,69.515Z" transform="translate(-266.592 -64.88)" opacity="0.37" fill="url(#radial-gradient-14)" style="mix-blend-mode: overlay;isolation: isolate"/>
          <path id="Path_1213" data-name="Path 1213" d="M270.095,68.974a6.7,6.7,0,0,1-1.673,3.7,6.936,6.936,0,0,1-1.692-3.7c-.233-2.077.487-4.217,1.668-4.215S270.311,66.9,270.095,68.974Z" transform="translate(-266.624 -64.758)" fill="#c57d1a"/>
          <path id="Path_1214" data-name="Path 1214" d="M270.019,69.12a6.161,6.161,0,0,1-1.515,3.391,6.369,6.369,0,0,1-1.534-3.392c-.21-1.9.441-3.861,1.512-3.86S270.215,67.22,270.019,69.12Z" transform="translate(-266.706 -64.926)" fill="url(#linear-gradient)"/>
          <path id="Path_1215" data-name="Path 1215" d="M269.853,71.274c-.336.916-.769,1.39-1.24,1.371-.717-.028-1.452-1.046-1.62-2.63a6.86,6.86,0,0,1-.035-.88c-.009.1-.016.2-.021.3,0,.023,0,.044,0,.066,0,.082,0,.165,0,.248,0,.054,0,.11,0,.166s0,.11.006.164c.007.112.015.225.028.338a6.369,6.369,0,0,0,1.534,3.392A5.594,5.594,0,0,0,269.853,71.274Z" transform="translate(-266.707 -66.229)" opacity="0.44" fill="url(#radial-gradient-15)" style="mix-blend-mode: overlay;isolation: isolate"/>
          <path id="Path_1216" data-name="Path 1216" d="M270.027,67.86c-.062.957-.665,1.677-1.171,1.677s-.96-.7-1.022-1.654c-.07-1.09.384-2.093,1.025-2.091S270.1,66.771,270.027,67.86Z" transform="translate(-267.008 -65.106)" opacity="0.44" fill="url(#radial-gradient-16)" style="mix-blend-mode: overlay;isolation: isolate"/>
          <path id="Path_1217" data-name="Path 1217" d="M270.051,67.76c-.088.394-.379.511-.66.27a1.513,1.513,0,0,1-.414-1.243c.07-.468.392-.614.706-.313A1.516,1.516,0,0,1,270.051,67.76Z" transform="translate(-267.392 -65.282)" fill="#fffefd" opacity="0.7"/>
        </g>
        <path id="Path_1218" data-name="Path 1218" d="M270.795,70.874c-.249-.063-.736.452-.528,1.093s.528.214.642-.238S270.984,70.921,270.795,70.874Z" transform="translate(-267.814 -66.812)" opacity="0.44" fill="url(#radial-gradient-17)" style="mix-blend-mode: overlay;isolation: isolate"/>
      </g>
      <g id="Group_229" data-name="Group 229" transform="translate(45.295 16.712)">
        <g id="Group_228" data-name="Group 228">
          <path id="Path_1219" data-name="Path 1219" d="M291.123,78a3.49,3.49,0,0,1-1.255,1.745,3.619,3.619,0,0,1-.538-2.087c.08-1.1.674-2.131,1.3-2.011S291.443,76.952,291.123,78Z" transform="translate(-289.324 -75.522)" opacity="0.37" fill="url(#radial-gradient-18)" style="mix-blend-mode: overlay;isolation: isolate"/>
          <path id="Path_1220" data-name="Path 1220" d="M291.167,77.73a3.333,3.333,0,0,1-1.209,1.674,3.464,3.464,0,0,1-.523-2c.077-1.054.648-2.045,1.256-1.928S291.475,76.721,291.167,77.73Z" transform="translate(-289.359 -75.462)" fill="#c57d1a"/>
          <path id="Path_1221" data-name="Path 1221" d="M291.122,77.726a3.031,3.031,0,0,1-1.045,1.5,3.139,3.139,0,0,1-.431-1.784c.073-.941.568-1.83,1.086-1.73S291.392,76.824,291.122,77.726Z" transform="translate(-289.43 -75.544)" fill="url(#linear-gradient-13)"/>
          <path id="Path_1222" data-name="Path 1222" d="M290.964,78.687c-.247.412-.5.6-.727.549-.345-.08-.607-.64-.542-1.423a3.6,3.6,0,0,1,.063-.429c-.013.048-.026.1-.037.146l-.007.031c-.009.04-.017.08-.024.12s-.009.054-.014.082-.009.052-.012.079c-.007.056-.013.111-.017.167a3.139,3.139,0,0,0,.431,1.784A2.758,2.758,0,0,0,290.964,78.687Z" transform="translate(-289.43 -76.108)" opacity="0.44" fill="url(#radial-gradient-19)" style="mix-blend-mode: overlay;isolation: isolate"/>
          <path id="Path_1223" data-name="Path 1223" d="M291.314,77.093c-.117.458-.476.751-.721.7s-.4-.426-.343-.895c.066-.534.378-.977.688-.918S291.449,76.573,291.314,77.093Z" transform="translate(-289.632 -75.636)" opacity="0.44" fill="url(#radial-gradient-20)" style="mix-blend-mode: overlay;isolation: isolate"/>
          <path id="Path_1224" data-name="Path 1224" d="M291.4,77.018c-.078.183-.23.212-.343.07a.742.742,0,0,1-.087-.64c.077-.22.246-.262.371-.088A.743.743,0,0,1,291.4,77.018Z" transform="translate(-289.866 -75.727)" fill="#fffefd" opacity="0.7"/>
        </g>
        <path id="Path_1225" data-name="Path 1225" d="M291.469,78.6c-.115-.054-.4.15-.357.481s.237.153.333-.056S291.556,78.643,291.469,78.6Z" transform="translate(-289.925 -76.515)" opacity="0.44" fill="url(#radial-gradient-21)" style="mix-blend-mode: overlay;isolation: isolate"/>
      </g>
      <g id="Group_231" data-name="Group 231" transform="translate(16.841 16.723)">
        <g id="Group_230" data-name="Group 230">
          <path id="Path_1226" data-name="Path 1226" d="M246.572,78.011a3.535,3.535,0,0,0,1.227,1.71,3.294,3.294,0,0,0,.557-1.981c-.067-1.1-.666-2.18-1.311-2.065S246.246,76.973,246.572,78.011Z" transform="translate(-246.405 -75.541)" opacity="0.37" fill="url(#radial-gradient-22)" style="mix-blend-mode: overlay;isolation: isolate"/>
          <path id="Path_1227" data-name="Path 1227" d="M246.559,77.741a3.4,3.4,0,0,0,1.187,1.647,3.18,3.18,0,0,0,.539-1.914c-.064-1.064-.642-2.1-1.265-1.987S246.245,76.74,246.559,77.741Z" transform="translate(-246.403 -75.478)" fill="#c57d1a"/>
          <path id="Path_1228" data-name="Path 1228" d="M246.679,77.726a3.03,3.03,0,0,0,1.045,1.5,3.138,3.138,0,0,0,.432-1.784c-.074-.941-.568-1.83-1.087-1.73S246.41,76.824,246.679,77.726Z" transform="translate(-246.451 -75.555)" fill="url(#linear-gradient-14)"/>
          <path id="Path_1229" data-name="Path 1229" d="M246.986,78.687c.247.412.5.6.727.549.345-.08.607-.64.542-1.423a3.462,3.462,0,0,0-.063-.429c.013.048.026.1.037.146,0,.01,0,.021.007.031.009.04.018.08.025.12s.009.054.014.082.008.052.012.079c.007.056.013.111.018.167a3.138,3.138,0,0,1-.432,1.784A2.758,2.758,0,0,1,246.986,78.687Z" transform="translate(-246.599 -76.119)" opacity="0.44" fill="url(#radial-gradient-23)" style="mix-blend-mode: overlay;isolation: isolate"/>
          <path id="Path_1230" data-name="Path 1230" d="M246.74,77.093c.118.458.477.751.722.7s.4-.426.343-.895c-.066-.534-.379-.977-.689-.918S246.6,76.573,246.74,77.093Z" transform="translate(-246.502 -75.647)" opacity="0.44" fill="url(#radial-gradient-24)" style="mix-blend-mode: overlay;isolation: isolate"/>
          <path id="Path_1231" data-name="Path 1231" d="M246.962,77.018c.079.183.23.212.343.07a.742.742,0,0,0,.087-.64c-.077-.22-.246-.262-.371-.088A.745.745,0,0,0,246.962,77.018Z" transform="translate(-246.574 -75.738)" fill="#fffefd" opacity="0.7"/>
        </g>
        <path id="Path_1232" data-name="Path 1232" d="M246.941,78.6c.115-.054.4.15.357.481s-.237.153-.333-.056S246.854,78.643,246.941,78.6Z" transform="translate(-246.565 -76.525)" opacity="0.44" fill="url(#radial-gradient-25)" style="mix-blend-mode: overlay;isolation: isolate"/>
      </g>
      <g id="Group_232" data-name="Group 232" transform="translate(39.739 24.639)">
        <path id="Path_1233" data-name="Path 1233" d="M282.6,89.616c-.131,1.171-.6,2.079-1.052,2.028s-.707-1.04-.575-2.211.6-2.079,1.052-2.029S282.736,88.446,282.6,89.616Z" transform="translate(-280.942 -87.402)" fill="#c57d1a" opacity="0.48"/>
        <path id="Path_1234" data-name="Path 1234" d="M282.6,89.474c-.088.785-.4,1.394-.705,1.36s-.474-.7-.385-1.483.4-1.395.7-1.362S282.686,88.687,282.6,89.474Z" transform="translate(-281.125 -87.599)" fill="#c57d1a"/>
        <path id="Path_1235" data-name="Path 1235" d="M281.618,91.988c-.449-.051-.707-1.041-.575-2.212a5.261,5.261,0,0,1,.09-.544,5.231,5.231,0,0,0-.156.816c-.131,1.171.127,2.161.575,2.211.377.043.768-.59.962-1.483C282.305,91.524,281.956,92.026,281.618,91.988Z" transform="translate(-280.942 -88.017)" opacity="0.44" fill="url(#radial-gradient-26)" style="mix-blend-mode: overlay;isolation: isolate"/>
      </g>
      <g id="Group_233" data-name="Group 233" transform="translate(49.704 24.01)">
        <path id="Path_1236" data-name="Path 1236" d="M297.416,88.368c-.18.985-.631,1.727-1.009,1.658s-.539-.923-.359-1.907.63-1.727,1.009-1.658S297.595,87.383,297.416,88.368Z" transform="translate(-295.974 -86.455)" fill="#c57d1a" opacity="0.48"/>
        <path id="Path_1237" data-name="Path 1237" d="M297.442,88.371c-.121.66-.424,1.159-.678,1.112s-.362-.619-.241-1.28.424-1.159.677-1.113S297.562,87.709,297.442,88.371Z" transform="translate(-296.142 -86.668)" fill="#c57d1a"/>
        <path id="Path_1238" data-name="Path 1238" d="M296.479,90.3c-.378-.069-.538-.923-.36-1.908a4.686,4.686,0,0,1,.109-.456,4.253,4.253,0,0,0-.18.683c-.18.984-.019,1.839.359,1.907.317.058.684-.455.9-1.2C297.088,89.942,296.762,90.346,296.479,90.3Z" transform="translate(-295.974 -86.951)" opacity="0.44" fill="url(#radial-gradient-27)" style="mix-blend-mode: overlay;isolation: isolate"/>
      </g>
      <g id="Group_234" data-name="Group 234" transform="translate(22.724 24.639)">
        <path id="Path_1239" data-name="Path 1239" d="M255.311,89.616c.131,1.171.6,2.079,1.052,2.028s.707-1.04.575-2.211-.6-2.079-1.052-2.029S255.179,88.446,255.311,89.616Z" transform="translate(-255.276 -87.402)" fill="#c57d1a" opacity="0.48"/>
        <path id="Path_1240" data-name="Path 1240" d="M255.6,89.474c.088.785.4,1.394.706,1.36s.475-.7.386-1.483-.4-1.395-.705-1.362S255.513,88.687,255.6,89.474Z" transform="translate(-255.378 -87.599)" fill="#c57d1a"/>
        <path id="Path_1241" data-name="Path 1241" d="M256.36,91.988c.449-.051.707-1.041.575-2.212a5.256,5.256,0,0,0-.089-.544,5.386,5.386,0,0,1,.156.816c.132,1.171-.126,2.161-.575,2.211-.377.043-.768-.59-.962-1.483C255.673,91.524,256.022,92.026,256.36,91.988Z" transform="translate(-255.34 -88.017)" opacity="0.44" fill="url(#radial-gradient-28)" style="mix-blend-mode: overlay;isolation: isolate"/>
      </g>
      <g id="Group_235" data-name="Group 235" transform="translate(12.68 24.01)">
        <path id="Path_1242" data-name="Path 1242" d="M240.2,88.368c.18.985.631,1.727,1.01,1.658s.538-.923.359-1.907-.63-1.727-1.01-1.658S240.02,87.383,240.2,88.368Z" transform="translate(-240.126 -86.455)" fill="#c57d1a" opacity="0.48"/>
        <path id="Path_1243" data-name="Path 1243" d="M240.427,88.371c.121.66.424,1.159.678,1.112s.361-.619.241-1.28-.424-1.159-.677-1.113S240.306,87.709,240.427,88.371Z" transform="translate(-240.211 -86.668)" fill="#c57d1a"/>
        <path id="Path_1244" data-name="Path 1244" d="M241.228,90.3c.378-.069.539-.923.359-1.908a4.5,4.5,0,0,0-.107-.456,4.393,4.393,0,0,1,.18.683c.179.984.018,1.839-.359,1.907-.318.058-.685-.455-.9-1.2C240.62,89.942,240.945,90.346,241.228,90.3Z" transform="translate(-240.218 -86.951)" opacity="0.44" fill="url(#radial-gradient-29)" style="mix-blend-mode: overlay;isolation: isolate"/>
      </g>
      <g id="Group_236" data-name="Group 236" transform="translate(31 35.466)">
        <path id="Path_1245" data-name="Path 1245" d="M269.771,105a1,1,0,1,1-1-1A1,1,0,0,1,269.771,105Z" transform="translate(-267.767 -103.808)" opacity="0.44" fill="url(#radial-gradient-30)" style="mix-blend-mode: overlay;isolation: isolate"/>
        <ellipse id="Ellipse_44" data-name="Ellipse 44" cx="0.996" cy="0.998" rx="0.996" ry="0.998" fill="#c57d1a"/>
        <ellipse id="Ellipse_45" data-name="Ellipse 45" cx="0.856" cy="0.857" rx="0.856" ry="0.857" transform="translate(0.152 0.125)" fill="url(#linear-gradient-2)"/>
        <path id="Path_1246" data-name="Path 1246" d="M268.884,105.767a.857.857,0,0,1-.857-.857.805.805,0,0,1,.031-.221.842.842,0,0,0-.068.333.855.855,0,0,0,1.682.221A.855.855,0,0,1,268.884,105.767Z" transform="translate(-267.838 -104.039)" opacity="0.44" fill="url(#radial-gradient-31)" style="mix-blend-mode: overlay;isolation: isolate"/>
        <path id="Path_1247" data-name="Path 1247" d="M269.589,104.425a.532.532,0,1,1-.523-.432A.484.484,0,0,1,269.589,104.425Z" transform="translate(-268.025 -103.805)" opacity="0.44" fill="url(#radial-gradient-32)" style="mix-blend-mode: overlay;isolation: isolate"/>
        <path id="Path_1248" data-name="Path 1248" d="M269.671,104.388c-.034.092-.182.119-.329.062s-.237-.177-.2-.268.182-.119.329-.062S269.706,104.3,269.671,104.388Z" transform="translate(-268.223 -103.838)" fill="#fffefd" opacity="0.7"/>
      </g>
      <g id="Group_237" data-name="Group 237" transform="translate(37.593 35.479)">
        <path id="Path_1249" data-name="Path 1249" d="M279.716,105.021a1,1,0,1,1-1-1A1,1,0,0,1,279.716,105.021Z" transform="translate(-277.712 -103.828)" opacity="0.44" fill="url(#radial-gradient-33)" style="mix-blend-mode: overlay;isolation: isolate"/>
        <path id="Path_1250" data-name="Path 1250" d="M279.7,104.727a1,1,0,1,1-1-1A1,1,0,0,1,279.7,104.727Z" transform="translate(-277.706 -103.73)" fill="#c57d1a"/>
        <ellipse id="Ellipse_46" data-name="Ellipse 46" cx="0.856" cy="0.857" rx="0.856" ry="0.857" transform="translate(0.152 0.125)" fill="url(#linear-gradient-2)"/>
        <path id="Path_1251" data-name="Path 1251" d="M278.829,105.786a.856.856,0,0,1-.856-.856.873.873,0,0,1,.03-.222.866.866,0,0,0-.066.333.855.855,0,0,0,1.681.221A.856.856,0,0,1,278.829,105.786Z" transform="translate(-277.784 -104.059)" opacity="0.44" fill="url(#radial-gradient-34)" style="mix-blend-mode: overlay;isolation: isolate"/>
        <path id="Path_1252" data-name="Path 1252" d="M279.535,104.445a.532.532,0,1,1-.523-.432A.484.484,0,0,1,279.535,104.445Z" transform="translate(-277.97 -103.825)" opacity="0.44" fill="url(#radial-gradient-35)" style="mix-blend-mode: overlay;isolation: isolate"/>
        <path id="Path_1253" data-name="Path 1253" d="M279.616,104.408c-.035.09-.183.118-.329.061s-.238-.176-.2-.268.182-.119.329-.062S279.651,104.316,279.616,104.408Z" transform="translate(-278.168 -103.858)" fill="#fffefd" opacity="0.7"/>
      </g>
      <g id="Group_238" data-name="Group 238" transform="translate(24.858 35.247)">
        <path id="Path_1254" data-name="Path 1254" d="M260.507,104.672a1,1,0,1,1-1-1A1,1,0,0,1,260.507,104.672Z" transform="translate(-258.502 -103.479)" opacity="0.44" fill="url(#radial-gradient-36)" style="mix-blend-mode: overlay;isolation: isolate"/>
        <path id="Path_1255" data-name="Path 1255" d="M260.489,104.379a1,1,0,1,1-1-1A1,1,0,0,1,260.489,104.379Z" transform="translate(-258.496 -103.38)" fill="#c57d1a"/>
        <path id="Path_1256" data-name="Path 1256" d="M260.438,104.426a.856.856,0,1,1-.857-.857A.857.857,0,0,1,260.438,104.426Z" transform="translate(-258.574 -103.444)" fill="url(#linear-gradient-17)"/>
        <path id="Path_1257" data-name="Path 1257" d="M259.619,105.437a.855.855,0,0,1-.826-1.079.874.874,0,0,0-.067.333.855.855,0,0,0,1.682.221A.857.857,0,0,1,259.619,105.437Z" transform="translate(-258.574 -103.709)" opacity="0.44" fill="url(#radial-gradient-37)" style="mix-blend-mode: overlay;isolation: isolate"/>
        <path id="Path_1258" data-name="Path 1258" d="M260.325,104.1a.533.533,0,1,1-.524-.432A.484.484,0,0,1,260.325,104.1Z" transform="translate(-258.76 -103.475)" opacity="0.44" fill="url(#radial-gradient-38)" style="mix-blend-mode: overlay;isolation: isolate"/>
        <path id="Path_1259" data-name="Path 1259" d="M260.407,104.059c-.036.091-.184.118-.329.061s-.238-.177-.2-.268.182-.119.329-.062S260.441,103.968,260.407,104.059Z" transform="translate(-258.958 -103.508)" fill="#fffefd" opacity="0.7"/>
      </g>
      <g id="Group_239" data-name="Group 239" transform="translate(19.386 34.74)">
        <path id="Path_1260" data-name="Path 1260" d="M252.252,103.908a1,1,0,1,1-1-1A1,1,0,0,1,252.252,103.908Z" transform="translate(-250.247 -102.714)" opacity="0.44" fill="url(#radial-gradient-39)" style="mix-blend-mode: overlay;isolation: isolate"/>
        <path id="Path_1261" data-name="Path 1261" d="M252.234,103.614a1,1,0,1,1-1-1A1,1,0,0,1,252.234,103.614Z" transform="translate(-250.241 -102.616)" fill="#c57d1a"/>
        <path id="Path_1262" data-name="Path 1262" d="M252.183,103.663a.857.857,0,1,1-.857-.858A.857.857,0,0,1,252.183,103.663Z" transform="translate(-250.318 -102.68)" fill="url(#linear-gradient-18)"/>
        <path id="Path_1263" data-name="Path 1263" d="M251.363,104.674a.855.855,0,0,1-.826-1.079.867.867,0,0,0-.067.333.856.856,0,0,0,1.683.221A.857.857,0,0,1,251.363,104.674Z" transform="translate(-250.318 -102.945)" opacity="0.44" fill="url(#radial-gradient-40)" style="mix-blend-mode: overlay;isolation: isolate"/>
        <path id="Path_1264" data-name="Path 1264" d="M252.069,103.331a.532.532,0,1,1-.523-.432A.484.484,0,0,1,252.069,103.331Z" transform="translate(-250.505 -102.711)" opacity="0.44" fill="url(#radial-gradient-41)" style="mix-blend-mode: overlay;isolation: isolate"/>
        <path id="Path_1265" data-name="Path 1265" d="M252.151,103.294c-.035.092-.183.119-.329.062s-.237-.176-.2-.268.182-.119.33-.062S252.186,103.2,252.151,103.294Z" transform="translate(-250.703 -102.744)" fill="#fffefd" opacity="0.7"/>
      </g>
      <g id="Group_240" data-name="Group 240" transform="translate(13.761 33.61)">
        <path id="Path_1266" data-name="Path 1266" d="M243.767,102.207a1,1,0,1,1-1-1A1,1,0,0,1,243.767,102.207Z" transform="translate(-241.762 -101.014)" opacity="0.44" fill="url(#radial-gradient-42)" style="mix-blend-mode: overlay;isolation: isolate"/>
        <ellipse id="Ellipse_47" data-name="Ellipse 47" cx="0.996" cy="0.998" rx="0.996" ry="0.998" fill="#c57d1a"/>
        <path id="Path_1267" data-name="Path 1267" d="M243.7,101.962a.856.856,0,1,1-.857-.858A.857.857,0,0,1,243.7,101.962Z" transform="translate(-241.833 -100.979)" fill="url(#linear-gradient-19)"/>
        <path id="Path_1268" data-name="Path 1268" d="M242.879,102.972a.856.856,0,0,1-.856-.857.835.835,0,0,1,.03-.221.867.867,0,0,0-.068.333.856.856,0,0,0,1.683.221A.857.857,0,0,1,242.879,102.972Z" transform="translate(-241.833 -101.244)" opacity="0.44" fill="url(#radial-gradient-43)" style="mix-blend-mode: overlay;isolation: isolate"/>
        <path id="Path_1269" data-name="Path 1269" d="M243.585,101.63a.532.532,0,1,1-.523-.432A.484.484,0,0,1,243.585,101.63Z" transform="translate(-242.02 -101.01)" opacity="0.44" fill="url(#radial-gradient-44)" style="mix-blend-mode: overlay;isolation: isolate"/>
        <path id="Path_1270" data-name="Path 1270" d="M243.666,101.593c-.034.092-.182.12-.329.062s-.237-.177-.2-.268.182-.119.329-.062S243.7,101.5,243.666,101.593Z" transform="translate(-242.218 -101.043)" fill="#fffefd" opacity="0.7"/>
      </g>
      <g id="Group_241" data-name="Group 241" transform="translate(8.883 32.629)">
        <path id="Path_1271" data-name="Path 1271" d="M236.257,100.631a.922.922,0,1,1-.921-.923A.922.922,0,0,1,236.257,100.631Z" transform="translate(-234.403 -99.528)" opacity="0.44" fill="url(#radial-gradient-45)" style="mix-blend-mode: overlay;isolation: isolate"/>
        <path id="Path_1272" data-name="Path 1272" d="M236.241,100.36a.921.921,0,1,1-.922-.923A.922.922,0,0,1,236.241,100.36Z" transform="translate(-234.398 -99.437)" fill="#c57d1a"/>
        <path id="Path_1273" data-name="Path 1273" d="M236.193,100.4a.793.793,0,1,1-.792-.794A.792.792,0,0,1,236.193,100.4Z" transform="translate(-234.469 -99.495)" fill="url(#linear-gradient-20)"/>
        <path id="Path_1274" data-name="Path 1274" d="M235.435,101.34a.793.793,0,0,1-.792-.794.836.836,0,0,1,.027-.2.807.807,0,0,0-.062.309.792.792,0,0,0,1.557.2A.792.792,0,0,1,235.435,101.34Z" transform="translate(-234.469 -99.741)" opacity="0.44" fill="url(#radial-gradient-46)" style="mix-blend-mode: overlay;isolation: isolate"/>
        <path id="Path_1275" data-name="Path 1275" d="M236.089,100.1a.492.492,0,1,1-.484-.4A.448.448,0,0,1,236.089,100.1Z" transform="translate(-234.642 -99.525)" opacity="0.44" fill="url(#radial-gradient-47)" style="mix-blend-mode: overlay;isolation: isolate"/>
        <path id="Path_1276" data-name="Path 1276" d="M236.164,100.064c-.032.084-.168.11-.3.057s-.219-.163-.186-.248.168-.11.3-.057S236.2,99.979,236.164,100.064Z" transform="translate(-234.825 -99.555)" fill="#fffefd" opacity="0.7"/>
      </g>
      <g id="Group_242" data-name="Group 242" transform="translate(43.085 34.967)">
        <path id="Path_1277" data-name="Path 1277" d="M288,104.25a1,1,0,1,1-1-1A1,1,0,0,1,288,104.25Z" transform="translate(-285.996 -103.056)" opacity="0.44" fill="url(#radial-gradient-48)" style="mix-blend-mode: overlay;isolation: isolate"/>
        <path id="Path_1278" data-name="Path 1278" d="M287.983,103.956a1,1,0,1,1-1-1A1,1,0,0,1,287.983,103.956Z" transform="translate(-285.99 -102.958)" fill="#c57d1a"/>
        <path id="Path_1279" data-name="Path 1279" d="M287.932,104a.856.856,0,1,1-.856-.857A.857.857,0,0,1,287.932,104Z" transform="translate(-286.068 -103.022)" fill="url(#linear-gradient-21)"/>
        <path id="Path_1280" data-name="Path 1280" d="M287.113,105.015a.854.854,0,0,1-.827-1.078.866.866,0,0,0-.066.333.855.855,0,0,0,1.682.222A.856.856,0,0,1,287.113,105.015Z" transform="translate(-286.068 -103.287)" opacity="0.44" fill="url(#radial-gradient-49)" style="mix-blend-mode: overlay;isolation: isolate"/>
        <path id="Path_1281" data-name="Path 1281" d="M287.819,103.673a.532.532,0,1,1-.523-.432A.484.484,0,0,1,287.819,103.673Z" transform="translate(-286.254 -103.053)" opacity="0.44" fill="url(#radial-gradient-50)" style="mix-blend-mode: overlay;isolation: isolate"/>
        <path id="Path_1282" data-name="Path 1282" d="M287.9,103.636c-.036.091-.183.119-.329.062s-.238-.177-.2-.268.183-.119.33-.062S287.936,103.545,287.9,103.636Z" transform="translate(-286.452 -103.086)" fill="#fffefd" opacity="0.7"/>
      </g>
      <g id="Group_243" data-name="Group 243" transform="translate(48.629 33.906)">
        <path id="Path_1283" data-name="Path 1283" d="M296.363,102.652a1,1,0,1,1-1-1A1,1,0,0,1,296.363,102.652Z" transform="translate(-294.359 -101.458)" opacity="0.44" fill="url(#radial-gradient-51)" style="mix-blend-mode: overlay;isolation: isolate"/>
        <path id="Path_1284" data-name="Path 1284" d="M296.345,102.359a1,1,0,1,1-1-1A1,1,0,0,1,296.345,102.359Z" transform="translate(-294.353 -101.36)" fill="#c57d1a"/>
        <path id="Path_1285" data-name="Path 1285" d="M296.294,102.407a.856.856,0,1,1-.856-.857A.856.856,0,0,1,296.294,102.407Z" transform="translate(-294.43 -101.424)" fill="url(#linear-gradient-22)"/>
        <path id="Path_1286" data-name="Path 1286" d="M295.476,103.418a.856.856,0,0,1-.856-.857.843.843,0,0,1,.03-.222.844.844,0,0,0-.068.333.855.855,0,0,0,1.682.221A.854.854,0,0,1,295.476,103.418Z" transform="translate(-294.43 -101.689)" opacity="0.44" fill="url(#radial-gradient-52)" style="mix-blend-mode: overlay;isolation: isolate"/>
        <path id="Path_1287" data-name="Path 1287" d="M296.181,102.076a.532.532,0,1,1-.523-.432A.483.483,0,0,1,296.181,102.076Z" transform="translate(-294.617 -101.455)" opacity="0.44" fill="url(#radial-gradient-53)" style="mix-blend-mode: overlay;isolation: isolate"/>
        <path id="Path_1288" data-name="Path 1288" d="M296.263,102.039c-.035.091-.182.118-.329.061s-.237-.176-.2-.268.183-.119.33-.062S296.3,101.948,296.263,102.039Z" transform="translate(-294.815 -101.488)" fill="#fffefd" opacity="0.7"/>
      </g>
      <g id="Group_244" data-name="Group 244" transform="translate(53.363 32.579)">
        <path id="Path_1289" data-name="Path 1289" d="M303.176,100.443a.834.834,0,1,1-.833-.835A.834.834,0,0,1,303.176,100.443Z" transform="translate(-301.499 -99.445)" opacity="0.44" fill="url(#radial-gradient-54)" style="mix-blend-mode: overlay;isolation: isolate"/>
        <path id="Path_1290" data-name="Path 1290" d="M303.161,100.2a.834.834,0,1,1-.834-.835A.835.835,0,0,1,303.161,100.2Z" transform="translate(-301.494 -99.362)" fill="#c57d1a"/>
        <ellipse id="Ellipse_48" data-name="Ellipse 48" cx="0.716" cy="0.717" rx="0.716" ry="0.717" transform="translate(0.128 0.105)" fill="url(#linear-gradient-2)"/>
        <path id="Path_1291" data-name="Path 1291" d="M302.434,101.083a.716.716,0,0,1-.716-.717.746.746,0,0,1,.025-.185.736.736,0,0,0-.055.279.715.715,0,0,0,1.407.185A.715.715,0,0,1,302.434,101.083Z" transform="translate(-301.559 -99.637)" opacity="0.44" fill="url(#radial-gradient-55)" style="mix-blend-mode: overlay;isolation: isolate"/>
        <path id="Path_1292" data-name="Path 1292" d="M303.024,99.962a.446.446,0,1,1-.438-.36A.405.405,0,0,1,303.024,99.962Z" transform="translate(-301.715 -99.442)" opacity="0.44" fill="url(#radial-gradient-56)" style="mix-blend-mode: overlay;isolation: isolate"/>
        <path id="Path_1293" data-name="Path 1293" d="M303.092,99.931c-.029.076-.152.1-.275.051s-.2-.148-.169-.224.153-.1.276-.052S303.121,99.854,303.092,99.931Z" transform="translate(-301.881 -99.47)" fill="#fffefd" opacity="0.7"/>
      </g>
      <path id="Path_1294" data-name="Path 1294" d="M276.4,73.214s1.753,3.795,4.468,4.021,4.071-2.832,4.071-2.832S281.262,80.464,276.4,73.214Z" transform="translate(-239.672 -57.995)" fill="#fffefd"/>
      <path id="Path_1295" data-name="Path 1295" d="M267.7,107.126c1.978-.11,3.952-.238,5.925-.374.986-.074,1.972-.143,2.955-.232s1.968-.177,2.947-.295a58.227,58.227,0,0,0,5.839-.943c.964-.21,1.924-.44,2.878-.7s1.9-.541,2.837-.866a35.069,35.069,0,0,1-5.643,1.875c-.964.24-1.938.436-2.914.617-.98.165-1.964.31-2.95.422-1.972.222-3.951.357-5.931.438S269.679,107.173,267.7,107.126Z" transform="translate(-236.739 -68.247)" fill="#fffefd"/>
      <path id="Path_1296" data-name="Path 1296" d="M262.162,76.045c-.176-.247-.3-.9.768-.937s1.1,2.009.268,3.281-3.488,5.291-4.915,5.022c-1.771-.335-1.3-2.444-.1-2.377,1.047.058.769,1.072.2.937s-.268-.5-.268-.5a.772.772,0,0,0-.334,1.137c.468.737.635-.2,1.27-.167s1.437-.937,2.474-2.343A7.045,7.045,0,0,0,263,77.518c.067-.469,0-.5.167-.669a1.032,1.032,0,0,0,0-.938c-.134-.133-.167.235-.434.3A.539.539,0,0,1,262.162,76.045Z" transform="translate(-233.172 -58.631)" fill="#c57d1a"/>
      <path id="Path_1297" data-name="Path 1297" d="M272.948,76.045c.174-.247.3-.9-.77-.937s-1.1,2.009-.267,3.281,3.488,5.291,4.914,5.022c1.772-.335,1.3-2.444.1-2.377-1.049.058-.77,1.072-.2.937s.267-.5.267-.5a.773.773,0,0,1,.335,1.137c-.468.737-.635-.2-1.271-.167s-1.437-.937-2.473-2.343a7.023,7.023,0,0,1-1.471-2.579c-.067-.469,0-.5-.167-.669a1.031,1.031,0,0,1,0-.938c.133-.133.167.235.434.3A.541.541,0,0,0,272.948,76.045Z" transform="translate(-237.962 -58.631)" fill="#c57d1a"/>
      <path id="Path_1298" data-name="Path 1298" d="M262.162,101.073c-.176.247-.3.9.768.937s1.1-2.009.268-3.282-3.488-5.29-4.915-5.021c-1.771.335-1.3,2.444-.1,2.377,1.047-.058.769-1.072.2-.937s-.268.5-.268.5a.774.774,0,0,1-.334-1.139c.468-.736.635.2,1.27.167s1.437.937,2.474,2.344A7.034,7.034,0,0,1,263,99.6c.067.468,0,.5.167.669a1.031,1.031,0,0,1,0,.937c-.134.133-.167-.235-.434-.3A.536.536,0,0,0,262.162,101.073Z" transform="translate(-233.172 -64.878)" fill="#c57d1a"/>
      <path id="Path_1299" data-name="Path 1299" d="M272.948,101.073c.174.247.3.9-.77.937s-1.1-2.009-.267-3.282,3.488-5.29,4.914-5.021c1.772.335,1.3,2.444.1,2.377-1.049-.058-.77-1.072-.2-.937s.267.5.267.5a.774.774,0,0,0,.335-1.139c-.468-.736-.635.2-1.271.167s-1.437.937-2.473,2.344a7.013,7.013,0,0,0-1.471,2.579c-.067.468,0,.5-.167.669a1.029,1.029,0,0,0,0,.937c.133.133.167-.235.434-.3A.537.537,0,0,1,272.948,101.073Z" transform="translate(-237.962 -64.878)" fill="#c57d1a"/>
      <g id="Group_246" data-name="Group 246" transform="translate(51.96 15.449)">
        <g id="Group_245" data-name="Group 245" transform="translate(2.726 1.793)">
          <path id="Path_1300" data-name="Path 1300" d="M304.528,90.554a1.006,1.006,0,0,0,.514-.366,28.068,28.068,0,0,0,3.132-5.112,3.342,3.342,0,0,0,.446-1.4,25.659,25.659,0,0,0,.2-5.7c-.044-.418-.141-1.032-.451-1a.844.844,0,0,0-.547.347,46.675,46.675,0,0,0-3.708,5.083,3.837,3.837,0,0,0-.621,1.656,40.36,40.36,0,0,0,.63,6.012c.064.339.107.554.408.477Z" transform="translate(-303.49 -76.502)" fill="#ffde28" opacity="0.45"/>
          <path id="Path_1301" data-name="Path 1301" d="M304.906,89.838a1.011,1.011,0,0,0,.513-.366,28.093,28.093,0,0,0,3.123-5.113,3.335,3.335,0,0,0,.444-1.4,25.783,25.783,0,0,0,.2-5.7c-.045-.418-.142-1.032-.449-1a.845.845,0,0,0-.546.347,46.586,46.586,0,0,0-3.7,5.084,3.842,3.842,0,0,0-.619,1.657,40.458,40.458,0,0,0,.628,6.011c.064.339.108.554.407.477Z" transform="translate(-303.618 -76.261)" fill="#c57d1a"/>
          <path id="Path_1302" data-name="Path 1302" d="M304.813,82.311a48.492,48.492,0,0,1,3.813-5.118c.207-.239.409-.2.461.1a25.677,25.677,0,0,1-.047,5.972,2.438,2.438,0,0,1-.349,1.186,25.128,25.128,0,0,1-3.238,5.188c-.208.238-.41.2-.461-.1a41.54,41.54,0,0,1-.528-6.042A2.458,2.458,0,0,1,304.813,82.311Z" transform="translate(-303.818 -76.522)" fill="url(#linear-gradient-24)"/>
          <path id="Path_1303" data-name="Path 1303" d="M304.813,82.311l.023-.035c-.086.337.029.605.3.643.323.044.733.278,1.081-.157s1.832-2.491,1.976-2.679a9.4,9.4,0,0,0,.577-2.6c.072-.368-.436.108-.732.416.2-.248.4-.483.593-.7.207-.239.409-.2.461.1.037.212.074.437.108.671-.089-.319-.165-.748-.282-.451a17.145,17.145,0,0,0-.284,2.667c.022.223.192,2.632.258,3.154s-.086.436-.074.424c.239.069.107-.17.227-.461a2.478,2.478,0,0,1-.338,1.139c.014-.127.278-.355.223-.433-.031.151,0,.017-.121.113s-1.363,1.793-1.724,2.272a7.668,7.668,0,0,0-.629.943,12.644,12.644,0,0,0-.927,1.917c-.021.163-.083.253,0,.27l.035,0-.1.119c-.208.238-.41.2-.461-.1-.009-.048-.017-.1-.025-.151a.234.234,0,0,0,.056.021.352.352,0,0,0,.328-.2,5.867,5.867,0,0,0,.81-1.943,6.853,6.853,0,0,0-.046-1.087c-.053-.568-.212-2.563-.262-2.695a1.332,1.332,0,0,0-1.146-.268.631.631,0,0,0-.242.313c0-.011,0-.022,0-.033A2.458,2.458,0,0,1,304.813,82.311Z" transform="translate(-303.818 -76.522)" opacity="0.85" fill="url(#radial-gradient-57)" style="mix-blend-mode: overlay;isolation: isolate"/>
          <path id="Path_1304" data-name="Path 1304" d="M305.687,84.212a33.947,33.947,0,0,1,2.676-3.591c.145-.168.287-.137.323.069a29.288,29.288,0,0,1,.371,4.239,1.731,1.731,0,0,1-.245.833,33.937,33.937,0,0,1-2.675,3.59c-.146.168-.287.137-.323-.068a29.294,29.294,0,0,1-.371-4.24A1.735,1.735,0,0,1,305.687,84.212Z" transform="translate(-304.148 -77.69)" fill="#371043" opacity="0.07"/>
          <path id="Path_1305" data-name="Path 1305" d="M309.3,88.333l-.648,2.112c-.285.463-.57.919-.859,1.352.245-1.035.859-2.407,1.074-3.138Z" transform="translate(-304.94 -80.318)" opacity="0.58" fill="url(#linear-gradient-25)"/>
          <path id="Path_1306" data-name="Path 1306" d="M307.909,82.543a1.744,1.744,0,0,1-.442.842c-.1.07-.565.39-.565.39s.219-.97.557-2.5c.076-.345.3-1.338.394-1.591.29-.381.578-.748.859-1.093C308.3,79.985,308.051,82.062,307.909,82.543Z" transform="translate(-304.64 -77.044)" opacity="0.58" fill="url(#linear-gradient-26)"/>
          <path id="Path_1307" data-name="Path 1307" d="M306.991,84.417a26.378,26.378,0,0,1,2.06-2.767c.113-.128.222-.1.25.054a22.391,22.391,0,0,1,.286,3.267,1.316,1.316,0,0,1-.189.641,26.033,26.033,0,0,1-2.062,2.767c-.112.129-.221.106-.249-.053a22.388,22.388,0,0,1-.284-3.267A1.32,1.32,0,0,1,306.991,84.417Z" transform="translate(-304.607 -78.045)" fill="url(#linear-gradient-27)"/>
          <path id="Path_1308" data-name="Path 1308" d="M308.261,87.176c.374.08.51.742.346,1.544-.416.57-.844,1.115-1.216,1.541-.112.129-.221.106-.249-.053-.071-.4-.131-.88-.179-1.383.01-.036.018-.07.029-.107C307.268,87.776,307.836,87.086,308.261,87.176Z" transform="translate(-304.66 -79.927)" fill="#371043" opacity="0.07"/>
          <path id="Path_1309" data-name="Path 1309" d="M307.051,90.037a2.386,2.386,0,0,0,.347.5c.116.117.853-.718,1.409-1.385-.466.655-.963,1.293-1.387,1.778-.112.129-.221.106-.249-.053C307.127,90.621,307.087,90.337,307.051,90.037Z" transform="translate(-304.69 -80.593)" fill="#fffefd" opacity="0.41"/>
          <path id="Path_1310" data-name="Path 1310" d="M306.8,85.059a1.32,1.32,0,0,1,.188-.641,26.378,26.378,0,0,1,2.06-2.767c.113-.128.222-.1.25.054a22.391,22.391,0,0,1,.286,3.267,1.151,1.151,0,0,1-.051.323c-.005-.025-.011-.053-.015-.088-.139-.957-.444-2.783-1.382-1.5a5.7,5.7,0,0,0-1.23,3.237C306.85,86.322,306.81,85.663,306.8,85.059Z" transform="translate(-304.607 -78.045)" fill="#fffefd" opacity="0.41"/>
          <path id="Path_1311" data-name="Path 1311" d="M308.477,83.8c.05.1.3-.088.547-.419s.412-.677.361-.777-.3.089-.547.419S308.425,83.7,308.477,83.8Z" transform="translate(-305.168 -78.384)" fill="#fffefd"/>
          <path id="Path_1312" data-name="Path 1312" d="M307.69,85.112c.037.071.156.012.266-.133s.168-.318.131-.389-.156-.013-.265.131S307.653,85.041,307.69,85.112Z" transform="translate(-304.902 -79.05)" fill="#fffefd"/>
        </g>
        <path id="Path_1313" data-name="Path 1313" d="M305.209,74.828c-.1-.178-.054-.773.951-1.2,1.065-.455.506,1.605-.592,3.05-1,1.315-3.653,4.8-4.547,4.821-1.053.029-.544-1.429.23-1.591.7-.147.372.616.013.617s-.113-.3-.113-.3-.564.4-.353.822.432-.23.847-.307,1.137-.911,2.165-2.2a12.448,12.448,0,0,0,1.79-2.6c.178-.459.125-.469.321-.682s.337-.829.246-.913-.219.29-.485.447S305.257,74.915,305.209,74.828Z" transform="translate(-299.73 -73.56)" fill="#c57d1a"/>
        <path id="Path_1314" data-name="Path 1314" d="M301.028,93.438c-.165.122-.4.578.249,1s1.105-1.109.892-2.346c-.21-1.219-.861-4.959-1.742-5.356-1.126-.508-1.366,1.1-.619,1.548.64.38.711-.416.343-.555s-.278.231-.278.231-.384-.6.072-.9.329.39.709.624.624,1.2.917,2.565a7.549,7.549,0,0,1,.292,2.4c-.064.37-.111.37-.05.556a.915.915,0,0,1-.21.7c-.111.052-.047-.24-.192-.39A.3.3,0,0,0,301.028,93.438Z" transform="translate(-299.377 -77.957)" fill="#c57d1a"/>
        <path id="Path_1315" data-name="Path 1315" d="M307.091,94.991s-1.584,2.3-1.311,2.462.437-.274.382-.438A14.064,14.064,0,0,1,307.091,94.991Z" transform="translate(-301.525 -80.763)" fill="#c57d1a"/>
        <path id="Path_1316" data-name="Path 1316" d="M312.535,74.232c-.117-.035-.454-.288-.4,1.08s.109,2.024.109,1.86.164-1.368.218-1.7.308.125.308-.367A1.305,1.305,0,0,0,312.535,74.232Z" transform="translate(-303.676 -73.772)" fill="#c57d1a"/>
      </g>
      <g id="Group_248" data-name="Group 248" transform="translate(3.399 15.449)">
        <g id="Group_247" data-name="Group 247" transform="translate(0.719 1.793)">
          <path id="Path_1317" data-name="Path 1317" d="M231.944,90.554a1,1,0,0,1-.514-.366,28.071,28.071,0,0,1-3.132-5.112,3.333,3.333,0,0,1-.446-1.4,25.7,25.7,0,0,1-.2-5.7c.046-.418.142-1.032.451-1a.847.847,0,0,1,.548.347,46.764,46.764,0,0,1,3.708,5.083,3.827,3.827,0,0,1,.62,1.656,40.275,40.275,0,0,1-.63,6.012c-.064.339-.107.554-.408.477Z" transform="translate(-227.331 -76.502)" fill="#ffde28" opacity="0.45"/>
          <path id="Path_1318" data-name="Path 1318" d="M231.573,89.838a1.009,1.009,0,0,1-.513-.366,28.018,28.018,0,0,1-3.122-5.113,3.326,3.326,0,0,1-.445-1.4,25.625,25.625,0,0,1-.2-5.7c.044-.418.141-1.032.449-1a.847.847,0,0,1,.545.347,46.674,46.674,0,0,1,3.7,5.084,3.85,3.85,0,0,1,.619,1.657,40.36,40.36,0,0,1-.628,6.011c-.063.339-.107.554-.406.477Z" transform="translate(-227.21 -76.261)" fill="#c57d1a"/>
          <path id="Path_1319" data-name="Path 1319" d="M231.979,82.311a48.307,48.307,0,0,0-3.813-5.118c-.207-.239-.41-.2-.461.1a25.712,25.712,0,0,0,.046,5.972,2.446,2.446,0,0,0,.349,1.186,25.045,25.045,0,0,0,3.238,5.188c.208.238.409.2.461-.1a41.627,41.627,0,0,0,.528-6.042A2.444,2.444,0,0,0,231.979,82.311Z" transform="translate(-227.323 -76.522)" fill="url(#linear-gradient-28)"/>
          <path id="Path_1320" data-name="Path 1320" d="M232.005,82.311l-.022-.035c.086.337-.03.605-.3.643-.323.044-.733.278-1.081-.157s-1.832-2.491-1.975-2.679a9.348,9.348,0,0,1-.577-2.6c-.072-.368.436.108.733.416-.2-.248-.4-.483-.594-.7-.207-.239-.41-.2-.461.1-.036.212-.074.437-.108.671.09-.319.166-.748.282-.451a17.23,17.23,0,0,1,.284,2.667c-.023.223-.192,2.632-.258,3.154s.086.436.074.424c-.239.069-.107-.17-.227-.461a2.479,2.479,0,0,0,.339,1.139c-.015-.127-.278-.355-.224-.433.032.151,0,.017.121.113s1.363,1.793,1.723,2.272a7.537,7.537,0,0,1,.63.943,12.613,12.613,0,0,1,.927,1.917c.021.163.084.253,0,.27l-.036,0,.1.119c.208.238.409.2.461-.1.009-.048.017-.1.025-.151a.244.244,0,0,1-.056.021.353.353,0,0,1-.329-.2,5.884,5.884,0,0,1-.809-1.943,6.779,6.779,0,0,1,.046-1.087c.053-.568.213-2.563.262-2.695a1.332,1.332,0,0,1,1.146-.268.635.635,0,0,1,.242.313c0-.011,0-.022,0-.033A2.444,2.444,0,0,0,232.005,82.311Z" transform="translate(-227.35 -76.522)" opacity="0.85" fill="url(#radial-gradient-58)" style="mix-blend-mode: overlay;isolation: isolate"/>
          <path id="Path_1321" data-name="Path 1321" d="M231.7,84.212a34.039,34.039,0,0,0-2.675-3.591c-.147-.168-.288-.137-.324.069a29.194,29.194,0,0,0-.371,4.239,1.723,1.723,0,0,0,.245.833,34.032,34.032,0,0,0,2.675,3.59c.147.168.288.137.324-.068a29.3,29.3,0,0,0,.371-4.24A1.728,1.728,0,0,0,231.7,84.212Z" transform="translate(-227.587 -77.69)" fill="#371043" opacity="0.07"/>
          <path id="Path_1322" data-name="Path 1322" d="M229.158,88.333l.648,2.112c.284.463.571.919.859,1.352-.245-1.035-.859-2.407-1.074-3.138Z" transform="translate(-227.867 -80.318)" opacity="0.58" fill="url(#linear-gradient-29)"/>
          <path id="Path_1323" data-name="Path 1323" d="M230.4,82.543a1.744,1.744,0,0,0,.442.842c.1.07.564.39.564.39s-.219-.97-.556-2.5c-.076-.345-.3-1.338-.392-1.591-.29-.381-.579-.748-.859-1.093C230,79.985,230.254,82.062,230.4,82.543Z" transform="translate(-228.014 -77.044)" opacity="0.58" fill="url(#linear-gradient-30)"/>
          <path id="Path_1324" data-name="Path 1324" d="M230.817,84.417a26.471,26.471,0,0,0-2.061-2.767c-.113-.128-.222-.1-.25.054a22.5,22.5,0,0,0-.284,3.267,1.322,1.322,0,0,0,.188.641,26.037,26.037,0,0,0,2.062,2.767c.112.129.222.106.249-.053a22.291,22.291,0,0,0,.285-3.267A1.32,1.32,0,0,0,230.817,84.417Z" transform="translate(-227.551 -78.045)" fill="url(#linear-gradient-31)"/>
          <path id="Path_1325" data-name="Path 1325" d="M230.092,87.176c-.375.08-.51.742-.347,1.544.416.57.845,1.115,1.216,1.541.112.129.222.106.249-.053.072-.4.131-.88.179-1.383-.009-.036-.018-.07-.029-.107C231.084,87.776,230.516,87.086,230.092,87.176Z" transform="translate(-228.041 -79.927)" fill="#371043" opacity="0.07"/>
          <path id="Path_1326" data-name="Path 1326" d="M231.28,90.037a2.369,2.369,0,0,1-.347.5c-.115.117-.853-.718-1.409-1.385.467.655.963,1.293,1.386,1.778.112.129.222.106.249-.053C231.2,90.621,231.244,90.337,231.28,90.037Z" transform="translate(-227.99 -80.593)" fill="#fffefd" opacity="0.41"/>
          <path id="Path_1327" data-name="Path 1327" d="M231.006,85.059a1.32,1.32,0,0,0-.188-.641,26.471,26.471,0,0,0-2.061-2.767c-.113-.128-.222-.1-.25.054a22.5,22.5,0,0,0-.284,3.267,1.1,1.1,0,0,0,.05.323c.005-.025.01-.053.015-.088.139-.957.443-2.783,1.383-1.5a5.7,5.7,0,0,1,1.23,3.237C230.959,86.322,231,85.663,231.006,85.059Z" transform="translate(-227.551 -78.045)" fill="#fffefd" opacity="0.41"/>
          <path id="Path_1328" data-name="Path 1328" d="M230.275,83.8c-.051.1-.3-.088-.547-.419s-.412-.677-.361-.777.3.089.546.419S230.327,83.7,230.275,83.8Z" transform="translate(-227.934 -78.384)" fill="#fffefd"/>
          <path id="Path_1329" data-name="Path 1329" d="M231.321,85.112c-.036.071-.155.012-.265-.133s-.168-.318-.131-.389.156-.013.265.131S231.358,85.041,231.321,85.112Z" transform="translate(-228.458 -79.05)" fill="#fffefd"/>
        </g>
        <path id="Path_1330" data-name="Path 1330" d="M230.809,74.828c.1-.178.053-.773-.953-1.2-1.065-.455-.505,1.605.593,3.05,1,1.315,3.653,4.8,4.547,4.821,1.053.029.544-1.429-.23-1.591-.7-.147-.372.616-.013.617s.113-.3.113-.3.564.4.353.822-.432-.23-.846-.307-1.138-.911-2.166-2.2a12.582,12.582,0,0,1-1.791-2.6c-.176-.459-.124-.469-.32-.682s-.337-.829-.246-.913.219.29.484.447S230.761,74.915,230.809,74.828Z" transform="translate(-227.191 -73.56)" fill="#c57d1a"/>
        <path id="Path_1331" data-name="Path 1331" d="M236.751,93.438c.165.122.4.578-.249,1s-1.105-1.109-.892-2.346c.21-1.219.861-4.959,1.742-5.356,1.126-.508,1.366,1.1.618,1.548-.64.38-.71-.416-.343-.555s.278.231.278.231.385-.6-.072-.9-.328.39-.708.624-.625,1.2-.917,2.565a7.527,7.527,0,0,0-.292,2.4c.064.37.111.37.05.556a.915.915,0,0,0,.21.7c.111.052.048-.24.192-.39A.3.3,0,0,1,236.751,93.438Z" transform="translate(-229.305 -77.957)" fill="#c57d1a"/>
        <path id="Path_1332" data-name="Path 1332" d="M231.45,94.991s1.584,2.3,1.311,2.462-.437-.274-.382-.438A14,14,0,0,0,231.45,94.991Z" transform="translate(-227.921 -80.763)" fill="#c57d1a"/>
        <path id="Path_1333" data-name="Path 1333" d="M226.362,74.232c.117-.035.455-.288.4,1.08s-.109,2.024-.109,1.86-.164-1.368-.219-1.7-.308.125-.308-.367A1.307,1.307,0,0,1,226.362,74.232Z" transform="translate(-226.126 -73.772)" fill="#c57d1a"/>
      </g>
      <g id="Group_249" data-name="Group 249" transform="translate(59.718 11.562)">
        <path id="Path_1334" data-name="Path 1334" d="M312.049,67.72s-.678.169-.848,1.81a23.266,23.266,0,0,0-.113,3,9.742,9.742,0,0,0,1.638-2.49C313.179,68.852,313.122,67.55,312.049,67.72Z" transform="translate(-311.079 -67.705)" fill="#c57d1a"/>
        <path id="Path_1335" data-name="Path 1335" d="M312.283,67.987c-.438.089-.616.513-.759,1.621a14.971,14.971,0,0,0-.1,2.684,5.393,5.393,0,0,0,1.466-2.228C313.265,68.989,313.237,67.793,312.283,67.987Z" transform="translate(-311.188 -67.793)" fill="url(#linear-gradient-32)"/>
        <path id="Path_1336" data-name="Path 1336" d="M312.973,68.223s-.288-.073-.361.939.162,1.717.6,1.012S313.64,68.114,312.973,68.223Z" transform="translate(-311.592 -67.877)" opacity="0.44" fill="url(#radial-gradient-59)" style="mix-blend-mode: overlay;isolation: isolate"/>
        <path id="Path_1337" data-name="Path 1337" d="M312.226,71.423c-.577.669-.559.614-.595-.831a7.209,7.209,0,0,1,.317-2.314,2.757,2.757,0,0,0-.424,1.435,14.971,14.971,0,0,0-.1,2.684,4.942,4.942,0,0,0,.9-1.076A.862.862,0,0,0,312.226,71.423Z" transform="translate(-311.188 -67.898)" opacity="0.44" fill="url(#radial-gradient-60)" style="mix-blend-mode: overlay;isolation: isolate"/>
        <path id="Path_1338" data-name="Path 1338" d="M313.606,69.344c-.079.183-.231.212-.344.07a.742.742,0,0,1-.087-.64c.078-.22.246-.262.371-.088A.744.744,0,0,1,313.606,69.344Z" transform="translate(-311.774 -67.999)" fill="#fffefd" opacity="0.7"/>
        <path id="Path_1339" data-name="Path 1339" d="M313.452,70.283a.121.121,0,1,1-.117-.153A.139.139,0,0,1,313.452,70.283Z" transform="translate(-311.8 -68.52)" fill="#fffefd"/>
        <path id="Path_1340" data-name="Path 1340" d="M312.417,71.29c0,.2-.076.37-.172.37s-.171-.166-.171-.37.076-.371.171-.371S312.417,71.085,312.417,71.29Z" transform="translate(-311.415 -68.785)" opacity="0.44" fill="url(#radial-gradient-61)" style="mix-blend-mode: overlay;isolation: isolate"/>
      </g>
      <g id="Group_250" data-name="Group 250" transform="translate(2.701 11.562)">
        <path id="Path_1341" data-name="Path 1341" d="M226.034,67.72s.678.169.848,1.81a23.271,23.271,0,0,1,.113,3,9.749,9.749,0,0,1-1.639-2.49C224.9,68.852,224.96,67.55,226.034,67.72Z" transform="translate(-225.078 -67.705)" fill="#c57d1a"/>
        <path id="Path_1342" data-name="Path 1342" d="M225.9,67.987c.438.089.616.513.759,1.621a14.973,14.973,0,0,1,.1,2.684,5.4,5.4,0,0,1-1.466-2.228C224.922,68.989,224.95,67.793,225.9,67.987Z" transform="translate(-225.073 -67.793)" fill="url(#linear-gradient-33)"/>
        <path id="Path_1343" data-name="Path 1343" d="M225.622,68.223s.288-.073.361.939-.163,1.717-.6,1.012S224.955,68.114,225.622,68.223Z" transform="translate(-225.078 -67.877)" opacity="0.44" fill="url(#radial-gradient-62)" style="mix-blend-mode: overlay;isolation: isolate"/>
        <path id="Path_1344" data-name="Path 1344" d="M226.36,71.423c.577.669.56.614.6-.831a7.241,7.241,0,0,0-.318-2.314,2.769,2.769,0,0,1,.424,1.435,14.972,14.972,0,0,1,.1,2.684,4.951,4.951,0,0,1-.9-1.076A.924.924,0,0,1,226.36,71.423Z" transform="translate(-225.473 -67.898)" opacity="0.44" fill="url(#radial-gradient-63)" style="mix-blend-mode: overlay;isolation: isolate"/>
        <path id="Path_1345" data-name="Path 1345" d="M225.189,69.344c.079.183.231.212.343.07a.742.742,0,0,0,.087-.64c-.077-.22-.247-.262-.371-.088A.746.746,0,0,0,225.189,69.344Z" transform="translate(-225.095 -67.999)" fill="#fffefd" opacity="0.7"/>
        <path id="Path_1346" data-name="Path 1346" d="M225.485,70.283a.122.122,0,1,0,.117-.153A.139.139,0,0,0,225.485,70.283Z" transform="translate(-225.212 -68.52)" fill="#fffefd"/>
        <path id="Path_1347" data-name="Path 1347" d="M226.466,71.29c0,.2.076.37.171.37s.171-.166.171-.37-.077-.371-.171-.371S226.466,71.085,226.466,71.29Z" transform="translate(-225.542 -68.785)" opacity="0.44" fill="url(#radial-gradient-64)" style="mix-blend-mode: overlay;isolation: isolate"/>
      </g>
    </g>
  </g>
</svg>
