<svg xmlns="http://www.w3.org/2000/svg" xmlns:xlink="http://www.w3.org/1999/xlink" width="28" height="32" viewBox="0 0 28 32">
  <defs>
    <radialGradient id="radial-gradient" cx="0.5" cy="0.5" r="0.51" gradientTransform="translate(-0.218 -0.11) scale(0.979 0.979)" gradientUnits="objectBoundingBox">
      <stop offset="0" stop-color="#ff731e"/>
      <stop offset="1" stop-color="#e45d20"/>
    </radialGradient>
    <radialGradient id="radial-gradient-2" cx="0.5" cy="0.5" r="0.474" gradientTransform="translate(-0.059) scale(1.118 1)" xlink:href="#radial-gradient"/>
  </defs>
  <g id="Group_208" data-name="Group 208" transform="translate(-2105.251 -408.033)">
    <g id="Group_206" data-name="Group 206" transform="translate(2105.251 408.033)">
      <path id="Path_1140" data-name="Path 1140" d="M2125.6,445.372h-14.243a6.1,6.1,0,0,1-6.1-6.093V425.06a6.1,6.1,0,0,1,6.1-6.093H2125.6a6.1,6.1,0,0,1,6.1,6.093v14.218A6.1,6.1,0,0,1,2125.6,445.372Z" transform="translate(-2105.251 -417.011)" fill="#cb3e34" style="mix-blend-mode: multiply;isolation: isolate"/>
      <path id="Path_1141" data-name="Path 1141" d="M2133.971,434.438h-14.243a6.1,6.1,0,0,1-6.1-6.093V414.126a6.1,6.1,0,0,1,6.1-6.093h14.243a6.1,6.1,0,0,1,6.1,6.093v14.218A6.1,6.1,0,0,1,2133.971,434.438Z" transform="translate(-2112.155 -408.033)" fill="url(#radial-gradient)"/>
      <path id="Path_1142" data-name="Path 1142" d="M2222.209,419.748a2.363,2.363,0,0,1,2.688-.851c2.2.633,4.1,4.151,2.221,6.068C2224.811,427.317,2220.915,421.931,2222.209,419.748Z" transform="translate(-2201.469 -416.864)" opacity="0.58" fill="url(#radial-gradient-2)" style="mix-blend-mode: screen;isolation: isolate"/>
    </g>
    <path id="Path_1143" data-name="Path 1143" d="M2163.285,446.845a7,7,0,0,1-1.5,1.964,8.074,8.074,0,0,1-2.184,1.431,6.159,6.159,0,0,1-2.552.556,5.419,5.419,0,0,1-1.426-.182,3.439,3.439,0,0,1-1.17-.556,2.651,2.651,0,0,1-.791-.954,3.038,3.038,0,0,1-.29-1.374,3.888,3.888,0,0,1,.2-1.158l3.9-.227a.854.854,0,0,0,.223.658.793.793,0,0,0,.557.2,1.552,1.552,0,0,0,.624-.148,2.7,2.7,0,0,0,.635-.4,2.191,2.191,0,0,0,.49-.568,1.351,1.351,0,0,0,.189-.7,1.325,1.325,0,0,0-.513-1,2.535,2.535,0,0,0-1.693-.454,11.776,11.776,0,0,0-1.716.125q-.847.125-1.426.17l.4-3.361q.668-.431,1.381-.92t1.293-.943q.69-.5,1.314-1.022l-3.587.068.267-3.906q2.027-.091,3.765-.182.736,0,1.5-.034t1.437-.068q.669-.034,1.214-.045t.858-.011l-.535,4.837-4.456,2.385a8.089,8.089,0,0,1,1.905.568,4.558,4.558,0,0,1,1.292.852,2.988,2.988,0,0,1,.724,1.067,3.3,3.3,0,0,1,.223,1.192A4.672,4.672,0,0,1,2163.285,446.845Z" transform="translate(-39.673 -21.166)" fill="#ff731e"/>
    <path id="Path_1144" data-name="Path 1144" d="M2170.1,446.845a7,7,0,0,1-1.5,1.964,8.074,8.074,0,0,1-2.184,1.431,6.157,6.157,0,0,1-2.551.556,5.418,5.418,0,0,1-1.426-.182,3.437,3.437,0,0,1-1.17-.556,2.651,2.651,0,0,1-.791-.954,3.038,3.038,0,0,1-.29-1.374,3.888,3.888,0,0,1,.2-1.158l3.9-.227a.855.855,0,0,0,.223.658.792.792,0,0,0,.557.2,1.55,1.55,0,0,0,.624-.148,2.691,2.691,0,0,0,.635-.4,2.192,2.192,0,0,0,.49-.568,1.351,1.351,0,0,0,.189-.7,1.325,1.325,0,0,0-.513-1,2.536,2.536,0,0,0-1.693-.454,11.778,11.778,0,0,0-1.716.125q-.847.125-1.426.17l.4-3.361q.668-.431,1.381-.92t1.292-.943q.69-.5,1.315-1.022l-3.587.068.267-3.906q2.027-.091,3.765-.182.735,0,1.5-.034t1.437-.068q.669-.034,1.214-.045t.858-.011l-.535,4.837-4.457,2.385a8.082,8.082,0,0,1,1.905.568,4.563,4.563,0,0,1,1.292.852,2.988,2.988,0,0,1,.724,1.067,3.3,3.3,0,0,1,.223,1.192A4.672,4.672,0,0,1,2170.1,446.845Z" transform="translate(-45.291 -21.166)" fill="#fff"/>
    <g id="Group_207" data-name="Group 207" transform="translate(2106.722 429.693)">
      <path id="Path_1145" data-name="Path 1145" d="M2166.981,535.695a17.451,17.451,0,0,1,.7,3.517.341.341,0,0,1-.073.212c-.359.324-3.285-1.761-3.285-1.761s-2.856,2.009-3.284,1.761.627-3.729.627-3.729-2.684-2.22-2.658-2.639,3.674-.545,3.674-.545a17.872,17.872,0,0,1,1.278-3.057c.133-.2.258-.326.364-.335.562-.039,1.642,3.392,1.642,3.392s3.474.16,3.674.545S2166.981,535.695,2166.981,535.695Z" transform="translate(-2151.043 -529.118)" fill="#feb333"/>
      <path id="Path_1146" data-name="Path 1146" d="M2167.681,540.749a.341.341,0,0,1-.073.212c-.359.324-3.285-1.761-3.285-1.761s-2.856,2.009-3.284,1.761.627-3.729.627-3.729-2.684-2.22-2.658-2.639,3.674-.545,3.674-.545a17.872,17.872,0,0,1,1.278-3.057C2162.694,537.156,2165.585,539.721,2167.681,540.749Z" transform="translate(-2151.043 -530.655)" fill="#feb333" opacity="0.48" style="mix-blend-mode: multiply;isolation: isolate"/>
      <path id="Path_1147" data-name="Path 1147" d="M2225.179,548.39a16.365,16.365,0,0,1,.528,2.445c.009.182-.005.311-.057.359-.27.244-2.47-1.324-2.47-1.324s-2.148,1.512-2.471,1.324.471-2.8.471-2.8-2.018-1.671-2-1.987,2.761-.409,2.761-.409.23-.716.511-1.389c.245-.591.527-1.149.725-1.163.423-.03,1.236,2.552,1.236,2.552s2.612.12,2.762.409S2225.179,548.39,2225.179,548.39Z" transform="translate(-2200.657 -540.88)" fill="#71678c"/>
      <path id="Path_1148" data-name="Path 1148" d="M2226.91,559.318a11.86,11.86,0,0,1-2.154-1.289l-.136-.1-.136.1a11.619,11.619,0,0,1-2.175,1.283,11.75,11.75,0,0,1,.541-2.49l.048-.157-.125-.1a16.654,16.654,0,0,1-1.843-1.716,14.244,14.244,0,0,1,2.463-.246l.167-.006.051-.162s.117-.364.283-.807c.1,3.36,1.66,4.825,3.005,5.461,0,.044.007.084.01.123S2226.912,559.289,2226.91,559.318Z" transform="translate(-2202.097 -549.239)" fill="#3d2a61" opacity="0.36"/>
      <path id="Path_1149" data-name="Path 1149" d="M2119.631,548.39a17.759,17.759,0,0,1,.519,2.339c.022.236.013.41-.048.465-.27.244-2.47-1.324-2.47-1.324s-2.148,1.512-2.47,1.324.471-2.8.471-2.8-2.018-1.671-2-1.987,2.761-.409,2.761-.409.3-.914.622-1.649c.216-.484.446-.89.614-.9.423-.03,1.236,2.552,1.236,2.552s2.612.12,2.762.409S2119.631,548.39,2119.631,548.39Z" transform="translate(-2113.634 -540.88)" fill="#feb333"/>
      <path id="Path_1150" data-name="Path 1150" d="M2120.1,555.336c-.27.244-2.47-1.324-2.47-1.324s-2.148,1.512-2.47,1.324.471-2.8.471-2.8-2.018-1.671-2-1.987,2.761-.409,2.761-.409.3-.914.622-1.649c-.639,4.9,1.752,6.1,3.132,6.383C2120.173,555.107,2120.163,555.281,2120.1,555.336Z" transform="translate(-2113.634 -545.023)" fill="#feb333" opacity="0.48" style="mix-blend-mode: multiply;isolation: isolate"/>
      <path id="Path_1151" data-name="Path 1151" d="M2225.179,548.39a16.365,16.365,0,0,1,.528,2.445c.009.182-.005.311-.057.359-.27.244-2.47-1.324-2.47-1.324s-2.148,1.512-2.471,1.324.471-2.8.471-2.8-2.018-1.671-2-1.987,2.761-.409,2.761-.409.23-.716.511-1.389c.245-.591.527-1.149.725-1.163.423-.03,1.236,2.552,1.236,2.552s2.612.12,2.762.409S2225.179,548.39,2225.179,548.39Z" transform="translate(-2219.182 -540.88)" fill="#71678c"/>
    </g>
  </g>
</svg>
