<svg xmlns="http://www.w3.org/2000/svg" xmlns:xlink="http://www.w3.org/1999/xlink" width="32" height="30" viewBox="0 0 32 30">
  <defs>
    <linearGradient id="linear-gradient" x1="0.541" y1="0.04" x2="0.378" y2="1.126" gradientUnits="objectBoundingBox">
      <stop offset="0" stop-color="#e4e8e9"/>
      <stop offset="0.267" stop-color="#e1e5e7"/>
      <stop offset="0.442" stop-color="#d8dee0"/>
      <stop offset="0.591" stop-color="#c9d1d6"/>
      <stop offset="0.725" stop-color="#b4bfc6"/>
      <stop offset="0.849" stop-color="#99a8b3"/>
      <stop offset="0.964" stop-color="#778c9b"/>
      <stop offset="1" stop-color="#6c8293"/>
    </linearGradient>
    <radialGradient id="radial-gradient" cx="0.37" cy="0.924" r="1.492" gradientTransform="translate(0.341) scale(0.317 1)" gradientUnits="objectBoundingBox">
      <stop offset="0" stop-color="#50c8e8"/>
      <stop offset="0.11" stop-color="#4ec1e1"/>
      <stop offset="0.267" stop-color="#48afce"/>
      <stop offset="0.452" stop-color="#4092af"/>
      <stop offset="0.659" stop-color="#346984"/>
      <stop offset="0.882" stop-color="#24354d"/>
      <stop offset="1" stop-color="#1c172e"/>
    </radialGradient>
    <radialGradient id="radial-gradient-2" cx="0.532" cy="0.414" r="0.824" gradientTransform="translate(0.043) scale(0.915 1)" gradientUnits="objectBoundingBox">
      <stop offset="0" stop-color="#ffd5b2"/>
      <stop offset="0.224" stop-color="#ffd5b2"/>
      <stop offset="0.371" stop-color="#ffd5b2"/>
      <stop offset="0.495" stop-color="#ffcfa7"/>
      <stop offset="0.607" stop-color="#ffcfa7"/>
      <stop offset="0.711" stop-color="#ffcfa7"/>
      <stop offset="0.809" stop-color="#ffcfa7"/>
      <stop offset="0.902" stop-color="#f68a2f"/>
      <stop offset="0.989" stop-color="#f68a2f"/>
      <stop offset="1" stop-color="#1cbeca"/>
    </radialGradient>
    <linearGradient id="linear-gradient-2" x1="0.5" x2="0.5" y2="1" gradientUnits="objectBoundingBox">
      <stop offset="0" stop-color="#f5904f"/>
      <stop offset="0.315" stop-color="#d5595b"/>
      <stop offset="1" stop-color="#b52067"/>
    </linearGradient>
    <radialGradient id="radial-gradient-3" cx="-0.04" cy="-0.437" r="1.62" gradientTransform="translate(0.057) scale(0.886 1)" gradientUnits="objectBoundingBox">
      <stop offset="0" stop-color="#1cbeca"/>
      <stop offset="0.118" stop-color="#1cb7c3"/>
      <stop offset="0.287" stop-color="#1ca4b2"/>
      <stop offset="0.486" stop-color="#1c8595"/>
      <stop offset="0.708" stop-color="#1c5a6d"/>
      <stop offset="0.947" stop-color="#1c243a"/>
      <stop offset="1" stop-color="#1c172e"/>
    </radialGradient>
  </defs>
  <g id="Group_38" data-name="Group 38" transform="translate(-393.974 -394.516)">
    <g id="Group_27" data-name="Group 27" transform="translate(393.974 394.516)">
      <path id="Path_70" data-name="Path 70" d="M395.227,417.085c.713,2.6,2.1,4.782,5.2,5.706a46.692,46.692,0,0,0,15.9,1.639,6.853,6.853,0,0,0,6.392-4.455,44.753,44.753,0,0,0,2.926-11.2c.4-3.842.674-5.556-.616-7.941-1.385-2.562-4.173-3.39-6.653-4.1-4.507-1.294-12.525-2.416-16.152-2.187-2.7.17-5.307.549-7.045,2.9-1.433,1.937-1.2,4.482-1.162,6.767.043,2.341.107,4.685.342,7.017A36.336,36.336,0,0,0,395.227,417.085Z" transform="translate(-393.974 -394.516)" fill="url(#linear-gradient)"/>
      <path id="Path_71" data-name="Path 71" d="M424.514,452.471q-.151.39-.314.789a6.854,6.854,0,0,1-6.392,4.455,46.672,46.672,0,0,1-15.9-1.64c-3.094-.924-4.482-3.108-5.2-5.706-.112-.405-.2-.823-.287-1.246l-.056.065c.095.524.205,1.041.343,1.541.713,2.6,2.1,4.782,5.2,5.706a46.692,46.692,0,0,0,15.9,1.639,6.853,6.853,0,0,0,6.392-4.455c.12-.293.233-.581.344-.868C424.533,452.658,424.521,452.566,424.514,452.471Z" transform="translate(-395.46 -428.16)" fill="url(#radial-gradient)" style="mix-blend-mode: screen;isolation: isolate"/>
      <path id="Path_72" data-name="Path 72" d="M417.471,425.788c-1.345,0-2.893-.06-3.83-.118-.954-.039-2-.133-3.261-.3a38.126,38.126,0,0,1-6-1.263c-1.975-.59-3.095-1.851-3.744-4.215a30.516,30.516,0,0,1-.745-4.9c-.261-3.9-.594-9.186-.492-10.277a4.938,4.938,0,0,1,.849-2.6c1.1-1.481,2.765-1.856,5.46-2.026.766-.049,1.546-.073,2.322-.073a46.5,46.5,0,0,1,13.165,2.071A16.968,16.968,0,0,1,424.5,403.4c3.249,1.663,2.865,4.584,2.554,6.931-.043.327-.085.652-.119.974l-.007.047c-.052.3-1.292,7.412-2.836,11.185a4.849,4.849,0,0,1-4.542,3.171A20.141,20.141,0,0,1,417.471,425.788Z" transform="translate(-397.325 -397.902)" fill="url(#radial-gradient-2)"/>
      <path id="Path_76" data-name="Path 76" d="M428.3,417.567c-.044.332-.087.666-.122.993a69.309,69.309,0,0,1-2.708,10.717,3.124,3.124,0,0,1-2.87,1.954c-.793.069-1.576.086-2.352.092a46.289,46.289,0,0,1-6.439-.418,36.21,36.21,0,0,1-5.7-1.2c-1.125-.337-1.878-.912-2.414-2.848-.62-2.243-1.024-9.178-1.094-11.17-.024-.684-.088-1.534-.1-2.345-.01.913.072,1.919.1,2.7.07,1.992.474,8.927,1.094,11.17.536,1.938,1.289,2.512,2.414,2.849a36.083,36.083,0,0,0,5.7,1.2,46.109,46.109,0,0,0,6.439.418c.776-.007,1.559-.023,2.352-.093a3.124,3.124,0,0,0,2.87-1.955,69.267,69.267,0,0,0,2.708-10.717c.035-.327.079-.66.122-.994a15.946,15.946,0,0,0,.226-2.445C428.506,416.146,428.393,416.857,428.3,417.567Z" transform="translate(-400.506 -406.117)" fill="url(#linear-gradient-2)" style="mix-blend-mode: screen;isolation: isolate"/>
      <path id="Path_78" data-name="Path 78" d="M418.184,404.284a33.062,33.062,0,0,0-9.077-.582c-1.6.119-3.484.285-4.262,1.674-.538.961-.292,3.2-.242,4.674.034.986.151,3.186.335,5.426.056.128.11.255.168.385C405.019,406.223,408.637,403.954,418.184,404.284Z" transform="translate(-400.505 -400.118)" fill="url(#radial-gradient-3)" style="mix-blend-mode: screen;isolation: isolate"/>
      <path id="Path_79" data-name="Path 79" d="M433.714,435.538a69.267,69.267,0,0,0,2.708-10.717c.035-.327.079-.66.122-.993.04-.3.084-.605.121-.9-2.679,12.8-8.044,15.161-18.868,13.44a36.84,36.84,0,0,0,4.256.8,46.118,46.118,0,0,0,6.439.418c.776-.007,1.559-.023,2.352-.093A3.125,3.125,0,0,0,433.714,435.538Z" transform="translate(-408.752 -412.019)" fill="url(#linear-gradient-2)" style="mix-blend-mode: screen;isolation: isolate"/>
      <path id="Path_80" data-name="Path 80" d="M425.47,417.045a11.373,11.373,0,0,1-4.864,1.739,15.1,15.1,0,0,1-12.4-5.212c-3.251-3.766-2.75-8.758,2.58-9.208a28.8,28.8,0,0,1,11.978,1.475c2.611.948,6.426,1.921,6.408,5.174A7.345,7.345,0,0,1,425.47,417.045Z" transform="translate(-401.542 -400.519)" fill="url(#linear-gradient-2)" style="mix-blend-mode: screen;isolation: isolate"/>
      <path id="Path_81" data-name="Path 81" d="M409.054,406.79c-.757-.736-2.8.689-2.672,1.536.147.983,2.46-.268,2.7-.783C409.249,407.188,409.211,406.942,409.054,406.79Z" transform="translate(-401.667 -401.952)" fill="#fff" opacity="0.77" style="mix-blend-mode: screen;isolation: isolate"/>
      <path id="Path_82" data-name="Path 82" d="M453.568,454.884c-.547-.532-2.021.5-1.929,1.108.106.71,1.776-.194,1.95-.565C453.708,455.17,453.681,454.992,453.568,454.884Z" transform="translate(-429.739 -431.618)" fill="#1cbeca" opacity="0.77" style="mix-blend-mode: screen;isolation: isolate"/>
      <path id="Path_83" data-name="Path 83" d="M416.6,405.123c-.423-.321-1.448.308-1,.772C416.006,406.308,417.324,405.668,416.6,405.123Z" transform="translate(-407.323 -400.997)" fill="#fff" opacity="0.77" style="mix-blend-mode: screen;isolation: isolate"/>
      <path id="Path_84" data-name="Path 84" d="M457.756,451.031c-.474-.237-1.367.57-.843.943C457.38,452.307,458.562,451.435,457.756,451.031Z" transform="translate(-432.914 -429.309)" fill="#1cbeca" opacity="0.77" style="mix-blend-mode: screen;isolation: isolate"/>
      <g id="Group_26" data-name="Group 26" transform="translate(2.96 24.43)">
        <path id="Path_86" data-name="Path 86" d="M405.948,461.888c.258-.727-1.285-1.675-1.8-1.339-.6.391.907,1.572,1.316,1.582C405.744,462.136,405.895,462.038,405.948,461.888Z" transform="translate(-403.157 -459.587)" fill="#afdfe4" opacity="0.77" style="mix-blend-mode: screen;isolation: isolate"/>
        <path id="Path_87" data-name="Path 87" d="M402.538,458.917c.193-.374-.54-1.152-.752-.526-.125.369.537.944.752.526Z" transform="translate(-401.77 -458.155)" fill="#afdfe4" opacity="0.77" style="mix-blend-mode: screen;isolation: isolate"/>
      </g>
    </g>
    <g id="Group_30" data-name="Group 30" transform="translate(402.274 400.175)">
      <path id="Path_88" data-name="Path 88" d="M424.509,428.592a2.268,2.268,0,0,1-.337-.076c-.043-.012-.085-.025-.125-.034,0,0-1.3-.318-1.579-.385-.644-.152-1.286-.311-1.929-.469-.2-.049-.4-.1-.6-.145-.4-.1-.8-.191-1.195-.3-.2-.055-.4-.1-.607-.137l-.041-.009a1.215,1.215,0,0,1-.862-.436.733.733,0,0,1-.064-.553,1.825,1.825,0,0,1,.125-.362l0-.007-.006-.069a.779.779,0,0,1-.009-.419,2.3,2.3,0,0,1,.231-.57c.024-.045.047-.091.068-.134a3.625,3.625,0,0,1,1.568-1.629,3.988,3.988,0,0,1,1.015-.373l.119-.016a4.91,4.91,0,0,1-1.2-2.3,4,4,0,0,1-3.236-3.819l0-.046a12.258,12.258,0,0,1,.052-1.617c.006-.173.018-.367.036-.553a5.388,5.388,0,0,1,.545-2.024,3.172,3.172,0,0,1,.181-.3l.049-.069a2.731,2.731,0,0,1,.182-.224l.049-.053c.086-.087.15-.15.219-.208a.75.75,0,0,1,.063-.048,2.566,2.566,0,0,1,.746-.4c.077-.026.129-.044.184-.059s.125-.028.188-.04.145-.027.219-.036.125-.014.19-.018.162-.007.247-.008c.06,0,.12,0,.181,0,.1,0,.2.013.3.024l.133.014.083.012c.017-.079.038-.168.061-.269.041-.183.077-.342.083-.38l.012-.072a.755.755,0,0,1,.537-.712,1.11,1.11,0,0,1,.4-.01,4.963,4.963,0,0,1,.6.128l.118.03c.532.13,7.245,1.793,7.672,1.923.04.012.087.023.135.034a1.173,1.173,0,0,1,.646.3.692.692,0,0,1,.155.26l.007.016.01.04a.782.782,0,0,1,.016.259,1.554,1.554,0,0,1-.029.16,1.012,1.012,0,0,1-.043.573c-.009.031-.019.063-.026.094s-.018.068-.038.139l.148.059.1.041a3.98,3.98,0,0,1,.471.244l.045.026a2.8,2.8,0,0,1,.8.745l.034.05a2.394,2.394,0,0,1,.242.456,2.872,2.872,0,0,1,.189,1.107v.051c0,.115-.01.212-.021.311a7.624,7.624,0,0,1-1.167,3.657l-.024.038a3.891,3.891,0,0,1-4,2h0c-.126-.016-.255-.035-.39-.06a4.678,4.678,0,0,1-2.182,1.568,3.957,3.957,0,0,1,.632.7,3.8,3.8,0,0,1,.68,2.149l0,.1a2.058,2.058,0,0,1-.061.7c-.012.036-.025.071-.04.106v.035a2.131,2.131,0,0,1-.064.711A.764.764,0,0,1,424.509,428.592Zm.307-9.884a.185.185,0,0,0,.119.065.188.188,0,0,0,.093-.013.176.176,0,0,0,.031-.019l-.114-1.639.082-.035-.043-.557,1.6-.667-1.756-.43-.145-2.109a.186.186,0,0,0-.137-.175h0a.192.192,0,0,0-.2.091l-1.081,1.81-1.946-.476,1.124,1.335-.225.37.18.219-.87,1.457a.2.2,0,0,0,.073-.014l1.889-.789Zm4.393-2.636c-.293.941-.6,1.8-.923,2.574.039-.013.076-.027.112-.043a1.467,1.467,0,0,0,.242-.135,1.7,1.7,0,0,0,.231-.2,2.05,2.05,0,0,0,.217-.271,2.9,2.9,0,0,0,.2-.36,4.046,4.046,0,0,0,.181-.459,3.548,3.548,0,0,0,.08-.362A.931.931,0,0,0,429.208,416.071Zm-11.114-1.13a1.677,1.677,0,0,0,.758,1.575c.008-.124.017-.248.027-.374.024-.52.077-1.12.166-1.819.031-.243.064-.487.1-.733C418.766,413.553,418.3,413.956,418.095,414.941Z" transform="translate(-415.831 -409.256)" fill="#004a61"/>
      <g id="Group_29" data-name="Group 29" transform="translate(0.422 0.427)">
        <path id="Path_89" data-name="Path 89" d="M430.066,415.341c-.021-.005.232-.895.248-.962.045-.2.162-.405.009-.574-.133-.147-.4-.164-.6-.223-.393-.121-6.96-1.75-7.648-1.918a2.747,2.747,0,0,0-.922-.146c-.209.053-.2.28-.234.46-.018.1-.248,1.09-.238,1.092-2.648-.577-3.849.971-3.738,4.614a3.636,3.636,0,0,0,3.171,3.53,4.108,4.108,0,0,0,1.913,2.936l-.024-.005-.2.821c0-.006-.881.084-.963.1a3.6,3.6,0,0,0-.912.348,3.335,3.335,0,0,0-1.4,1.484,3.1,3.1,0,0,0-.271.628.32.32,0,0,0,.014.241c.081.135.443.208.585.238.226.046.449.091.673.152.591.161,1.192.294,1.787.441q.962.238,1.924.468c.527.125,1.053.258,1.58.384.313.074.7.267.843-.17a2.21,2.21,0,0,0,.042-.679,3.47,3.47,0,0,0-.59-1.956,3.587,3.587,0,0,0-.665-.723c-.064-.053-.818-.541-.821-.527l.181-.759a3.837,3.837,0,0,0,3.12-1.763,3.546,3.546,0,0,0,4.212-1.721C432.893,417.977,432.654,416.056,430.066,415.341Zm-11.709.96c.324-1.67,1.335-2.036,2-1.57a24.745,24.745,0,0,0-.438,4.47C418.81,418.85,418.085,418.032,418.357,416.3Zm9.332,1.764-1.614.7.124,1.8a.645.645,0,0,1-.379.633.592.592,0,0,1-.695-.17l-1.12-1.366-1.612.7a.594.594,0,0,1-.7-.17.646.646,0,0,1-.05-.737l.921-1.542-1.121-1.366a.649.649,0,0,1-.051-.738.607.607,0,0,1,.663-.286l1.691.413.92-1.542a.6.6,0,0,1,1.123.274l.123,1.8,1.69.413a.614.614,0,0,1,.46.561A.637.637,0,0,1,427.69,418.064Zm2.837,1.21c-.513,1.579-1.451,2.017-2.525,1.885a26.02,26.02,0,0,0,1.612-4.216C430.35,416.957,430.961,417.747,430.526,419.275Z" transform="translate(-416.942 -411.07)" fill="#f68a2f"/>
        <path id="Path_90" data-name="Path 90" d="M430.155,414.161c-.021-.006.227-.871.242-.937.044-.191.159-.395.006-.559-.134-.144-.4-.163-.6-.221-.393-.12-6.96-1.749-7.648-1.917a2.833,2.833,0,0,0-.921-.148c-.209.051-.2.272-.231.448-.017.093-.241,1.061-.232,1.063-2.646-.578-3.837.923-3.7,4.475a3.637,3.637,0,0,0,3.187,3.462,4.066,4.066,0,0,0,1.927,2.874l-.023-.006-.191.8c0-.007-.878.076-.96.094a3.581,3.581,0,0,0-.91.334,3.231,3.231,0,0,0-1.384,1.439,2.976,2.976,0,0,0-.267.611.3.3,0,0,0,.015.234c.082.132.443.206.586.235.226.047.449.093.672.153.591.161,1.192.294,1.787.44q.961.24,1.925.469c.527.125,1.052.258,1.579.384.314.074.7.264.841-.161a2.1,2.1,0,0,0,.038-.661,3.358,3.358,0,0,0-.6-1.91,3.581,3.581,0,0,0-.668-.709c-.064-.052-.821-.533-.824-.519l.177-.738a3.8,3.8,0,0,0,3.1-1.7,3.54,3.54,0,0,0,4.2-1.652C432.993,416.748,432.743,414.874,430.155,414.161Zm-11.686.864c.314-1.626,1.321-1.976,1.989-1.518a23.432,23.432,0,0,0-.41,4.356A2.229,2.229,0,0,1,418.469,415.025ZM427.8,416.8l-1.607.67.135,1.753a.617.617,0,0,1-.375.615.6.6,0,0,1-.695-.17l-1.127-1.338-1.606.671a.6.6,0,0,1-.7-.17.62.62,0,0,1-.055-.719l.911-1.5-1.127-1.338a.618.618,0,0,1-.055-.719.606.606,0,0,1,.66-.276l1.691.415.909-1.5a.606.606,0,0,1,1.123.275l.134,1.753,1.69.413a.616.616,0,0,1,.089,1.164Zm2.839,1.2c-.5,1.538-1.436,1.958-2.51,1.824a24.748,24.748,0,0,0,1.585-4.1C430.448,415.738,431.063,416.513,430.637,418Z" transform="translate(-417.015 -410.369)" fill="#ffcfa7"/>
        <g id="Group_28" data-name="Group 28" transform="translate(0.093)">
          <path id="Path_91" data-name="Path 91" d="M425.564,419.627q-.095.58-.166,1.143.079-.56.18-1.135Z" transform="translate(-422.28 -416.073)" fill="#f7fff3"/>
          <path id="Path_92" data-name="Path 92" d="M422.125,426.285c0-.143.005-.294.008-.441a2.152,2.152,0,0,1-1.564-2.493c-.007.033-.016.063-.022.1A2.229,2.229,0,0,0,422.125,426.285Z" transform="translate(-419.238 -418.367)" fill="#f7fff3"/>
          <path id="Path_93" data-name="Path 93" d="M442.712,426.675l-1.607.67.03.39,1.525-.637a.612.612,0,0,0,.374-.614.548.548,0,0,0-.022-.091A.611.611,0,0,1,442.712,426.675Z" transform="translate(-432.022 -420.242)" fill="#f7fff3"/>
          <path id="Path_94" data-name="Path 94" d="M451.406,420.7c1.587.437,2.292,1.313,2.206,2.636.271-1.547-.393-2.557-2.108-3.045A3.18,3.18,0,0,0,451.406,420.7Z" transform="translate(-438.411 -416.479)" fill="#f7fff3"/>
          <path id="Path_95" data-name="Path 95" d="M422.293,444.753a3.6,3.6,0,0,1,.909-.332c.082-.019.961-.1.96-.094l.191-.8.024.006c-.024-.013-.042-.028-.065-.041l-.1.412c0-.007-.878.076-.96.094a3.58,3.58,0,0,0-.91.334,3.231,3.231,0,0,0-1.384,1.439,2.975,2.975,0,0,0-.267.611.306.306,0,0,0,.014.228c.059-.143.138-.282.2-.415A3.231,3.231,0,0,1,422.293,444.753Z" transform="translate(-419.351 -430.776)" fill="#f7fff3"/>
          <path id="Path_96" data-name="Path 96" d="M436.215,446.954a3.582,3.582,0,0,0-.668-.709c-.055-.044-.619-.4-.779-.5l-.1.4c0-.013.759.468.823.52a3.567,3.567,0,0,1,.669.709,3.363,3.363,0,0,1,.6,1.91c0,.081,0,.165.006.251,0-.005,0-.008.007-.015a2.1,2.1,0,0,0,.038-.661A3.358,3.358,0,0,0,436.215,446.954Z" transform="translate(-428.032 -432.166)" fill="#f7fff3"/>
          <path id="Path_97" data-name="Path 97" d="M428.535,423.163l1.007,1.2.171-.282-1.127-1.338a.613.613,0,0,1-.121-.259A.617.617,0,0,0,428.535,423.163Z" transform="translate(-424.138 -417.831)" fill="#f7fff3"/>
          <path id="Path_98" data-name="Path 98" d="M420.8,412.315c-.008,0,.215-.971.232-1.063.033-.176.022-.4.231-.448a2.8,2.8,0,0,1,.922.148c.688.168,7.255,1.8,7.648,1.916.193.058.463.077.6.221a.271.271,0,0,1,.057.093c.049-.178.137-.364-.005-.516s-.4-.163-.6-.221c-.393-.12-6.96-1.749-7.648-1.917a2.833,2.833,0,0,0-.921-.148c-.209.051-.2.272-.231.448-.017.093-.241,1.061-.232,1.063-2.237-.489-3.43.514-3.666,2.978C417.517,412.714,418.7,411.855,420.8,412.315Z" transform="translate(-417.186 -410.369)" fill="#f7fff3"/>
          <path id="Path_99" data-name="Path 99" d="M433.371,433.043a.618.618,0,0,0,.375-.615l-.01-.121a.6.6,0,0,1-1.008.142l-1.127-1.338-1.606.671a.593.593,0,0,1-.817-.428.616.616,0,0,0,.07.682.606.606,0,0,0,.7.17l1.607-.67,1.127,1.338A.6.6,0,0,0,433.371,433.043Z" transform="translate(-424.58 -423.148)" fill="#f7fff3"/>
          <path id="Path_100" data-name="Path 100" d="M448.579,430.106a3.409,3.409,0,0,0,.126-.774c-.022.114-.04.226-.076.35-.479,1.469-1.353,1.916-2.365,1.837-.065.136-.128.281-.2.411C447.143,432.064,448.077,431.645,448.579,430.106Z" transform="translate(-435.101 -422.052)" fill="#f7fff3"/>
        </g>
      </g>
    </g>
  </g>
</svg>
