<svg xmlns="http://www.w3.org/2000/svg" xmlns:xlink="http://www.w3.org/1999/xlink" width="48" height="45" viewBox="0 0 48 45">
  <defs>
    <radialGradient id="radial-gradient" cx="0.37" cy="0.924" r="1.492" gradientTransform="translate(0.341) scale(0.317 1)" gradientUnits="objectBoundingBox">
      <stop offset="0" stop-color="#50c8e8"/>
      <stop offset="0.11" stop-color="#4ec1e1"/>
      <stop offset="0.267" stop-color="#48afce"/>
      <stop offset="0.452" stop-color="#4092af"/>
      <stop offset="0.659" stop-color="#346984"/>
      <stop offset="0.882" stop-color="#24354d"/>
      <stop offset="1" stop-color="#1c172e"/>
    </radialGradient>
    <radialGradient id="radial-gradient-2" cx="0.426" cy="0.954" r="0.802" gradientTransform="translate(0.122) scale(0.755 1)" gradientUnits="objectBoundingBox">
      <stop offset="0" stop-color="#1cbeca"/>
      <stop offset="0.108" stop-color="#1ab1bd"/>
      <stop offset="0.308" stop-color="#15919a"/>
      <stop offset="0.578" stop-color="#0d5d63"/>
      <stop offset="0.905" stop-color="#031617"/>
      <stop offset="1"/>
    </radialGradient>
    <radialGradient id="radial-gradient-3" cx="-0.04" cy="-0.437" r="1.62" gradientTransform="translate(0.057) scale(0.886 1)" gradientUnits="objectBoundingBox">
      <stop offset="0" stop-color="#1cbeca"/>
      <stop offset="0.118" stop-color="#1cb7c3"/>
      <stop offset="0.287" stop-color="#1ca4b2"/>
      <stop offset="0.486" stop-color="#1c8595"/>
      <stop offset="0.708" stop-color="#1c5a6d"/>
      <stop offset="0.947" stop-color="#1c243a"/>
      <stop offset="1" stop-color="#1c172e"/>
    </radialGradient>
    <radialGradient id="radial-gradient-4" cx="-0.04" cy="-0.437" r="1.723" gradientTransform="translate(0.116) scale(0.769 1)" xlink:href="#radial-gradient-3"/>
  </defs>
  <g id="Group_56" data-name="Group 56" transform="translate(-393.974 -394.516)">
    <g id="Group_27" data-name="Group 27" transform="translate(393.974 394.516)">
      <path id="Path_70" data-name="Path 70" d="M395.853,428.369c1.07,3.895,3.151,7.173,7.793,8.559a70.038,70.038,0,0,0,23.852,2.459,10.28,10.28,0,0,0,9.588-6.682,67.129,67.129,0,0,0,4.389-16.8c.6-5.763,1.011-8.334-.923-11.911-2.077-3.843-6.259-5.085-9.98-6.153-6.76-1.941-18.788-3.624-24.228-3.281-4.055.255-7.96.824-10.568,4.348-2.149,2.906-1.807,6.722-1.744,10.151.065,3.512.161,7.028.513,10.525A54.5,54.5,0,0,0,395.853,428.369Z" transform="translate(-393.974 -394.516)" fill="#f68a2f"/>
      <path id="Path_71" data-name="Path 71" d="M438.587,454.145q-.226.586-.47,1.183a10.281,10.281,0,0,1-9.588,6.682,70.009,70.009,0,0,1-23.852-2.46c-4.642-1.386-6.723-4.663-7.793-8.559-.167-.608-.306-1.235-.43-1.869l-.084.1c.142.786.308,1.562.514,2.311,1.07,3.895,3.151,7.173,7.793,8.559a70.038,70.038,0,0,0,23.852,2.459,10.28,10.28,0,0,0,9.588-6.682c.179-.439.349-.872.516-1.3C438.615,454.426,438.6,454.288,438.587,454.145Z" transform="translate(-395.005 -417.679)" fill="url(#radial-gradient)" style="mix-blend-mode: screen;isolation: isolate"/>
      <path id="Path_72" data-name="Path 72" d="M426.518,438.676c-2.018,0-4.339-.089-5.745-.177-1.431-.059-2.994-.2-4.892-.447a57.188,57.188,0,0,1-9-1.895c-2.962-.886-4.642-2.776-5.616-6.322a45.774,45.774,0,0,1-1.118-7.356c-.392-5.853-.891-13.78-.738-15.416a7.407,7.407,0,0,1,1.273-3.9c1.643-2.221,4.148-2.784,8.19-3.039,1.148-.073,2.319-.109,3.482-.109a69.744,69.744,0,0,1,19.748,3.106,25.455,25.455,0,0,1,4.967,1.978c4.873,2.5,4.3,6.875,3.831,10.4-.064.491-.128.978-.179,1.461l-.01.07c-.077.451-1.938,11.118-4.254,16.778a7.274,7.274,0,0,1-6.812,4.756A30.207,30.207,0,0,1,426.518,438.676Z" transform="translate(-396.299 -396.847)" fill="#f0a42e"/>
      <path id="Path_76" data-name="Path 76" d="M440.2,419.678c-.065.5-.131,1-.183,1.49-.257,1.433-2.027,11.1-4.062,16.076a4.686,4.686,0,0,1-4.3,2.932c-1.189.1-2.364.128-3.527.139a69.431,69.431,0,0,1-9.658-.626,54.317,54.317,0,0,1-8.545-1.8c-1.688-.505-2.818-1.368-3.621-4.273-.93-3.365-1.537-13.766-1.641-16.755-.036-1.026-.133-2.3-.148-3.517-.015,1.37.108,2.878.148,4.056.1,2.989.711,13.391,1.641,16.754.8,2.906,1.933,3.768,3.621,4.273a54.125,54.125,0,0,0,8.545,1.8,69.163,69.163,0,0,0,9.658.628c1.164-.011,2.338-.035,3.527-.139a4.687,4.687,0,0,0,4.3-2.932c2.035-4.973,3.8-14.642,4.062-16.076.052-.491.118-.99.183-1.49a23.916,23.916,0,0,0,.339-3.667C440.507,417.547,440.337,418.612,440.2,419.678Z" transform="translate(-398.507 -402.503)" fill="url(#radial-gradient-2)" style="mix-blend-mode: screen;isolation: isolate"/>
      <path id="Path_78" data-name="Path 78" d="M425.024,404.621a49.591,49.591,0,0,0-13.615-.873c-2.4.179-5.226.427-6.393,2.512-.807,1.441-.437,4.805-.362,7.011.051,1.479.226,4.779.5,8.139.084.192.165.382.252.578C405.277,407.531,410.7,404.127,425.024,404.621Z" transform="translate(-398.506 -398.373)" fill="url(#radial-gradient-3)" style="mix-blend-mode: screen;isolation: isolate"/>
      <path id="Path_79" data-name="Path 79" d="M441.673,441.845c2.035-4.973,3.8-14.642,4.062-16.076.052-.491.118-.99.183-1.49.06-.454.125-.908.182-1.355-4.019,19.2-12.066,22.741-28.3,20.16a55.246,55.246,0,0,0,6.384,1.205,69.173,69.173,0,0,0,9.658.628c1.164-.011,2.338-.035,3.527-.139A4.687,4.687,0,0,0,441.673,441.845Z" transform="translate(-404.228 -406.566)" fill="url(#radial-gradient-4)" style="mix-blend-mode: screen;isolation: isolate"/>
      <path id="Path_81" data-name="Path 81" d="M410.393,406.892c-1.136-1.1-4.2,1.034-4.009,2.3.22,1.475,3.69-.4,4.052-1.175C410.685,407.49,410.628,407.12,410.393,406.892Z" transform="translate(-399.312 -399.636)" fill="#fff" opacity="0.77" style="mix-blend-mode: screen;isolation: isolate"/>
      <path id="Path_82" data-name="Path 82" d="M454.535,454.958c-.82-.8-3.031.746-2.894,1.662.159,1.065,2.663-.291,2.925-.848C454.745,455.387,454.7,455.121,454.535,454.958Z" transform="translate(-418.792 -420.059)" fill="#1cbeca" opacity="0.77" style="mix-blend-mode: screen;isolation: isolate"/>
      <path id="Path_83" data-name="Path 83" d="M417.16,405.166c-.635-.481-2.172.462-1.5,1.158C416.261,406.944,418.238,405.985,417.16,405.166Z" transform="translate(-403.237 -398.978)" fill="#fff" opacity="0.77" style="mix-blend-mode: screen;isolation: isolate"/>
      <path id="Path_84" data-name="Path 84" d="M458.257,451.053c-.711-.356-2.051.855-1.264,1.415C457.693,452.966,459.466,451.658,458.257,451.053Z" transform="translate(-420.995 -418.47)" fill="#1cbeca" opacity="0.77" style="mix-blend-mode: screen;isolation: isolate"/>
      <g id="Group_26" data-name="Group 26" transform="translate(4.44 36.646)">
        <path id="Path_86" data-name="Path 86" d="M406.92,462.592c.387-1.091-1.927-2.512-2.7-2.008-.9.586,1.36,2.359,1.974,2.372C406.613,462.964,406.839,462.817,406.92,462.592Z" transform="translate(-402.732 -459.141)" fill="#afdfe4" opacity="0.77" style="mix-blend-mode: screen;isolation: isolate"/>
        <path id="Path_87" data-name="Path 87" d="M402.922,459.3c.29-.56-.811-1.728-1.128-.789-.187.553.8,1.415,1.128.789Z" transform="translate(-401.77 -458.155)" fill="#afdfe4" opacity="0.77" style="mix-blend-mode: screen;isolation: isolate"/>
      </g>
    </g>
    <g id="Group_30" data-name="Group 30" transform="translate(406.423 403.004)">
      <path id="Path_88" data-name="Path 88" d="M428.848,438.26a3.4,3.4,0,0,1-.505-.113c-.064-.018-.127-.037-.188-.051,0,0-1.95-.477-2.368-.577-.966-.229-1.929-.466-2.893-.7-.3-.074-.6-.145-.9-.217-.6-.143-1.2-.286-1.792-.448-.3-.082-.6-.143-.91-.205l-.062-.013a1.822,1.822,0,0,1-1.294-.654,1.1,1.1,0,0,1-.1-.829,2.736,2.736,0,0,1,.188-.544l-.007-.01-.009-.1a1.168,1.168,0,0,1-.014-.629,3.45,3.45,0,0,1,.347-.856c.036-.068.071-.136.1-.2a5.437,5.437,0,0,1,2.351-2.443,5.981,5.981,0,0,1,1.522-.56c.013,0,.079-.012.179-.024a7.364,7.364,0,0,1-1.8-3.444c-2.554-.715-4.345-2.029-4.853-5.729l-.005-.069a18.382,18.382,0,0,1,.077-2.425c.009-.26.027-.55.054-.829a8.082,8.082,0,0,1,.818-3.036,4.782,4.782,0,0,1,.271-.445l.073-.1a4.081,4.081,0,0,1,.273-.336l.073-.079c.129-.131.226-.225.329-.312a1.1,1.1,0,0,1,.1-.071,3.848,3.848,0,0,1,1.119-.6c.116-.04.194-.066.276-.088s.188-.042.282-.06.217-.04.329-.054c.092-.012.188-.021.285-.027.118-.008.243-.011.371-.012.09,0,.18,0,.271,0,.147.007.3.02.448.036l.2.021c.042,0,.084.011.124.017.026-.118.057-.252.092-.4.061-.274.116-.513.125-.571l.018-.108a1.133,1.133,0,0,1,.8-1.069,1.664,1.664,0,0,1,.6-.015,7.436,7.436,0,0,1,.9.192l.177.044c.8.195,10.868,2.689,11.508,2.884.06.018.13.035.2.051a1.759,1.759,0,0,1,.969.455,1.038,1.038,0,0,1,.232.39l.01.024.015.06a1.172,1.172,0,0,1,.024.389,2.338,2.338,0,0,1-.043.24,1.519,1.519,0,0,1-.065.86c-.014.047-.029.094-.039.141-.007.026-.027.1-.056.208.074.028.148.058.223.088l.145.062a5.974,5.974,0,0,1,.707.366l.068.039a4.2,4.2,0,0,1,1.2,1.117l.051.075a3.588,3.588,0,0,1,.363.685,4.307,4.307,0,0,1,.283,1.66l0,.077c-.006.173-.015.318-.031.466a11.436,11.436,0,0,1-1.751,5.486l-.036.057c-1.681,2.422-3.476,3.32-6,3.007h0c-.189-.024-.383-.052-.586-.09a7.017,7.017,0,0,1-3.272,2.352,5.935,5.935,0,0,1,.948,1.044,5.7,5.7,0,0,1,1.02,3.223l0,.152a3.087,3.087,0,0,1-.092,1.051c-.018.055-.038.107-.06.158v.053a3.2,3.2,0,0,1-.1,1.067A1.147,1.147,0,0,1,428.848,438.26Zm.46-14.827a.278.278,0,0,0,.178.1.282.282,0,0,0,.14-.02.263.263,0,0,0,.046-.028l-.171-2.459.124-.052-.064-.836,2.4-1-2.634-.645-.218-3.164a.278.278,0,0,0-.206-.262H428.9a.287.287,0,0,0-.3.137l-1.621,2.716-2.92-.714,1.687,2-.338.556.271.329-1.3,2.185a.3.3,0,0,0,.109-.021l2.834-1.184Zm6.59-3.954c-.44,1.411-.9,2.7-1.384,3.862.059-.02.113-.041.168-.065a2.2,2.2,0,0,0,.363-.2,2.545,2.545,0,0,0,.346-.295,3.081,3.081,0,0,0,.326-.407,4.36,4.36,0,0,0,.306-.54,6.072,6.072,0,0,0,.271-.689,5.334,5.334,0,0,0,.12-.544A1.4,1.4,0,0,0,435.9,419.479Zm-16.671-1.695a2.515,2.515,0,0,0,1.136,2.363c.011-.186.025-.373.04-.561.035-.78.116-1.68.249-2.729.047-.365.1-.731.153-1.1C420.234,415.7,419.536,416.306,419.227,417.784Z" transform="translate(-415.831 -409.256)" fill="#f68a2f"/>
      <g id="Group_29" data-name="Group 29" transform="translate(0.633 0.641)">
        <path id="Path_89" data-name="Path 89" d="M436.629,417.258c-.031-.008.347-1.342.372-1.444.068-.294.243-.608.014-.86-.2-.221-.606-.246-.895-.334-.59-.181-10.439-2.625-11.471-2.876a4.12,4.12,0,0,0-1.382-.219c-.314.079-.3.42-.35.69-.027.143-.373,1.635-.358,1.638-3.972-.865-5.773,1.456-5.607,6.92.484,3.523,2.131,4.634,4.756,5.295a6.161,6.161,0,0,0,2.869,4.4l-.035-.008-.294,1.231c0-.009-1.321.126-1.445.154a5.405,5.405,0,0,0-1.368.522,5,5,0,0,0-2.093,2.227,4.654,4.654,0,0,0-.407.942.48.48,0,0,0,.021.361c.122.2.664.313.878.356.339.069.673.137,1.009.228.887.241,1.788.44,2.68.662q1.443.357,2.886.7c.791.188,1.579.387,2.369.576.47.112,1.055.4,1.264-.255a3.316,3.316,0,0,0,.063-1.018,5.205,5.205,0,0,0-.885-2.934,5.38,5.38,0,0,0-1-1.084c-.1-.079-1.227-.811-1.232-.791l.272-1.138c1.806.041,3.342-.918,4.68-2.645,2.481.532,4.376.214,6.318-2.581C440.868,421.212,440.51,418.33,436.629,417.258Zm-17.564,1.44c.486-2.5,2-3.054,3-2.355a37.119,37.119,0,0,0-.657,6.706C419.744,422.522,418.657,421.295,419.065,418.7Zm14,2.645-2.421,1.046.186,2.7a.968.968,0,0,1-.568.95.889.889,0,0,1-1.042-.255l-1.68-2.049-2.418,1.047a.891.891,0,0,1-1.043-.256.969.969,0,0,1-.075-1.106l1.382-2.313-1.681-2.049a.973.973,0,0,1-.076-1.107.911.911,0,0,1,.994-.43l2.536.62,1.381-2.313a.9.9,0,0,1,1.685.411l.185,2.7,2.535.62a.921.921,0,0,1,.69.841A.956.956,0,0,1,433.064,421.343Zm4.255,1.816c-.77,2.369-2.176,3.025-3.788,2.828a39.024,39.024,0,0,0,2.417-6.324C437.054,419.682,437.97,420.867,437.319,423.159Z" transform="translate(-416.942 -410.851)" fill="#f9aa30"/>
        <path id="Path_90" data-name="Path 90" d="M436.7,416.058c-.031-.009.34-1.307.363-1.406.066-.287.239-.592.009-.838-.2-.215-.606-.245-.895-.332-.59-.18-10.439-2.623-11.472-2.875a4.25,4.25,0,0,0-1.382-.222c-.313.077-.3.408-.346.672-.026.139-.361,1.592-.348,1.594-3.969-.867-5.756,1.384-5.556,6.712.5,3.438,2.156,4.532,4.781,5.193a6.1,6.1,0,0,0,2.89,4.311l-.035-.009-.287,1.2c0-.01-1.317.114-1.439.141a5.37,5.37,0,0,0-1.365.5,4.846,4.846,0,0,0-2.077,2.158,4.463,4.463,0,0,0-.4.916.45.45,0,0,0,.023.351c.122.2.665.309.879.352.339.071.674.139,1.009.23.886.241,1.787.441,2.68.66q1.442.359,2.887.7c.791.187,1.578.387,2.369.576.47.112,1.057.4,1.261-.241a3.144,3.144,0,0,0,.057-.992,5.037,5.037,0,0,0-.9-2.865,5.369,5.369,0,0,0-1-1.064c-.1-.078-1.231-.8-1.235-.779l.265-1.107a5.706,5.706,0,0,0,4.658-2.552c2.48.534,4.37.237,6.293-2.478C440.959,419.938,440.584,417.127,436.7,416.058Zm-17.53,1.3c.471-2.439,1.981-2.964,2.984-2.277a35.147,35.147,0,0,0-.616,6.533C419.873,421.086,418.781,419.883,419.173,417.353Zm13.994,2.666-2.411,1.005.2,2.629a.925.925,0,0,1-.562.922.907.907,0,0,1-1.042-.255l-1.69-2.007-2.409,1.006a.907.907,0,0,1-1.043-.255.93.93,0,0,1-.082-1.079l1.366-2.247-1.69-2.007a.927.927,0,0,1-.082-1.079.91.91,0,0,1,.99-.415l2.536.622,1.364-2.249a.909.909,0,0,1,1.684.412l.2,2.629,2.535.62a.924.924,0,0,1,.133,1.747Zm4.258,1.795c-.752,2.307-2.154,2.937-3.764,2.736a37.125,37.125,0,0,0,2.377-6.151C437.142,418.422,438.064,419.585,437.425,421.814Z" transform="translate(-416.993 -410.369)" fill="#fff"/>
        <g id="Group_28" data-name="Group 28" transform="translate(0.139)">
          <path id="Path_91" data-name="Path 91" d="M425.646,419.627q-.142.87-.248,1.714.119-.84.27-1.7Z" transform="translate(-420.721 -414.296)" fill="#f7fff3"/>
          <path id="Path_92" data-name="Path 92" d="M422.941,427.752c0-.215.008-.442.011-.662a3.228,3.228,0,0,1-2.346-3.74c-.01.05-.023.1-.033.146C420.181,426.026,421.273,427.228,422.941,427.752Z" transform="translate(-418.61 -415.875)" fill="#f7fff3"/>
          <path id="Path_93" data-name="Path 93" d="M443.516,426.816l-2.411,1.005.046.585,2.288-.955a.918.918,0,0,0,.561-.921.815.815,0,0,0-.032-.136A.916.916,0,0,1,443.516,426.816Z" transform="translate(-427.481 -417.166)" fill="#f7fff3"/>
          <path id="Path_94" data-name="Path 94" d="M451.407,420.9c2.381.655,3.437,1.969,3.309,3.954.407-2.32-.59-3.836-3.162-4.567A4.776,4.776,0,0,0,451.407,420.9Z" transform="translate(-431.914 -414.575)" fill="#f7fff3"/>
          <path id="Path_95" data-name="Path 95" d="M423.1,445.384a5.4,5.4,0,0,1,1.364-.5c.122-.028,1.442-.151,1.44-.142l.286-1.2.035.009c-.035-.019-.063-.041-.1-.062-.073.306-.148.616-.148.617s-1.317.114-1.439.141a5.371,5.371,0,0,0-1.365.5,4.846,4.846,0,0,0-2.077,2.158,4.462,4.462,0,0,0-.4.916.458.458,0,0,0,.021.342c.088-.215.207-.423.3-.622A4.847,4.847,0,0,1,423.1,445.384Z" transform="translate(-418.689 -424.418)" fill="#f7fff3"/>
          <path id="Path_96" data-name="Path 96" d="M436.987,447.557a5.372,5.372,0,0,0-1-1.064c-.083-.066-.928-.607-1.168-.745l-.144.6c0-.019,1.139.7,1.234.78a5.348,5.348,0,0,1,1,1.064,5.045,5.045,0,0,1,.9,2.865c0,.121.007.248.009.377,0-.008.007-.013.01-.022a3.144,3.144,0,0,0,.057-.992A5.037,5.037,0,0,0,436.987,447.557Z" transform="translate(-424.712 -425.375)" fill="#f7fff3"/>
          <path id="Path_97" data-name="Path 97" d="M428.606,423.5l1.511,1.793.257-.423-1.691-2.007a.92.92,0,0,1-.182-.388A.926.926,0,0,0,428.606,423.5Z" transform="translate(-422.01 -415.506)" fill="#f7fff3"/>
          <path id="Path_98" data-name="Path 98" d="M422.608,413.288c-.012,0,.322-1.456.348-1.594.049-.264.034-.6.346-.672a4.207,4.207,0,0,1,1.382.222c1.032.252,10.882,2.694,11.471,2.875.289.087.694.116.895.331a.407.407,0,0,1,.085.139c.073-.268.206-.546-.008-.774s-.606-.245-.895-.332c-.59-.18-10.439-2.623-11.472-2.875a4.25,4.25,0,0,0-1.382-.222c-.313.077-.3.408-.346.672-.026.139-.361,1.592-.348,1.594-3.355-.733-5.145.772-5.5,4.467C417.682,413.887,419.452,412.6,422.608,413.288Z" transform="translate(-417.186 -410.369)" fill="#f7fff3"/>
          <path id="Path_99" data-name="Path 99" d="M435.5,434.01a.927.927,0,0,0,.562-.923l-.015-.181a.894.894,0,0,1-1.512.213l-1.69-2.007-2.409,1.006a.89.89,0,0,1-1.225-.642.924.924,0,0,0,.1,1.023.909.909,0,0,0,1.043.255l2.41-1.005,1.691,2.007A.906.906,0,0,0,435.5,434.01Z" transform="translate(-422.317 -419.167)" fill="#f7fff3"/>
          <path id="Path_100" data-name="Path 100" d="M449.835,430.493a5.117,5.117,0,0,0,.19-1.161c-.034.171-.06.339-.113.525-.718,2.2-2.03,2.875-3.548,2.756-.1.2-.193.422-.294.616C447.68,433.43,449.081,432.8,449.835,430.493Z" transform="translate(-429.618 -418.412)" fill="#f7fff3"/>
        </g>
      </g>
    </g>
  </g>
</svg>
