<svg xmlns="http://www.w3.org/2000/svg" xmlns:xlink="http://www.w3.org/1999/xlink" width="28" height="32" viewBox="0 0 28 32">
  <defs>
    <radialGradient id="radial-gradient" cx="0.5" cy="0.5" r="0.51" gradientTransform="translate(-0.196 -0.11) scale(0.979 0.979)" gradientUnits="objectBoundingBox">
      <stop offset="0" stop-color="#ff731e"/>
      <stop offset="1" stop-color="#e45d20"/>
    </radialGradient>
    <radialGradient id="radial-gradient-2" cx="0.5" cy="0.5" r="0.474" gradientTransform="translate(-0.059) scale(1.118 1)" xlink:href="#radial-gradient"/>
  </defs>
  <g id="Group_205" data-name="Group 205" transform="translate(-1892.884 -408.033)">
    <g id="Group_203" data-name="Group 203" transform="translate(1892.884 408.033)">
      <path id="Path_1129" data-name="Path 1129" d="M1913.2,445.372h-14.223a6.094,6.094,0,0,1-6.1-6.093V425.06a6.094,6.094,0,0,1,6.1-6.093H1913.2a6.094,6.094,0,0,1,6.1,6.093v14.218A6.094,6.094,0,0,1,1913.2,445.372Z" transform="translate(-1892.884 -417.011)" fill="#cb3e34" style="mix-blend-mode: multiply;isolation: isolate"/>
      <path id="Path_1130" data-name="Path 1130" d="M1921.575,434.438h-14.222a6.094,6.094,0,0,1-6.1-6.093V414.126a6.094,6.094,0,0,1,6.1-6.093h14.222a6.094,6.094,0,0,1,6.1,6.093v14.218A6.094,6.094,0,0,1,1921.575,434.438Z" transform="translate(-1899.789 -408.033)" fill="url(#radial-gradient)"/>
      <path id="Path_1131" data-name="Path 1131" d="M2009.842,419.748a2.357,2.357,0,0,1,2.683-.851c2.2.633,4.1,4.151,2.218,6.068C2012.44,427.317,2008.55,421.931,2009.842,419.748Z" transform="translate(-1989.132 -416.864)" opacity="0.58" fill="url(#radial-gradient-2)" style="mix-blend-mode: screen;isolation: isolate"/>
    </g>
    <path id="Path_1132" data-name="Path 1132" d="M1936.454,453.715l.378-2.861a2.806,2.806,0,0,1,.679-1.465,14.547,14.547,0,0,1,1.457-1.544q.845-.784,1.813-1.521t1.791-1.419a15.263,15.263,0,0,0,1.368-1.26,1.617,1.617,0,0,0,.545-1.011,1.86,1.86,0,0,0-.256-1.056.751.751,0,0,0-.634-.375,1.229,1.229,0,0,0-.656.17,1.139,1.139,0,0,0-.423.443,2.218,2.218,0,0,0-.211.59,3.085,3.085,0,0,0-.067.636v.227a.133.133,0,0,0,.022.091q-.6.046-1.246.114-.556.046-1.235.125t-1.346.148q-.022-.181-.033-.375c-.008-.128-.011-.246-.011-.352a5.423,5.423,0,0,1,.512-2.4,5.546,5.546,0,0,1,1.324-1.771,6.055,6.055,0,0,1,3.9-1.488,4.787,4.787,0,0,1,1.613.273,3.819,3.819,0,0,1,1.357.829,4.058,4.058,0,0,1,.946,1.408,5.259,5.259,0,0,1,.356,2.033,4.631,4.631,0,0,1-.578,2.214,9.236,9.236,0,0,1-1.6,2.112,17.378,17.378,0,0,1-2.425,2.01,31.1,31.1,0,0,1-3.048,1.862q.6,0,1.546-.046t1.936-.125l2.147-.17-.356,3.293q-.534.046-1.213.091t-1.446.091q-.768.046-1.58.1t-1.569.1Q1938.412,453.579,1936.454,453.715Z" transform="translate(-35.934 -24.084)" fill="#ff731e"/>
    <path id="Path_1133" data-name="Path 1133" d="M1943.267,453.715l.378-2.861a2.805,2.805,0,0,1,.679-1.465,14.583,14.583,0,0,1,1.457-1.544q.845-.784,1.813-1.521t1.791-1.419a15.283,15.283,0,0,0,1.369-1.26,1.618,1.618,0,0,0,.545-1.011,1.86,1.86,0,0,0-.256-1.056.751.751,0,0,0-.634-.375,1.23,1.23,0,0,0-.656.17,1.14,1.14,0,0,0-.423.443,2.218,2.218,0,0,0-.211.59,3.085,3.085,0,0,0-.067.636v.227a.133.133,0,0,0,.022.091q-.6.046-1.246.114-.556.046-1.235.125t-1.346.148q-.023-.181-.033-.375c-.008-.128-.011-.246-.011-.352a5.421,5.421,0,0,1,.512-2.4,5.546,5.546,0,0,1,1.324-1.771,6.055,6.055,0,0,1,3.9-1.488,4.788,4.788,0,0,1,1.613.273,3.818,3.818,0,0,1,1.357.829,4.059,4.059,0,0,1,.946,1.408,5.259,5.259,0,0,1,.356,2.033,4.631,4.631,0,0,1-.578,2.214,9.243,9.243,0,0,1-1.6,2.112,17.379,17.379,0,0,1-2.425,2.01,31.1,31.1,0,0,1-3.048,1.862q.6,0,1.546-.046t1.936-.125l2.147-.17-.356,3.293q-.534.046-1.213.091t-1.446.091q-.768.046-1.58.1t-1.569.1Q1945.225,453.579,1943.267,453.715Z" transform="translate(-41.553 -24.084)" fill="#fff"/>
    <g id="Group_204" data-name="Group 204" transform="translate(1894.394 429.693)">
      <path id="Path_1134" data-name="Path 1134" d="M1954.719,535.695a17.463,17.463,0,0,1,.7,3.517.341.341,0,0,1-.073.212c-.358.324-3.281-1.761-3.281-1.761s-2.852,2.009-3.28,1.761.626-3.729.626-3.729-2.68-2.22-2.655-2.639,3.668-.545,3.668-.545a17.876,17.876,0,0,1,1.276-3.057c.132-.2.258-.326.363-.335.562-.039,1.64,3.392,1.64,3.392s3.469.16,3.668.545S1954.719,535.695,1954.719,535.695Z" transform="translate(-1938.824 -529.118)" fill="#feb333"/>
      <path id="Path_1135" data-name="Path 1135" d="M1955.418,540.749a.341.341,0,0,1-.073.212c-.358.324-3.281-1.761-3.281-1.761s-2.852,2.009-3.28,1.761.626-3.729.626-3.729-2.68-2.22-2.655-2.639,3.668-.545,3.668-.545a17.876,17.876,0,0,1,1.276-3.057C1950.437,537.156,1953.325,539.721,1955.418,540.749Z" transform="translate(-1938.824 -530.655)" fill="#feb333" opacity="0.48" style="mix-blend-mode: multiply;isolation: isolate"/>
      <path id="Path_1136" data-name="Path 1136" d="M2013.036,548.39a16.381,16.381,0,0,1,.527,2.445c.009.182-.005.311-.057.359-.27.244-2.467-1.324-2.467-1.324s-2.145,1.512-2.467,1.324.47-2.8.47-2.8-2.015-1.671-2-1.987,2.758-.409,2.758-.409.23-.716.51-1.389c.245-.591.526-1.149.724-1.163.423-.03,1.234,2.552,1.234,2.552s2.608.12,2.758.409S2013.036,548.39,2013.036,548.39Z" transform="translate(-1988.548 -540.88)" fill="#feb333"/>
      <path id="Path_1137" data-name="Path 1137" d="M2013.506,556.531c-.27.244-2.467-1.324-2.467-1.324s-2.145,1.512-2.467,1.324.47-2.8.47-2.8-2.015-1.671-2-1.987,2.758-.409,2.758-.409.23-.716.51-1.389c-.108,4.054,1.775,5.624,3.248,6.23C2013.572,556.354,2013.557,556.484,2013.506,556.531Z" transform="translate(-1988.548 -546.218)" fill="#feb333" opacity="0.48" style="mix-blend-mode: multiply;isolation: isolate"/>
      <path id="Path_1138" data-name="Path 1138" d="M1907.487,548.39a17.778,17.778,0,0,1,.518,2.339c.023.236.013.41-.047.465-.27.244-2.467-1.324-2.467-1.324s-2.145,1.512-2.467,1.324.47-2.8.47-2.8-2.015-1.671-2-1.987,2.758-.409,2.758-.409.295-.914.621-1.649c.215-.484.445-.89.613-.9.423-.03,1.234,2.552,1.234,2.552s2.609.12,2.758.409S1907.487,548.39,1907.487,548.39Z" transform="translate(-1901.498 -540.88)" fill="#feb333"/>
      <path id="Path_1139" data-name="Path 1139" d="M1907.957,555.336c-.27.244-2.467-1.324-2.467-1.324s-2.145,1.512-2.467,1.324.47-2.8.47-2.8-2.015-1.671-2-1.987,2.758-.409,2.758-.409.295-.914.621-1.649c-.638,4.9,1.75,6.1,3.127,6.383C1908.027,555.107,1908.018,555.281,1907.957,555.336Z" transform="translate(-1901.498 -545.023)" fill="#feb333" opacity="0.48" style="mix-blend-mode: multiply;isolation: isolate"/>
      <path id="Path_1152" data-name="Path 1152" d="M2225.179,548.39a16.365,16.365,0,0,1,.528,2.445c.009.182-.005.311-.057.359-.27.244-2.47-1.324-2.47-1.324s-2.148,1.512-2.471,1.324.471-2.8.471-2.8-2.018-1.671-2-1.987,2.761-.409,2.761-.409.23-.716.511-1.389c.245-.591.527-1.149.725-1.163.423-.03,1.236,2.552,1.236,2.552s2.612.12,2.762.409S2225.179,548.39,2225.179,548.39Z" transform="translate(-2200.695 -540.88)" fill="#71678c"/>
    </g>
  </g>
</svg>
