<svg id="yes_button" xmlns="http://www.w3.org/2000/svg" width="76" height="76" viewBox="0 0 76 76">
  <g id="Group_14" data-name="Group 14">
    <ellipse id="Ellipse_1" data-name="Ellipse 1" cx="34.241" cy="34.241" rx="34.241" ry="34.241" transform="translate(3.759 3.759)" fill="#b996c9"/>
    <path id="Path_31" data-name="Path 31" d="M1306.237,798.427A34.241,34.241,0,1,1,1272,832.668a34.241,34.241,0,0,1,34.241-34.241m0-3.759a38,38,0,1,0,38,38,38.043,38.043,0,0,0-38-38Z" transform="translate(-1268.237 -794.668)" fill="#9361a8"/>
    <ellipse id="Ellipse_2" data-name="Ellipse 2" cx="26.616" cy="26.616" rx="26.616" ry="26.616" transform="matrix(0.23, -0.973, 0.973, 0.23, 5.981, 57.789)" fill="#a276b5"/>
    <path id="Path_32" data-name="Path 32" d="M1319.079,875.614a31.61,31.61,0,0,1-25.845-13.4,26.616,26.616,0,1,0,51.689,0A31.61,31.61,0,0,1,1319.079,875.614Z" transform="translate(-1281.079 -830.472)" fill="#9361a8"/>
  </g>
  <path id="Path_33" data-name="Path 33" d="M1340.058,850.888l-15.405,15.405-5.992-5.992a3.986,3.986,0,0,0-5.637,0h0a3.986,3.986,0,0,0,0,5.637l8.756,8.756a4.064,4.064,0,0,0,5.747,0l18.169-18.169a3.986,3.986,0,0,0,0-5.637h0A3.986,3.986,0,0,0,1340.058,850.888Z" transform="translate(-1291.36 -823.852)" fill="#fff"/>
</svg>
